<?xml version="1.0" standalone="no"?>
<!DOCTYPE svg PUBLIC "-//W3C//DTD SVG 20010904//EN"
 "http://www.w3.org/TR/2001/REC-SVG-20010904/DTD/svg10.dtd">
<svg version="1.0" xmlns="http://www.w3.org/2000/svg"
 width="700.000000pt" height="700.000000pt" viewBox="0 0 700.000000 700.000000"
 preserveAspectRatio="xMidYMid meet">
<metadata>
Created by potrace 1.14, written by Peter Selinger 2001-2017
</metadata>
<g transform="translate(0.000000,700.000000) scale(0.100000,-0.100000)"
fill="#000000" stroke="none">
<path d="M3436 5960 l-37 -62 65 -112 c35 -61 73 -127 84 -146 10 -19 99 -174
197 -345 98 -170 187 -326 198 -345 10 -19 45 -80 77 -135 32 -55 67 -116 77
-135 11 -19 55 -96 98 -170 43 -74 88 -153 100 -175 12 -22 138 -242 280 -490
534 -931 1039 -1812 1069 -1866 17 -31 137 -240 266 -466 l235 -410 114 -81
c63 -45 116 -80 118 -78 2 1 -62 117 -143 257 -80 140 -156 272 -168 294 -13
22 -183 319 -379 661 -195 341 -367 640 -380 665 -14 24 -74 130 -134 234 -60
105 -113 197 -116 205 -4 8 -61 107 -127 220 -82 142 -116 208 -109 216 10 12
77 65 529 422 107 85 204 161 215 171 11 9 49 39 85 66 102 78 99 74 99 164 0
61 -3 78 -12 71 -17 -14 -88 -70 -128 -102 -19 -14 -104 -81 -189 -149 -235
-186 -475 -376 -576 -457 -51 -39 -94 -72 -97 -72 -4 0 -25 32 -47 70 -34 58
-39 73 -28 83 7 7 135 108 283 226 149 117 282 222 297 234 14 12 132 105 262
207 l235 185 1 78 c0 42 -4 77 -9 77 -6 0 -36 -21 -68 -48 -32 -26 -121 -97
-198 -157 -77 -60 -147 -115 -155 -122 -19 -15 -150 -120 -170 -136 -8 -7
-100 -79 -204 -161 -104 -82 -196 -155 -205 -162 -46 -38 -144 -114 -147 -114
-3 0 -67 109 -76 131 -5 14 97 99 495 414 276 218 516 408 532 422 17 13 69
54 117 91 l87 67 1 84 c0 86 -2 89 -40 51 -3 -3 -32 -25 -65 -50 -33 -24 -71
-54 -85 -66 -14 -12 -171 -137 -350 -278 -179 -141 -332 -262 -340 -269 -12
-10 -378 -299 -417 -329 -8 -6 -25 16 -58 74 -26 46 -58 101 -70 123 -19 33
-403 702 -465 810 -9 17 -41 73 -71 125 -30 52 -59 104 -66 115 -7 11 -17 29
-22 40 -6 11 -24 43 -40 70 -16 28 -41 70 -54 95 -14 25 -50 87 -80 139 l-55
93 -36 -62z"/>
<path d="M3275 5683 c-43 -67 -45 -75 -25 -108 10 -16 30 -52 45 -80 15 -27
30 -54 35 -60 4 -5 21 -35 37 -65 28 -51 241 -426 262 -460 15 -25 375 -653
388 -677 6 -13 36 -64 66 -115 30 -51 65 -113 79 -138 14 -25 59 -103 100
-175 41 -71 86 -150 100 -175 14 -25 94 -164 178 -310 84 -146 166 -290 183
-320 16 -30 38 -67 49 -82 10 -14 18 -28 18 -31 0 -3 32 -61 71 -129 39 -67
80 -139 91 -158 11 -19 84 -145 161 -280 77 -135 149 -261 160 -280 10 -19 36
-64 57 -100 21 -36 49 -85 63 -110 14 -25 68 -119 120 -210 l95 -165 122 -84
c67 -46 118 -75 112 -65 -15 28 -111 197 -121 214 -9 14 -135 233 -178 310
-11 19 -118 205 -237 413 -119 208 -226 395 -238 415 -24 43 -245 430 -258
452 -13 22 -771 1345 -798 1393 -13 23 -37 63 -53 90 -16 26 -29 49 -29 51 0
2 -30 55 -66 117 -36 63 -78 137 -94 164 -15 28 -51 91 -80 140 -29 50 -64
110 -78 135 -14 25 -60 106 -102 180 -96 167 -109 189 -154 270 -21 36 -41 68
-44 72 -4 4 -21 -14 -37 -39z"/>
<path d="M2950 5123 c-668 -1149 -1043 -1793 -1155 -1984 -34 -58 -65 -112
-68 -120 -4 -8 -15 -27 -26 -44 -23 -37 -822 -1410 -854 -1468 -13 -23 -39
-67 -57 -97 -87 -145 -171 -292 -168 -295 2 -1 93 69 203 157 110 87 213 168
229 181 16 12 84 65 150 118 276 218 844 667 886 699 25 19 47 37 50 41 3 3
28 24 56 45 28 21 209 164 403 318 194 153 355 276 358 273 3 -3 6 -419 7
-924 l1 -918 186 -3 187 -2 3 22 c2 13 4 436 3 941 0 504 1 917 4 917 2 0 79
-51 170 -113 92 -63 286 -194 432 -293 146 -98 346 -234 445 -301 99 -67 263
-178 365 -247 102 -68 265 -179 363 -245 97 -66 177 -117 177 -113 0 4 -6 16
-14 27 -7 11 -23 37 -35 57 -11 21 -29 53 -40 71 -10 18 -51 89 -91 157 -40
69 -82 141 -93 160 -10 19 -36 64 -57 100 -21 36 -47 81 -58 100 -11 19 -213
368 -449 775 -237 407 -437 754 -447 770 -9 17 -21 37 -26 45 -12 18 -34 57
-398 685 -159 275 -299 516 -311 535 -11 19 -24 42 -28 50 -7 15 -123 213
-127 218 -2 1 -81 -132 -176 -295z"/>
<path d="M2645 2494 c-71 -57 -143 -114 -159 -127 -16 -12 -59 -46 -95 -75
-36 -29 -73 -59 -81 -65 -8 -7 -143 -113 -300 -237 -310 -244 -384 -303 -415
-329 -26 -22 -280 -220 -314 -246 -14 -11 -34 -26 -43 -35 -9 -8 -89 -71 -177
-140 -88 -69 -160 -128 -161 -132 0 -5 43 -8 96 -8 l96 0 232 182 c247 195
419 331 476 377 58 46 290 230 400 316 56 44 108 85 114 90 6 6 85 69 176 140
91 71 167 132 170 135 3 4 31 26 63 49 l57 43 0 84 c0 46 -1 84 -2 83 -2 0
-61 -48 -133 -105z"/>
<path d="M2714 2167 c-27 -23 -67 -55 -88 -72 -62 -48 -331 -261 -456 -360
-145 -116 -584 -462 -670 -529 -36 -28 -74 -59 -84 -68 -11 -10 -23 -18 -28
-18 -4 0 -8 -4 -8 -10 0 -6 39 -10 98 -10 l97 0 90 70 c50 39 99 79 110 88 11
9 72 58 135 107 63 49 228 179 365 288 138 109 307 244 378 299 l127 100 0 79
c0 43 -3 79 -7 78 -5 0 -31 -19 -59 -42z"/>
</g>
</svg>
