<?xml version="1.0" standalone="no"?>
<!DOCTYPE svg PUBLIC "-//W3C//DTD SVG 20010904//EN"
 "http://www.w3.org/TR/2001/REC-SVG-20010904/DTD/svg10.dtd">
<svg version="1.0" xmlns="http://www.w3.org/2000/svg"
 width="1063.000000pt" height="1063.000000pt" viewBox="0 0 1063.000000 1063.000000"
 preserveAspectRatio="xMidYMid meet">
<metadata>
Created by potrace 1.14, written by Peter Selinger 2001-2017
</metadata>
<g transform="translate(0.000000,1063.000000) scale(0.100000,-0.100000)"
fill="#000000" stroke="none">
<path d="M5126 10269 c-653 -37 -1277 -208 -1864 -510 l-173 -89 -67 34 c-219
110 -501 166 -837 166 -373 0 -684 -68 -980 -216 -451 -224 -739 -600 -825
-1078 -67 -368 -12 -729 153 -1000 81 -134 220 -316 329 -431 l101 -106 -42
-152 c-78 -289 -117 -491 -148 -772 -32 -293 -22 -919 23 -1405 83 -901 302
-1610 536 -1731 44 -23 118 -25 157 -4 32 16 131 120 132 138 0 7 22 -69 50
-168 115 -418 246 -742 386 -953 64 -96 294 -338 433 -454 165 -139 387 -277
690 -428 171 -85 341 -184 519 -299 266 -173 402 -239 667 -324 803 -258 1778
-208 2414 124 52 28 158 95 235 149 77 55 331 227 565 384 423 282 676 463
821 587 218 186 395 367 512 524 167 224 295 639 342 1107 l7 68 37 -58 c43
-66 109 -128 157 -148 247 -103 469 433 549 1324 36 405 38 1115 4 1492 -33
371 -114 764 -219 1064 l-20 60 52 44 c417 354 579 857 457 1417 -140 646
-639 1081 -1394 1216 -115 21 -161 24 -400 24 -237 0 -285 -3 -395 -23 -142
-25 -258 -59 -376 -107 l-80 -33 -145 73 c-731 371 -1545 541 -2363 494z
m-2672 -1008 c28 -6 27 -7 -55 -76 -125 -104 -377 -353 -502 -495 -246 -281
-470 -607 -618 -902 -69 -138 -62 -138 -124 -6 -63 134 -79 212 -79 398 0 182
14 264 74 417 124 323 451 565 868 643 59 11 125 21 147 23 68 6 258 5 289 -2z
m6233 -30 c463 -96 786 -374 889 -766 36 -135 45 -361 19 -486 -16 -80 -64
-219 -75 -219 -3 0 -34 53 -69 118 -252 462 -612 908 -1017 1259 -101 88 -121
109 -107 115 31 14 255 1 360 -21z m-3801 -3041 c218 -59 356 -201 428 -440
13 -47 30 -113 36 -148 15 -85 15 -310 0 -397 -30 -167 -116 -336 -223 -430
-79 -71 -153 -113 -270 -153 -94 -33 -113 -36 -247 -40 -233 -6 -367 34 -474
144 -122 124 -196 361 -196 630 0 375 158 657 438 781 165 73 358 93 508 53z
m1316 10 c281 -27 496 -146 584 -326 31 -62 37 -86 41 -161 12 -206 -59 -333
-263 -473 -123 -83 -254 -183 -254 -191 0 -8 51 -13 289 -28 119 -8 171 -15
188 -27 50 -32 61 -96 56 -317 -3 -81 -6 -99 -20 -104 -9 -4 -107 3 -218 15
-278 31 -453 40 -794 42 -372 1 -344 -21 -339 270 l3 165 261 175 c314 210
350 237 407 300 58 64 81 114 82 173 0 41 -4 53 -28 73 -35 30 -96 33 -121 5
-10 -11 -24 -40 -32 -66 -24 -81 -7 -77 -283 -70 -135 3 -256 8 -268 11 -29 6
-30 43 -4 146 55 216 188 336 421 383 82 16 156 18 292 5z m-2655 -166 c141
-36 230 -103 282 -213 23 -50 26 -67 26 -166 -1 -218 -53 -299 -404 -627 -63
-59 -112 -110 -109 -113 3 -3 70 6 149 19 325 56 337 56 366 -11 13 -30 16
-69 15 -188 -2 -165 -5 -180 -30 -190 -9 -3 -111 -17 -227 -31 -293 -34 -617
-91 -953 -170 -57 -13 -108 -21 -114 -18 -29 18 -38 76 -38 236 0 127 3 168
15 184 8 12 103 101 212 199 296 266 430 405 476 491 36 70 47 127 31 169 -15
38 -94 41 -133 4 -11 -11 -28 -45 -37 -77 -9 -31 -23 -64 -33 -73 -10 -10 -65
-25 -141 -38 -69 -12 -178 -34 -243 -47 -65 -14 -125 -23 -133 -20 -18 7 -18
29 2 124 19 94 76 219 133 290 56 70 181 162 273 200 200 82 447 109 615 66z
m4120 -44 c131 -23 297 -53 368 -68 l130 -27 -4 -421 c-4 -411 -3 -422 16
-441 12 -12 41 -23 69 -27 96 -14 94 -9 94 -229 0 -105 -4 -198 -9 -206 -8
-12 -19 -12 -71 -2 -34 7 -68 15 -76 18 -11 4 -14 -15 -14 -105 0 -79 -4 -113
-13 -121 -10 -8 -59 -2 -188 24 -96 19 -214 39 -264 46 -127 16 -135 27 -135
175 l0 110 -332 47 c-183 26 -336 51 -341 56 -5 5 -7 98 -5 207 l3 199 32 62
c75 142 470 743 489 743 8 0 121 -18 251 -40z m1192 -317 c-1 -34 -2 -35 -9
-13 -11 36 -11 50 0 50 6 0 10 -17 9 -37z m-3064 -1502 c474 -80 871 -298
1103 -606 68 -91 145 -248 174 -355 20 -72 23 -109 22 -240 0 -139 -3 -164
-28 -245 -99 -324 -337 -580 -711 -765 -259 -128 -473 -188 -751 -212 -223
-19 -635 28 -819 92 -116 41 -355 162 -470 238 -286 190 -455 419 -511 692
-23 113 -15 341 15 455 54 202 185 403 351 538 290 234 669 386 1060 426 142
15 424 5 565 -18z m3254 -143 c18 -73 56 -205 85 -293 l53 -160 -8 -110 c-36
-471 -160 -913 -321 -1142 -67 -95 -230 -274 -358 -391 -239 -219 -405 -342
-1015 -749 -214 -144 -451 -306 -525 -362 -323 -241 -709 -375 -1210 -421
-145 -13 -569 -13 -720 0 -322 27 -592 94 -843 206 -138 62 -231 117 -447 260
-223 147 -337 211 -569 319 -97 45 -208 98 -247 118 -178 90 -351 231 -565
462 -163 175 -214 240 -299 375 -151 242 -256 506 -335 845 -47 200 -48 236
-7 344 62 162 121 421 156 695 9 66 18 121 20 123 2 2 32 1 67 -3 l64 -6 17
-72 c22 -87 84 -219 142 -301 54 -74 168 -184 233 -222 114 -67 787 -388 878
-418 121 -41 251 -59 365 -52 l85 5 1 -121 c2 -151 27 -263 89 -395 81 -171
199 -321 351 -444 36 -29 98 -93 139 -143 165 -203 381 -385 577 -486 213
-109 380 -145 627 -136 228 9 376 47 572 149 200 104 406 293 529 487 42 67
98 136 161 199 229 231 332 433 360 705 5 50 6 112 3 138 l-6 48 83 -6 c101
-7 229 9 347 43 94 27 840 385 928 445 162 110 292 300 349 512 17 64 19 67
49 68 17 1 42 5 56 9 55 18 55 18 89 -122z"/>
<path d="M4599 5824 c-34 -22 -65 -69 -85 -129 -13 -38 -18 -104 -21 -280 -5
-248 2 -319 40 -395 59 -120 204 -91 251 51 13 40 20 111 28 267 17 384 -18
503 -149 502 -21 0 -50 -8 -64 -16z"/>
<path d="M7463 5401 c-84 -125 -153 -237 -153 -248 0 -11 6 -26 14 -32 15 -13
284 -51 304 -43 11 4 13 55 10 261 -2 147 -7 263 -13 273 -8 13 -38 -26 -162
-211z"/>
<path d="M5275 3999 c-209 -25 -328 -77 -372 -162 -34 -67 4 -196 93 -313 21
-27 70 -92 110 -144 97 -128 178 -185 298 -210 67 -14 131 -7 194 20 60 27
147 113 195 195 23 38 58 93 79 122 82 113 138 232 138 295 0 81 -80 151 -211
184 -78 19 -404 27 -524 13z"/>
</g>
</svg>
