<?xml version="1.0" encoding="utf-8"?>
<!-- Generator: Adobe Illustrator 25.0.0, SVG Export Plug-In . SVG Version: 6.00 Build 0)  -->
<svg version="1.1" id="Warstwa_1" xmlns="http://www.w3.org/2000/svg" xmlns:xlink="http://www.w3.org/1999/xlink" x="0px" y="0px"
	 viewBox="0 0 900 1600" style="enable-background:new 0 0 900 1600;" xml:space="preserve">
<polygon points="1005.56,1473.28 962.56,1462.87 941.11,1435.62 898.21,1440.26 879.32,1466.3 849.71,1474.1 829.28,1346.87 
	812.64,1346.87 829.29,1480.81 794.51,1520.75 736.85,1478.96 712.34,1478.96 706.69,1498.15 616.34,1498.15 596.94,1462.87 
	563.24,1462.87 528.83,1484.34 382.62,1490.46 323,1534.38 315.07,1556.01 210.9,1556.01 161.87,1531.31 116.4,1531.31 
	92.07,1505.34 94.98,1417.2 82.73,1417.02 75.56,1494.99 32.53,1495.71 73.53,1299.83 58.21,1299.83 17.63,1471.08 3.07,1436.17 
	-74.44,1433.19 -74.44,1677.81 1005.56,1677.81 "/>
<g>
	<path d="M606.13,1143.97c-7.25-30.16-8.78-88.33-8.78-88.33c-5.44-23.05-22.84-30.98-45.38-21.62
		c-20.33,8.45-19.23,33.31-19.23,33.31c41.99-2.86,35.31,33.69,35.31,33.69c5.34-18.99,9.83-29.01,11.93-32.35
		c2.1-3.34,2.86-13.84,2.86-13.84c1.15,3.63,0,11.26,0,11.26c2.01-2.55,10.69-3.82,10.69-3.82c-15.46,5.34-17.76,27.78-17.94,28.73
		c-6.39,33.69-20.04,41.13-23.48,44.57c-3.44,3.44-57.45,38.37-57.45,38.37c5.92,11.07,6.3,46,6.3,46
		c-2.48-25.39-12.22-42.95-12.22-42.95c-6.3,0-52.49,62.03-58.98,62.99c-6.49,0.95-24.62,12.41-24.62,12.41s1.15-6.3,16.8-13.74
		c15.65-7.44,46.29-49.72,46.29-49.72c-2.86-0.57-24.62,3.01-24.62,3.01c12.74-6.87,29.92-8.16,29.92-8.16l12.74-12.31l-12.88-2.29
		l19.33-1.57c0,0,39.56-22.48,61.32-41.95c21.76-19.47,5.15-52.87-14.89-51.92c-20.04,0.95-53.64,26.91-67.95,28.82
		c-14.32,1.91-25.39,11.45-32.64,19.85c-7.25,8.4-66.14,65.95-66.14,65.95l-4.39,2v-2.15c0,0,35.22-38.13,59.65-67.33
		c24.43-29.2,41.42-23.1,58.03-32.45c16.61-9.35,39.94-18.61,39.94-18.61s-0.29-5.58,2-16.03c0.16-0.72,0.34-1.43,0.54-2.12
		c2.42-8.34,8.21-15.31,15.73-19.65c3.34-1.93,8.29-4.93,8.29-4.93c-0.07-39.15-1.03-65.4-1.79-89.26
		c-0.71-22.33-8.78-95.82-8.78-95.82c-11.09-34.5-38.18-19.85-38.18-19.85l-2.67,222.94l-3.44-1.34c-1.49-0.58-2.47-2-2.48-3.6
		c-0.18-38.79,2.86-246.93,2.86-246.93c-33.79-32.64-51.54,4.01-51.54,4.01l-2,244.8l-3.25-4.27c-0.86-1.13-2.17-1.75-2.19-3.17
		l-1.43-212.16c-11.45-10.88-41.8-1.15-42.66,31.21c-0.86,32.35-9.93,69.67-13.36,119.68c-4.21,61.22,0,60.32-4.68,92.48
		c-3.38,23.23-8.3,49.82-13.46,79.88c-5.15,30.06-4.58,52.4-2.46,60.13c2.12,7.73,1.61,27.49,0.17,58.69
		c-1.43,31.21,6.3,33.79,10.88,47.81c4.58,14.03,2.86,21.19,2.86,21.19l-2.86,171.22l161.77-2l-0.67-7.16l4.2-113.38
		c48.48-66.81,46.57-97.73,54.21-112.24C598.88,1255.44,613.39,1174.12,606.13,1143.97z M500.01,1377.03
		c-0.62,10.59-3.28,78.93-4.23,103.79l-3.4-104.74c-1.34,0-11.26-5.54-11.26-5.54c24.05,6.87,47.72,0.95,47.72,0.95
		C518.14,1379.51,500.01,1377.03,500.01,1377.03z M425.85,1368.72l-11.19,89.33l0,0l1.17-95.92
		c-24.05-22.62-33.21-49.53-33.21-49.53c74.16,120.82,127.7-16.89,127.7-16.89c-0.57,41.23-48.48,73.11-48.48,73.11l-5.7,111.75
		l-8.23-108.7C440.17,1372.45,425.85,1368.72,425.85,1368.72z"/>
	<g>
		<path d="M605.05,1247.18c9.13-8.66,31.69-30.2,48.58-47.7c21.67-22.45,35.2-16.47,49.32-23.15c14.12-6.68,33.73-12.89,33.73-12.89
			s0.09-4.58,2.57-12.99c0.17-0.58,0.36-1.15,0.56-1.7c2.46-6.68,7.6-12.04,14-15.15c2.84-1.38,7.06-3.55,7.06-3.55
			c2.22-32.01,2.96-53.52,3.73-73.07c0.71-18.29-1.6-78.84-1.6-78.84c-7.06-28.85-30.05-18.45-30.05-18.45l-15.15,182.09l-2.73-1.29
			c-1.18-0.56-1.9-1.78-1.82-3.09c2.11-31.72,16.7-201.69,16.7-201.69c-25.72-28.65-42.36,0.28-42.36,0.28l-15.88,200l-2.41-3.68
			c-0.64-0.97-1.67-1.56-1.6-2.72l11.17-173.52c-8.73-9.56-34.1-3.37-36.69,23.03c-2.58,26.4-12.17,56.38-17.88,97.06
			c-7,49.8-3.51,49.31-9.2,75.33c-0.21,0.96-0.43,1.93-0.64,2.9C616.6,1179.45,610.96,1220.32,605.05,1247.18z"/>
		<path d="M798.18,1228.74c-4.18-25.08-2.04-72.72-2.04-72.72c-3.11-19.16-16.87-26.66-35.84-20.31
			c-17.11,5.72-17.66,26.11-17.66,26.11c34.49,0.1,26.91,29.59,26.91,29.59c5.47-15.21,9.72-23.15,11.63-25.75
			c1.91-2.61,3.15-11.15,3.15-11.15c0.73,3.03-0.65,9.21-0.65,9.21c1.8-1.97,8.96-2.5,8.96-2.5c-12.95,3.47-16.14,21.67-16.34,22.44
			c-7.19,27.17-18.78,32.46-21.78,35.07c-3.01,2.61-49.2,28.02-49.2,28.02c4.19,9.39,2.47,37.97,2.47,37.97
			c-0.55-20.9-7.49-35.82-7.49-35.82c-5.15-0.37-46.52,47.66-51.88,48.06c-5.36,0.4-20.85,8.71-20.85,8.71s1.3-5.08,14.53-10.26
			c13.23-5.18,40.73-37.95,40.73-37.95c-2.31-0.63-20.3,1.03-20.3,1.03c10.82-4.88,24.93-4.93,24.93-4.93l11.13-9.32l-10.4-2.62
			l15.89-0.16c0,0,33.65-16.07,52.57-30.72c18.92-14.65,7.29-42.92-9.15-43.31s-45.41,18.88-57.22,19.61
			c-11.81,0.73-21.42,7.89-27.84,14.33c-6.42,6.44-57.9,50.06-57.9,50.06l-0.49,0.18c-2.25,9.57-4.47,16.88-6.25,20.27
			c-1.53,2.9-2.7,6.69-4,11.34c-0.63,7.83-1.72,17.75-3.13,29.79c-2.99,25.43,3.18,27.98,6.11,39.72s1.11,17.49,1.11,17.49
			l-12.3,139.8l132.36,7.77l-0.13-5.89l10.03-92.44c43.52-51.79,43.76-77.18,50.84-88.6
			C785.77,1319.44,802.36,1253.81,798.18,1228.74z M655.98,1495.18l-0.41-89.34c-6.35,0.02-17.84-3.86-17.84-3.86l-14.34,72.37
			l6.54-78.34c-18.34-19.89-24.27-42.42-24.27-42.42c53.59,103.08,105.37-6.38,105.37-6.38c-2.87,33.67-43.88,56.94-43.88,56.94
			L655.98,1495.18z M697.87,1413.09c-1.12,8.62-7.27,64.33-9.5,84.59l3.31-85.82c-1.09-0.08-8.88-5.18-8.88-5.18
			c19.26,7.02,38.95,3.56,38.95,3.56C712.55,1416.17,697.87,1413.09,697.87,1413.09z"/>
	</g>
	<g>
		<path d="M367.7,1360.86l0.45-26.67l0.06-0.27c0.01-0.05,1.44-6.82-2.81-19.83c-1.2-3.67-2.6-6.48-4.09-9.45
			c-3.92-7.85-7.98-15.96-6.91-39.26c1.47-32,1.89-50.7-0.09-57.92c-0.3-1.08-0.56-2.38-0.79-3.89
			c-10.75,6.09-11.37,22.89-11.46,23.64c-3.4,27.9-14.16,34.72-16.78,37.72c-2.62,3-44.9,34.49-44.9,34.49
			c5.44,8.73,7.65,37.28,7.65,37.28c-3.41-20.62-12.32-34.46-12.32-34.46c-5.15,0.34-39.56,53.58-44.81,54.71
			c-5.26,1.13-19.46,11.48-19.46,11.48s0.59-5.21,12.99-12.15c12.4-6.94,35.15-43.17,35.15-43.17c-2.37-0.31-19.97,3.79-19.97,3.79
			c10.05-6.31,24.02-8.3,24.02-8.3l9.75-10.76l-10.66-1.17l15.72-2.34c0,0,31.13-20.53,47.87-37.63
			c16.74-17.1,1.35-43.52-14.99-41.65c-16.34,1.87-42.4,24.92-54,27.26c-11.6,2.34-20.14,10.74-25.61,18
			c-5.48,7.26-50.51,57.52-50.51,57.52l-3.48,1.88l-0.12-1.76c0,0,26.73-33.09,45.12-58.3c18.39-25.21,32.62-21.13,45.69-29.68
			c13.07-8.55,31.65-17.39,31.65-17.39s-0.54-4.55,0.77-13.22c0.09-0.6,0.2-1.19,0.33-1.76c1.53-6.95,5.88-12.96,11.79-16.93
			c2.63-1.76,6.51-4.48,6.51-4.48c-2.18-32.01-4.39-53.42-6.31-72.89c-1.8-18.22-12.38-77.88-12.38-77.88
			c-10.94-27.61-32.29-14.16-32.29-14.16l9.91,182.45l-2.89-0.91c-1.25-0.39-2.13-1.5-2.22-2.81
			c-2.25-31.71-11.05-202.08-11.05-202.08c-29.4-24.86-41.93,6.07-41.93,6.07l11.64,200.29l-2.89-3.32
			c-0.77-0.88-1.87-1.31-1.96-2.48l-12.68-173.41c-9.96-8.28-34.24,1.33-33.19,27.83c1.05,26.5-4.34,57.51-4.43,98.59
			c-0.12,50.29,3.27,49.32,1.19,75.88c-1.5,19.18-4.09,41.19-6.67,66.05c-2.58,24.86-0.9,43.09,1.25,49.3
			c2.15,6.21,2.8,22.39,3.33,47.99s6.98,27.29,11.49,38.51c4.51,11.22,3.49,17.17,3.49,17.17l6.95,140.16l132.17-10.41l-0.93-5.82
			l-2.72-92.94c36.02-57.26,32.78-82.44,38.24-94.72C365.59,1370.43,366.67,1366.28,367.7,1360.86z M265.52,1552.27l-12.63-88.44
			c-6.29,0.89-18.2-1.38-18.2-1.38l-4.31,73.66l-4.25-78.5c-20.89-17.19-29.85-38.7-29.85-38.7
			c67.19,94.78,103.51-20.74,103.51-20.74c1.77,33.75-35.68,62.41-35.68,62.41L265.52,1552.27z M297.95,1550.32l-8.46-85.46
			c-1.09,0.07-9.51-3.92-9.51-3.92c20.04,4.31,39.07-1.81,39.07-1.81c-8.31,7.14-23.27,6.09-23.27,6.09
			C295.84,1473.91,297.38,1529.94,297.95,1550.32z"/>
		<path d="M305.75,1210.19c34.18-4.62,30.7,25.63,30.7,25.63c3.34-15.82,6.46-24.26,8-27.1c1.54-2.85,1.59-11.47,1.59-11.47
			c1.13,2.9,0.61,9.21,0.61,9.21c1.03-1.5,4.64-2.68,6.82-3.28c-0.59-4.18-0.9-9.85-0.79-16.73c-7.33-9.65-19.2-11.39-33.02-4.54
			C303.5,1189.92,305.75,1210.19,305.75,1210.19z"/>
	</g>
</g>
</svg>
