<svg xmlns="http://www.w3.org/2000/svg" version="1.1" xmlns:xlink="http://www.w3.org/1999/xlink" xmlns:svgjs="http://svgjs.dev/svgjs" width="3000" height="3000" preserveAspectRatio="none" viewBox="0 0 3000 3000"><g mask="url(&quot;#SvgjsMask2492&quot;)" fill="none"><rect width="3000" height="3000" x="0" y="0" fill="url(&quot;#SvgjsLinearGradient2493&quot;)"></rect><use xlink:href="#SvgjsG2502" transform="translate(0, 0)" fill="rgba(141, 141, 141, 1)"></use><use xlink:href="#SvgjsG2502" transform="translate(0, 703)" fill="rgba(0, 0, 0, 0.43)"></use><use xlink:href="#SvgjsG2502" transform="translate(0, 1406)" fill="rgba(0, 0, 0, 0.25)"></use><use xlink:href="#SvgjsG2502" transform="translate(0, 2109)" fill="rgba(0, 0, 0, 0.25)"></use><use xlink:href="#SvgjsG2502" transform="translate(0, 2812)" fill="rgba(0, 0, 0, 0.52)"></use><use xlink:href="#SvgjsG2502" transform="translate(703, 0)" fill="rgba(220, 125, 40, 1)"></use><use xlink:href="#SvgjsG2502" transform="translate(703, 703)" fill="rgba(0, 0, 0, 0.53)"></use><use xlink:href="#SvgjsG2502" transform="translate(703, 1406)" fill="rgba(0, 0, 0, 0.25)"></use><use xlink:href="#SvgjsG2502" transform="translate(703, 2109)" fill="rgba(0, 0, 0, 0.53)"></use><use xlink:href="#SvgjsG2502" transform="translate(703, 2812)" fill="rgba(0, 0, 0, 0.53)"></use><use xlink:href="#SvgjsG2502" transform="translate(1406, 0)" fill="rgba(0, 0, 0, 0.53)"></use><use xlink:href="#SvgjsG2502" transform="translate(1406, 703)" fill="rgba(0, 0, 0, 0.25)"></use><use xlink:href="#SvgjsG2502" transform="translate(1406, 1406)" fill="rgba(0, 0, 0, 0.28)"></use><use xlink:href="#SvgjsG2502" transform="translate(1406, 2109)" fill="rgba(220, 125, 40, 1)"></use><use xlink:href="#SvgjsG2502" transform="translate(1406, 2812)" fill="rgba(0, 0, 0, 0.28)"></use><use xlink:href="#SvgjsG2502" transform="translate(2109, 0)" fill="rgba(0, 0, 0, 0.25)"></use><use xlink:href="#SvgjsG2502" transform="translate(2109, 703)" fill="rgba(0, 0, 0, 0.25)"></use><use xlink:href="#SvgjsG2502" transform="translate(2109, 1406)" fill="rgba(0, 0, 0, 0.43)"></use><use xlink:href="#SvgjsG2502" transform="translate(2109, 2109)" fill="rgba(0, 0, 0, 0.28)"></use><use xlink:href="#SvgjsG2502" transform="translate(2109, 2812)" fill="rgba(0, 0, 0, 0.53)"></use><use xlink:href="#SvgjsG2502" transform="translate(2812, 0)" fill="rgba(0, 0, 0, 0.28)"></use><use xlink:href="#SvgjsG2502" transform="translate(2812, 703)" fill="rgba(141, 141, 141, 1)"></use><use xlink:href="#SvgjsG2502" transform="translate(2812, 1406)" fill="rgba(0, 0, 0, 0.43)"></use><use xlink:href="#SvgjsG2502" transform="translate(2812, 2109)" fill="rgba(0, 0, 0, 0.25)"></use><use xlink:href="#SvgjsG2502" transform="translate(2812, 2812)" fill="rgba(0, 0, 0, 0.25)"></use></g><defs><mask id="SvgjsMask2492"><rect width="3000" height="3000" fill="#ffffff"></rect></mask><linearGradient x1="50%" y1="0%" x2="50%" y2="100%" gradientUnits="userSpaceOnUse" id="SvgjsLinearGradient2493"><stop stop-color="rgba(117, 21, 0, 1)" offset="0.23"></stop><stop stop-color="rgba(47, 10, 1, 1)" offset="1"></stop></linearGradient><g id="SvgjsG2497"><path d="M8.688 6.116c0.878 0.204 1.538 0.96 1.538 1.857v6.893c0 0.213-0.183 0.384-0.402 0.384H5.872a0.395 0.395 0 0 1-0.4-0.384V7.973c0-0.9 0.654-1.657 1.54-1.857V3.031h1.676V6.116zM7.01 1.671h1.676v0.665h-1.676V1.671z"></path></g><g id="SvgjsG2500"><path d="M10.902 1.099a0.294 0.294 0 0 1-0.25-0.29c0-0.111 0.063-0.203 0.151-0.257-0.091-0.051-0.15-0.148-0.151-0.256 0-0.164 0.13-0.296 0.293-0.296h1.453c0.163 0 0.292 0.131 0.292 0.296 0 0.113-0.063 0.209-0.158 0.256 0.091 0.05 0.158 0.146 0.158 0.257a0.295 0.295 0 0 1-0.25 0.29l1.764 4.821c0.11 0.31 0.167 0.66 0.166 1.008v8.549a0.58 0.58 0 0 1-0.581 0.58H9.549a0.579 0.579 0 0 1-0.577-0.581V6.93c0-0.349 0.057-0.698 0.163-1.011l1.767-4.82zM2.794 5.955a0.211 0.211 0 0 0 0.139 0.053c0.118 0 0.214-0.097 0.214-0.213 0-0.038-0.013-0.072-0.026-0.106l-0.24-0.56a0.342 0.342 0 0 0-0.304-0.189 0.343 0.343 0 0 0-0.25 0.582L2.794 5.956z m0.789 0.104c0.02 0.047 0.033 0.101 0.034 0.153 0 0.221-0.179 0.4-0.399 0.4-0.079 0-0.155-0.027-0.217-0.068l-0.958-0.801a0.71 0.71 0 0 1-0.166-0.458c0-0.388 0.312-0.706 0.699-0.706 0.287 0 0.537 0.18 0.638 0.433l0.37 1.047z m3.068 0.707a0.213 0.213 0 0 1 0.21 0.211v0.329c0 0.117-0.096 0.212-0.21 0.211l-0.194-0.008c0.234 0.148 0.404 0.405 0.404 0.707v7.185c0 0.368-0.293 0.665-0.655 0.665H2.438A0.662 0.662 0 0 1 1.778 15.401l0.004-7.185c0-0.302 0.167-0.559 0.402-0.707l-0.195 0.008a0.208 0.208 0 0 1-0.207-0.211v-0.329c0-0.115 0.091-0.212 0.207-0.211H6.651z"></path></g><g id="SvgjsG2499"><path d="M12.049 4.244l-1.49 11.735H5.527L4.041 4.244h6.146L11.403 0 12.091 0.193l-1.164 4.048 1.122 0.003z" fill-rule="evenodd"></path></g><g id="SvgjsG2501"><path d="M6.827 4.508H3.888c-0.711 0-0.711 0.924 0 0.925H6.827c0.704 0 0.704-0.924 0-0.925"></path><path d="M6.827 4.508H3.888c-0.711 0-0.711 0.924 0 0.925H6.827c0.704 0 0.704-0.924 0-0.925M6.485 4.272a1.234 1.234 0 1 0 0-2.476 1.234 1.234 0 0 0 0 2.476"></path><path d="M6.773 4.587H3.689c-0.747 0-0.747 0.967 0 0.967H6.773c0.741 0 0.741-0.967 0-0.967"></path><path d="M12.018 4.587H8.027c0.732-0.729 2.101-2.101 2.803-2.8 0.676 0.791 1.084 1.767 1.184 2.8z m0 0.967a5.092 5.092 0 0 1-1.182 2.787c-0.622-0.615-1.76-1.76-2.525-2.524v-0.263H12.018z m-5.095 4.924v-0.041l0.003 0.022-0.003 0.023z m5.724-5.411c0-1.369-0.492-2.679-1.387-3.711 0.004-0.004-0.226-0.249-0.225-0.248L7.556 4.587l-0.061 0.057c0.011 0.018 0.027 0.027 0.036 0.044a0.681 0.681 0 0 1 0.089 0.441 0.741 0.741 0 0 1-0.066 0.267l-0.006 0.008-0.021 0.054-0.023 0.028a0.844 0.844 0 0 1-0.732 0.374h-1.698v4.533l0.003 0.009-0.96 4.814a0.693 0.693 0 1 0 1.36 0.267l0.992-4.989V10.489h0.452V10.489l0.992 4.99a0.693 0.693 0 0 0 1.36-0.267l-0.967-4.86V6.293l2.727 2.726 0.231-0.249c0.889-1.031 1.381-2.34 1.381-3.703z"></path></g><g id="SvgjsG2495"><path d="M3.755 2.315h2.494v11.128h-2.494zM13.507 0.537H16v11.261h-2.493z"></path><path d="M4.451 5.556l-0.696-3.24L16 0v3.167z"></path><path d="M0 13.443a3.124 2.606 0 1 0 6.249 0 3.124 2.606 0 1 0-6.249 0"></path><path d="M9.751 11.798a3.124 2.606 0 1 0 6.249 0 3.124 2.606 0 1 0-6.249 0"></path></g><g id="SvgjsG2498"><path d="M15.964 4.774l-1.312 10.327H10.223L8.916 4.774h5.408L15.395 1.04 16 1.21l-1.024 3.562 0.988 0.002zM8.29 10.788s0.166-1.502-2.131-1.502H2.5c-2.293 0-2.131 1.502-2.132 1.502h7.922zM0.368 13.595s-0.162 1.506 2.132 1.506h3.659c2.297 0 2.131-1.506 2.131-1.506H0.369z m7.578-0.727a0.68 0.68 0 0 0 0.68-0.68c0-0.372-0.304-0.676-0.68-0.676H0.68C0.306 11.512 0 11.816 0 12.188a0.682 0.682 0 0 0 0.68 0.68h7.266z"></path></g><g id="SvgjsG2496"><path d="M13.143 15.716v-2.374L2.833 9.897v2.376l10.31 3.443z m-7.932-5.816c-0.355-0.4-2.712-3.125-0.334-5.482C6.86 2.452 7.149 0.801 6.481 0c0 0 5.045 2.073 2.078 6.882-0.508 0.817-1.777 1.781-1.114 3.769l-2.234-0.75z m3.098 0.653c-0.109-0.403-0.592-1.282 0.884-3.03 0.789-0.931 1.085-2.312 1.157-2.832 0 0 2.613 1.498 0.013 5.165l-2.054 0.697z m0.555 0.562l4.279-1.429v2.374l-0.725 0.239-3.553-1.184zM7.113 14.499L2.833 15.925v-2.374l0.728-0.238 3.552 1.186z" fill-rule="evenodd"></path></g><g id="SvgjsG2494"><path d="M1.12 8.836c1.001-1.179 2.827-2.005 4.388-1.743 0.174-2.151-0.071-4.156 1-6.133C3.189 1.173 1.648 6.247 1.12 8.836M12.892 5.07c0.697-0.83 2.347-1.253 3.213-0.476C13.849 1.44 11.058-0.583 7.086 0.764c3.102 0.942 5.276 3.84 5.805 4.306"></path><path d="M12.267 5.198C11.182 3.684 7.769 1.266 7.019 1.417c-0.8 0.16-1.022 4.702-0.95 5.676 0.475-0.892 1.202-1.564 2.045-1.984l3.461 9.423 0.475-0.12-3.494-9.493c1.156-0.427 2.484-0.391 3.712 0.279"></path></g><g id="SvgjsG2502"><use xlink:href="#SvgjsG2494" transform="translate(0, 0) scale(1.9)" fill="rgba(0, 0, 0, 0.25)"></use><use xlink:href="#SvgjsG2494" transform="translate(0, 70.3) scale(1.9)" fill="rgba(0, 0, 0, 0.52)"></use><use xlink:href="#SvgjsG2495" transform="translate(0, 140.6) scale(1.9)" fill="rgba(220, 125, 40, 1)"></use><use xlink:href="#SvgjsG2494" transform="translate(0, 210.89999999999998) scale(1.9)" fill="rgba(0, 0, 0, 0.25)"></use><use xlink:href="#SvgjsG2496" transform="translate(0, 281.2) scale(1.9)" fill="rgba(0, 0, 0, 0.43)"></use><use xlink:href="#SvgjsG2495" transform="translate(0, 351.5) scale(1.9)" fill="rgba(0, 0, 0, 0.25)"></use><use xlink:href="#SvgjsG2497" transform="translate(0, 421.79999999999995) scale(1.9)" fill="rgba(0, 0, 0, 0.25)"></use><use xlink:href="#SvgjsG2498" transform="translate(0, 492.09999999999997) scale(1.9)" fill="rgba(0, 0, 0, 0.53)"></use><use xlink:href="#SvgjsG2496" transform="translate(0, 562.4) scale(1.9)" fill="rgba(0, 0, 0, 0.43)"></use><use xlink:href="#SvgjsG2494" transform="translate(0, 632.6999999999999) scale(1.9)" fill="rgba(0, 0, 0, 0.25)"></use><use xlink:href="#SvgjsG2499" transform="translate(70.3, 0) scale(1.9)" fill="rgba(0, 0, 0, 0.25)"></use><use xlink:href="#SvgjsG2496" transform="translate(70.3, 70.3) scale(1.9)" fill="rgba(0, 0, 0, 0.43)"></use><use xlink:href="#SvgjsG2499" transform="translate(70.3, 140.6) scale(1.9)" fill="rgba(0, 0, 0, 0.28)"></use><use xlink:href="#SvgjsG2500" transform="translate(70.3, 210.89999999999998) scale(1.9)" fill="rgba(0, 0, 0, 0.43)"></use><use xlink:href="#SvgjsG2496" transform="translate(70.3, 281.2) scale(1.9)" fill="rgba(0, 0, 0, 0.53)"></use><use xlink:href="#SvgjsG2498" transform="translate(70.3, 351.5) scale(1.9)" fill="rgba(0, 0, 0, 0.43)"></use><use xlink:href="#SvgjsG2498" transform="translate(70.3, 421.79999999999995) scale(1.9)" fill="rgba(0, 0, 0, 0.25)"></use><use xlink:href="#SvgjsG2496" transform="translate(70.3, 492.09999999999997) scale(1.9)" fill="rgba(0, 0, 0, 0.25)"></use><use xlink:href="#SvgjsG2497" transform="translate(70.3, 562.4) scale(1.9)" fill="rgba(220, 125, 40, 1)"></use><use xlink:href="#SvgjsG2496" transform="translate(70.3, 632.6999999999999) scale(1.9)" fill="rgba(0, 0, 0, 0.43)"></use><use xlink:href="#SvgjsG2498" transform="translate(140.6, 0) scale(1.9)" fill="rgba(0, 0, 0, 0.28)"></use><use xlink:href="#SvgjsG2499" transform="translate(140.6, 70.3) scale(1.9)" fill="rgba(0, 0, 0, 0.52)"></use><use xlink:href="#SvgjsG2501" transform="translate(140.6, 140.6) scale(1.9)" fill="rgba(0, 0, 0, 0.25)"></use><use xlink:href="#SvgjsG2494" transform="translate(140.6, 210.89999999999998) scale(1.9)" fill="rgba(0, 0, 0, 0.28)"></use><use xlink:href="#SvgjsG2499" transform="translate(140.6, 281.2) scale(1.9)" fill="rgba(0, 0, 0, 0.53)"></use><use xlink:href="#SvgjsG2500" transform="translate(140.6, 351.5) scale(1.9)" fill="rgba(0, 0, 0, 0.25)"></use><use xlink:href="#SvgjsG2499" transform="translate(140.6, 421.79999999999995) scale(1.9)" fill="rgba(0, 0, 0, 0.25)"></use><use xlink:href="#SvgjsG2499" transform="translate(140.6, 492.09999999999997) scale(1.9)" fill="rgba(0, 0, 0, 0.53)"></use><use xlink:href="#SvgjsG2499" transform="translate(140.6, 562.4) scale(1.9)" fill="rgba(0, 0, 0, 0.52)"></use><use xlink:href="#SvgjsG2495" transform="translate(140.6, 632.6999999999999) scale(1.9)" fill="rgba(0, 0, 0, 0.25)"></use><use xlink:href="#SvgjsG2496" transform="translate(210.89999999999998, 0) scale(1.9)" fill="rgba(0, 0, 0, 0.25)"></use><use xlink:href="#SvgjsG2498" transform="translate(210.89999999999998, 70.3) scale(1.9)" fill="rgba(0, 0, 0, 0.28)"></use><use xlink:href="#SvgjsG2497" transform="translate(210.89999999999998, 140.6) scale(1.9)" fill="rgba(0, 0, 0, 0.25)"></use><use xlink:href="#SvgjsG2499" transform="translate(210.89999999999998, 210.89999999999998) scale(1.9)" fill="rgba(0, 0, 0, 0.53)"></use><use xlink:href="#SvgjsG2496" transform="translate(210.89999999999998, 281.2) scale(1.9)" fill="rgba(0, 0, 0, 0.52)"></use><use xlink:href="#SvgjsG2497" transform="translate(210.89999999999998, 351.5) scale(1.9)" fill="rgba(0, 0, 0, 0.25)"></use><use xlink:href="#SvgjsG2494" transform="translate(210.89999999999998, 421.79999999999995) scale(1.9)" fill="rgba(0, 0, 0, 0.25)"></use><use xlink:href="#SvgjsG2494" transform="translate(210.89999999999998, 492.09999999999997) scale(1.9)" fill="rgba(0, 0, 0, 0.52)"></use><use xlink:href="#SvgjsG2495" transform="translate(210.89999999999998, 562.4) scale(1.9)" fill="rgba(0, 0, 0, 0.53)"></use><use xlink:href="#SvgjsG2500" transform="translate(210.89999999999998, 632.6999999999999) scale(1.9)" fill="rgba(0, 0, 0, 0.25)"></use><use xlink:href="#SvgjsG2497" transform="translate(281.2, 0) scale(1.9)" fill="rgba(0, 0, 0, 0.28)"></use><use xlink:href="#SvgjsG2498" transform="translate(281.2, 70.3) scale(1.9)" fill="rgba(141, 141, 141, 1)"></use><use xlink:href="#SvgjsG2496" transform="translate(281.2, 140.6) scale(1.9)" fill="rgba(0, 0, 0, 0.25)"></use><use xlink:href="#SvgjsG2498" transform="translate(281.2, 210.89999999999998) scale(1.9)" fill="rgba(0, 0, 0, 0.25)"></use><use xlink:href="#SvgjsG2495" transform="translate(281.2, 281.2) scale(1.9)" fill="rgba(0, 0, 0, 0.25)"></use><use xlink:href="#SvgjsG2500" transform="translate(281.2, 351.5) scale(1.9)" fill="rgba(141, 141, 141, 1)"></use><use xlink:href="#SvgjsG2495" transform="translate(281.2, 421.79999999999995) scale(1.9)" fill="rgba(141, 141, 141, 1)"></use><use xlink:href="#SvgjsG2494" transform="translate(281.2, 492.09999999999997) scale(1.9)" fill="rgba(141, 141, 141, 1)"></use><use xlink:href="#SvgjsG2495" transform="translate(281.2, 562.4) scale(1.9)" fill="rgba(0, 0, 0, 0.53)"></use><use xlink:href="#SvgjsG2498" transform="translate(281.2, 632.6999999999999) scale(1.9)" fill="rgba(0, 0, 0, 0.43)"></use><use xlink:href="#SvgjsG2496" transform="translate(351.5, 0) scale(1.9)" fill="rgba(0, 0, 0, 0.25)"></use><use xlink:href="#SvgjsG2497" transform="translate(351.5, 70.3) scale(1.9)" fill="rgba(0, 0, 0, 0.53)"></use><use xlink:href="#SvgjsG2501" transform="translate(351.5, 140.6) scale(1.9)" fill="rgba(0, 0, 0, 0.28)"></use><use xlink:href="#SvgjsG2497" transform="translate(351.5, 210.89999999999998) scale(1.9)" fill="rgba(0, 0, 0, 0.52)"></use><use xlink:href="#SvgjsG2496" transform="translate(351.5, 281.2) scale(1.9)" fill="rgba(141, 141, 141, 1)"></use><use xlink:href="#SvgjsG2494" transform="translate(351.5, 351.5) scale(1.9)" fill="rgba(0, 0, 0, 0.25)"></use><use xlink:href="#SvgjsG2498" transform="translate(351.5, 421.79999999999995) scale(1.9)" fill="rgba(141, 141, 141, 1)"></use><use xlink:href="#SvgjsG2498" transform="translate(351.5, 492.09999999999997) scale(1.9)" fill="rgba(0, 0, 0, 0.52)"></use><use xlink:href="#SvgjsG2499" transform="translate(351.5, 562.4) scale(1.9)" fill="rgba(0, 0, 0, 0.25)"></use><use xlink:href="#SvgjsG2501" transform="translate(351.5, 632.6999999999999) scale(1.9)" fill="rgba(0, 0, 0, 0.52)"></use><use xlink:href="#SvgjsG2495" transform="translate(421.79999999999995, 0) scale(1.9)" fill="rgba(0, 0, 0, 0.53)"></use><use xlink:href="#SvgjsG2501" transform="translate(421.79999999999995, 70.3) scale(1.9)" fill="rgba(0, 0, 0, 0.53)"></use><use xlink:href="#SvgjsG2498" transform="translate(421.79999999999995, 140.6) scale(1.9)" fill="rgba(0, 0, 0, 0.43)"></use><use xlink:href="#SvgjsG2494" transform="translate(421.79999999999995, 210.89999999999998) scale(1.9)" fill="rgba(0, 0, 0, 0.25)"></use><use xlink:href="#SvgjsG2500" transform="translate(421.79999999999995, 281.2) scale(1.9)" fill="rgba(0, 0, 0, 0.53)"></use><use xlink:href="#SvgjsG2500" transform="translate(421.79999999999995, 351.5) scale(1.9)" fill="rgba(141, 141, 141, 1)"></use><use xlink:href="#SvgjsG2494" transform="translate(421.79999999999995, 421.79999999999995) scale(1.9)" fill="rgba(0, 0, 0, 0.43)"></use><use xlink:href="#SvgjsG2497" transform="translate(421.79999999999995, 492.09999999999997) scale(1.9)" fill="rgba(220, 125, 40, 1)"></use><use xlink:href="#SvgjsG2501" transform="translate(421.79999999999995, 562.4) scale(1.9)" fill="rgba(0, 0, 0, 0.28)"></use><use xlink:href="#SvgjsG2501" transform="translate(421.79999999999995, 632.6999999999999) scale(1.9)" fill="rgba(0, 0, 0, 0.53)"></use><use xlink:href="#SvgjsG2497" transform="translate(492.09999999999997, 0) scale(1.9)" fill="rgba(0, 0, 0, 0.53)"></use><use xlink:href="#SvgjsG2499" transform="translate(492.09999999999997, 70.3) scale(1.9)" fill="rgba(0, 0, 0, 0.43)"></use><use xlink:href="#SvgjsG2499" transform="translate(492.09999999999997, 140.6) scale(1.9)" fill="rgba(0, 0, 0, 0.53)"></use><use xlink:href="#SvgjsG2495" transform="translate(492.09999999999997, 210.89999999999998) scale(1.9)" fill="rgba(0, 0, 0, 0.52)"></use><use xlink:href="#SvgjsG2496" transform="translate(492.09999999999997, 281.2) scale(1.9)" fill="rgba(0, 0, 0, 0.28)"></use><use xlink:href="#SvgjsG2496" transform="translate(492.09999999999997, 351.5) scale(1.9)" fill="rgba(220, 125, 40, 1)"></use><use xlink:href="#SvgjsG2499" transform="translate(492.09999999999997, 421.79999999999995) scale(1.9)" fill="rgba(0, 0, 0, 0.53)"></use><use xlink:href="#SvgjsG2495" transform="translate(492.09999999999997, 492.09999999999997) scale(1.9)" fill="rgba(0, 0, 0, 0.28)"></use><use xlink:href="#SvgjsG2495" transform="translate(492.09999999999997, 562.4) scale(1.9)" fill="rgba(0, 0, 0, 0.25)"></use><use xlink:href="#SvgjsG2498" transform="translate(492.09999999999997, 632.6999999999999) scale(1.9)" fill="rgba(0, 0, 0, 0.52)"></use><use xlink:href="#SvgjsG2501" transform="translate(562.4, 0) scale(1.9)" fill="rgba(141, 141, 141, 1)"></use><use xlink:href="#SvgjsG2499" transform="translate(562.4, 70.3) scale(1.9)" fill="rgba(0, 0, 0, 0.43)"></use><use xlink:href="#SvgjsG2495" transform="translate(562.4, 140.6) scale(1.9)" fill="rgba(0, 0, 0, 0.25)"></use><use xlink:href="#SvgjsG2496" transform="translate(562.4, 210.89999999999998) scale(1.9)" fill="rgba(0, 0, 0, 0.52)"></use><use xlink:href="#SvgjsG2499" transform="translate(562.4, 281.2) scale(1.9)" fill="rgba(0, 0, 0, 0.25)"></use><use xlink:href="#SvgjsG2497" transform="translate(562.4, 351.5) scale(1.9)" fill="rgba(0, 0, 0, 0.52)"></use><use xlink:href="#SvgjsG2496" transform="translate(562.4, 421.79999999999995) scale(1.9)" fill="rgba(0, 0, 0, 0.25)"></use><use xlink:href="#SvgjsG2494" transform="translate(562.4, 492.09999999999997) scale(1.9)" fill="rgba(0, 0, 0, 0.28)"></use><use xlink:href="#SvgjsG2497" transform="translate(562.4, 562.4) scale(1.9)" fill="rgba(220, 125, 40, 1)"></use><use xlink:href="#SvgjsG2499" transform="translate(562.4, 632.6999999999999) scale(1.9)" fill="rgba(141, 141, 141, 1)"></use><use xlink:href="#SvgjsG2496" transform="translate(632.6999999999999, 0) scale(1.9)" fill="rgba(0, 0, 0, 0.53)"></use><use xlink:href="#SvgjsG2497" transform="translate(632.6999999999999, 70.3) scale(1.9)" fill="rgba(0, 0, 0, 0.53)"></use><use xlink:href="#SvgjsG2501" transform="translate(632.6999999999999, 140.6) scale(1.9)" fill="rgba(0, 0, 0, 0.25)"></use><use xlink:href="#SvgjsG2499" transform="translate(632.6999999999999, 210.89999999999998) scale(1.9)" fill="rgba(0, 0, 0, 0.52)"></use><use xlink:href="#SvgjsG2498" transform="translate(632.6999999999999, 281.2) scale(1.9)" fill="rgba(141, 141, 141, 1)"></use><use xlink:href="#SvgjsG2498" transform="translate(632.6999999999999, 351.5) scale(1.9)" fill="rgba(0, 0, 0, 0.25)"></use><use xlink:href="#SvgjsG2499" transform="translate(632.6999999999999, 421.79999999999995) scale(1.9)" fill="rgba(0, 0, 0, 0.25)"></use><use xlink:href="#SvgjsG2496" transform="translate(632.6999999999999, 492.09999999999997) scale(1.9)" fill="rgba(0, 0, 0, 0.28)"></use><use xlink:href="#SvgjsG2496" transform="translate(632.6999999999999, 562.4) scale(1.9)" fill="rgba(0, 0, 0, 0.43)"></use><use xlink:href="#SvgjsG2494" transform="translate(632.6999999999999, 632.6999999999999) scale(1.9)" fill="rgba(0, 0, 0, 0.25)"></use></g></defs></svg>