<svg xmlns="http://www.w3.org/2000/svg" version="1.1" xmlns:xlink="http://www.w3.org/1999/xlink"
    xmlns:svgjs="http://svgjs.dev/svgjs" width="3000" height="1500" preserveAspectRatio="none"
    viewBox="0 0 3000 1500">
    <g mask="url(&quot;#SvgjsMask1786&quot;)" fill="none">
        <rect width="3000" height="1500" x="0" y="0" fill="#0e2a47"></rect>
        <use xlink:href="#SvgjsG1800" transform="translate(0, 0)" fill="rgba(61, 91, 148, 1)"></use>
        <use xlink:href="#SvgjsG1800" transform="translate(0, 760)" fill="rgba(61, 91, 148, 1)"></use>
        <use xlink:href="#SvgjsG1800" transform="translate(760, 0)" fill="rgba(61, 91, 148, 1)"></use>
        <use xlink:href="#SvgjsG1800" transform="translate(760, 760)" fill="#0f457b"></use>
        <use xlink:href="#SvgjsG1800" transform="translate(1520, 0)" fill="rgba(51, 78, 127, 1)"></use>
        <use xlink:href="#SvgjsG1800" transform="translate(1520, 760)" fill="rgba(61, 91, 148, 1)"></use>
        <use xlink:href="#SvgjsG1800" transform="translate(2280, 0)" fill="rgba(61, 91, 148, 1)"></use>
        <use xlink:href="#SvgjsG1800" transform="translate(2280, 760)" fill="rgba(132, 198, 231, 1)"></use>
    </g>
    <defs>
        <mask id="SvgjsMask1786">
            <rect width="3000" height="1500" fill="#ffffff"></rect>
        </mask>
        <g id="SvgjsG1798">
            <path
                d="M15.02 9.49l-0.733-1.271-2.086 1.205L9.733 8l2.468-1.424 2.087 1.205 0.733-1.271-1.354-0.781 1.68-0.97-0.867-1.501-1.679 0.97v-1.563h-1.467v2.409L8.867 6.499V3.65l2.087-1.205-0.734-1.27L8.867 1.956V0.018h-1.734v1.939L5.78 1.175l-0.733 1.27 2.086 1.205V6.499L4.666 5.074V2.665h-1.466v1.562l-1.679-0.969-0.867 1.501 1.679 0.97-1.354 0.781 0.734 1.27 2.087-1.205L6.267 8 3.8 9.424l-2.087-1.205-0.733 1.271 1.353 0.781-1.679 0.969 0.867 1.502 1.679-0.97v1.564h1.466V10.925L7.133 9.501v2.849l-2.086 1.205 0.733 1.27 1.353-0.782v1.938h1.734v-1.938l1.353 0.782 0.733-1.27-2.086-1.205v-2.849L11.334 10.925v2.41h1.467V11.772l1.679 0.969 0.867-1.501-1.68-0.969z"></path>
            <path d="M-12.034 8v7.981"></path>
            <path d="M-12.034 12.696l2.586 1.493"></path>
            <path d="M-12.034 8V0.018"></path>
            <path d="M-12.034 3.304l-2.587-1.494m2.587 1.494l2.587-1.494m-2.587 10.886l-2.587 1.493"></path>
            <path d="M-12.034 8L-18.947 11.991"></path>
            <path d="M-16.101 10.348v2.988"></path>
            <path d="M-12.034 8l6.912-3.991"></path>
            <path d="M-7.967 5.652V2.665m0 2.987l2.587 1.493m-10.721 3.203l-2.587-1.493"></path>
            <path d="M-12.034 8L-18.947 4.009"></path>
            <path d="M-16.101 5.652l-2.587 1.493"></path>
            <path d="M-12.034 8l6.912 3.991"></path>
            <path d="M-7.967 10.348l2.587-1.493m-2.587 1.493v2.987m-8.134-7.683V2.665"></path>
        </g>
        <g id="SvgjsG1797">
            <path
                d="M12.31 3.67a1.204 1.204 0 0 0 0-2.407 1.204 1.204 0 0 0 0 2.407M9.367 6.912l2.554-1.26L14.298 7.84c0.105 0.102 0.247 0.166 0.407 0.166a0.577 0.577 0 0 0 0.379-1.008L11.69 3.881a1.312 1.312 0 0 0-0.39-0.262L8.655 2.673 7.457 0.934a0.579 0.579 0 0 0-1.04 0.273c-0.015 0.134 0.02 0.262 0.088 0.368l1.227 1.775c0.055 0.073 0.127 0.131 0.213 0.17l1.419 0.561-2.336 1.193a1.276 1.276 0 0 0-0.622 0.896l0.014 2.134-2.157 0.972a0.746 0.746 0 1 0 0.643 1.345l2.643-1.193a0.749 0.749 0 0 0 0.374-0.501l-0.007-1.327L9.753 9.236l-0.339 2.803-0.003 0.051a0.746 0.746 0 0 0 1.484 0.134l0.395-3.193c0.004-0.015 0.004-0.029 0.005-0.043a0.737 0.737 0 0 0-0.233-0.572L9.367 6.912z"></path>
            <path
                d="M1.382 8.975a0.756 0.756 0 0 0-0.477 0.96c0.218 0.655 0.717 1.171 1.36 1.416l10.103 3.84c0.646 0.247 1.36 0.193 1.955-0.148a0.753 0.753 0 1 0-0.754-1.309 0.771 0.771 0 0 1-0.663 0.046L2.803 9.935a0.781 0.781 0 0 1-0.466-0.483 0.756 0.756 0 0 0-0.957-0.477"></path>
        </g>
        <g id="SvgjsG1796">
            <path
                d="M6.227 3.92a1.056 1.056 0 1 0 0-2.115 1.056 1.056 0 0 0 0 2.112M7.472 12.464h5.032s0.325 0.021 0.971-0.496l1.104-0.843v0.95l-1.126 0.84s-0.336 0.272-0.896 0.336H7.05l0.422-0.789z m-7.008 0.784h5.034l0.419-0.784H0.842l-0.42 0.784H0.464z m6.307-8.042a1.059 1.059 0 0 0-2.118 0v2.592c0 0.326 0.16 0.634 0.397 0.828H2.678l-1.28 2.328a0.389 0.389 0 0 0 0.344 0.56h8.736s0.378 0.064 0.944-0.384l2.266-1.668-0.856-1.496s-0.192-0.363-0.915-0.472l-1.712-0.288-0.919-1.536-0.011-0.016a0.368 0.368 0 0 0-0.517-0.035v0.005a0.365 0.365 0 0 0-0.089 0.406l0.681 1.136v0.012l-0.854 1.452-1.725-0.656V7.328h1.36a0.496 0.496 0 0 0 0.487-0.678 0.496 0.496 0 0 0-0.46-0.32l-1.392-0.005v-1.114"
                fill-rule="evenodd"></path>
        </g>
        <g id="SvgjsG1787">
            <path
                d="M6.846 8.046l0.633 0.934h1.178l0.544-0.934-0.573-0.995h-1.181l-0.601 0.995zM7.331 15.562V13.449l-1.181 0.664-0.601-0.345V13.024l1.751-0.995V10.64l-1.271 0.816v-1.471l-1.214 0.7v1.994l-0.664 0.412-0.561-0.372V11.382L1.747 12.422 0.96 12.091V11.248l1.934-1.058-1.21-0.608v-0.771l0.687-0.376 1.735 1.022 1.206-0.696-0.03-0.022-1.232-0.707 1.197-0.742-1.201-0.696L2.311 7.614l-0.651-0.324v-0.769l1.174-0.66L0.96 4.844v-0.844l0.72-0.371 1.847 1.067v-1.36l0.557-0.375 0.682 0.393-0.004 2.035 1.241 0.709-0.005-1.438 1.301 0.7v-1.388L5.549 2.974v-0.738l0.601-0.348 1.181 0.664V0.443L8.006 0l0.682 0.443v2.109l1.224-0.678 0.615 0.407v0.664L8.715 3.972v1.388l1.239-0.755v1.511l1.277-0.696v-2.176l0.615-0.286 0.646 0.286v1.392l1.901-1.027 0.664 0.405v0.787l-1.856 1.055 1.161 0.651v0.751L13.76 7.592l-1.782-1.053-1.232 0.782 1.192 0.743-1.228 0.706 1.268 0.664L13.76 8.439l0.572 0.405v0.718L13.214 10.19l1.781 1.058v0.83l-0.754 0.344-1.749-0.995v1.317l-0.628 0.351-0.615-0.351V10.745l-1.295-0.737v1.388L8.715 10.64v1.389L10.466 13.024v0.787l-0.605 0.302-1.173-0.664v2.113L8.006 16l-0.675-0.438z"></path>
        </g>
        <g id="SvgjsG1791">
            <path
                d="M12.049 4.244l-1.49 11.735H5.527L4.041 4.244h6.146L11.403 0 12.091 0.193l-1.164 4.048 1.122 0.003z"
                fill-rule="evenodd"></path>
        </g>
        <g id="SvgjsG1795">
            <path d="M3.755 2.315h2.494v11.128h-2.494zM13.507 0.537H16v11.261h-2.493z"></path>
            <path d="M4.451 5.556l-0.696-3.24L16 0v3.167z"></path>
            <path d="M0 13.443a3.124 2.606 0 1 0 6.249 0 3.124 2.606 0 1 0-6.249 0"></path>
            <path d="M9.751 11.798a3.124 2.606 0 1 0 6.249 0 3.124 2.606 0 1 0-6.249 0"></path>
        </g>
        <g id="SvgjsG1789">
            <path
                d="M10.902 1.099a0.294 0.294 0 0 1-0.25-0.29c0-0.111 0.063-0.203 0.151-0.257-0.091-0.051-0.15-0.148-0.151-0.256 0-0.164 0.13-0.296 0.293-0.296h1.453c0.163 0 0.292 0.131 0.292 0.296 0 0.113-0.063 0.209-0.158 0.256 0.091 0.05 0.158 0.146 0.158 0.257a0.295 0.295 0 0 1-0.25 0.29l1.764 4.821c0.11 0.31 0.167 0.66 0.166 1.008v8.549a0.58 0.58 0 0 1-0.581 0.58H9.549a0.579 0.579 0 0 1-0.577-0.581V6.93c0-0.349 0.057-0.698 0.163-1.011l1.767-4.82zM2.794 5.955a0.211 0.211 0 0 0 0.139 0.053c0.118 0 0.214-0.097 0.214-0.213 0-0.038-0.013-0.072-0.026-0.106l-0.24-0.56a0.342 0.342 0 0 0-0.304-0.189 0.343 0.343 0 0 0-0.25 0.582L2.794 5.956z m0.789 0.104c0.02 0.047 0.033 0.101 0.034 0.153 0 0.221-0.179 0.4-0.399 0.4-0.079 0-0.155-0.027-0.217-0.068l-0.958-0.801a0.71 0.71 0 0 1-0.166-0.458c0-0.388 0.312-0.706 0.699-0.706 0.287 0 0.537 0.18 0.638 0.433l0.37 1.047z m3.068 0.707a0.213 0.213 0 0 1 0.21 0.211v0.329c0 0.117-0.096 0.212-0.21 0.211l-0.194-0.008c0.234 0.148 0.404 0.405 0.404 0.707v7.185c0 0.368-0.293 0.665-0.655 0.665H2.438A0.662 0.662 0 0 1 1.778 15.401l0.004-7.185c0-0.302 0.167-0.559 0.402-0.707l-0.195 0.008a0.208 0.208 0 0 1-0.207-0.211v-0.329c0-0.115 0.091-0.212 0.207-0.211H6.651z"></path>
        </g>
        <g id="SvgjsG1792">
            <path
                d="M7.232 1.081a0.289 0.289 0 0 1-0.246-0.285c0-0.109 0.062-0.2 0.148-0.253-0.09-0.05-0.148-0.145-0.148-0.252C6.986 0.129 7.114 0 7.274 0h1.43c0.16 0 0.287 0.129 0.287 0.291 0 0.111-0.062 0.206-0.155 0.253 0.09 0.049 0.156 0.144 0.156 0.253a0.29 0.29 0 0 1-0.246 0.284l1.736 4.746c0.108 0.305 0.164 0.65 0.164 0.993v8.415a0.571 0.571 0 0 1-0.572 0.571H5.9A0.57 0.57 0 0 1 5.332 15.235V6.822c0-0.344 0.056-0.688 0.16-0.995l1.74-4.745z"
                fill-rule="evenodd"></path>
        </g>
        <g id="SvgjsG1799">
            <path
                d="M8.688 6.116c0.878 0.204 1.538 0.96 1.538 1.857v6.893c0 0.213-0.183 0.384-0.402 0.384H5.872a0.395 0.395 0 0 1-0.4-0.384V7.973c0-0.9 0.654-1.657 1.54-1.857V3.031h1.676V6.116zM7.01 1.671h1.676v0.665h-1.676V1.671z"></path>
        </g>
        <g id="SvgjsG1790">
            <path
                d="M14.704 13.605c0 0.355-0.294 0.64-0.646 0.64H3.52v0.432h10.536a1.075 1.075 0 0 0 1.082-1.069l-0.432-0.003z m-3.147-9.808A1.059 1.059 0 1 0 11.552 1.68a1.059 1.059 0 0 0 0.005 2.118M4.848 12.912L1.323 9.376v0.619l3.28 3.29c0.376 0.408 1.021-0.064 1.021-0.064l-0.309-0.331s-0.304 0.2-0.464 0.032l-0.006-0.012z m0.112-6.664H1.355v0.432H4.96v-0.432z m9.744-1.029l0.411 0.173L11.024 13.629h-0.454L14.704 5.219z"></path>
            <path
                d="M7.912 4.584l-1.648 1.901a0.531 0.531 0 1 1-0.765-0.736l1.776-2.045a0.533 0.533 0 0 1 0.41-0.192H10.256a0.688 0.688 0 0 1 0.485 0.195L12.379 5.344l1.36-1.355a0.549 0.549 0 0 1 0.779 0.768L12.88 6.411c-0.496 0.496-0.896 0.074-0.896 0.074l-1.008-1.008-1.568 1.814 1.44 1.44s0.301 0.282 0.128 0.842L10.17 13.168a0.688 0.688 0 1 1-1.333-0.31l0.662-2.949-1.632-1.591-1.408 1.568s-0.229 0.28-0.832 0.26l-2.851 0.006a0.688 0.688 0 0 1-0.68-0.536 0.672 0.672 0 0 1 0.685-0.832l2.453 0.011 3.632-4.208-0.949-0.003z"></path>
        </g>
        <g id="SvgjsG1788">
            <path
                d="M11.573 3.591A1.102 1.102 0 1 0 11.579 1.387a1.102 1.102 0 0 0-0.006 2.204M5.362 7.484l1.63-1.747 1.39-0.644s-0.946 1.417-1.431 3.366L5.648 13.369l0.8 0.041L8.498 8.676l1.788 0.723 0.171 2.695 0.759 0.011 0.299-3.165-2.262-1.63s-0.071-0.1 0.043-0.156l1.79-1.636 2.919 1.449 0.445 0.071 0.112-0.711-0.471-0.135L10.071 3.378s-0.388-0.302-0.83 0.039l-3.035 1.733-1.372 2.006 0.53 0.327z"></path>
            <path
                d="M1.81 12.476l3.331-5.546 0.306 0.178L2.116 12.663 1.813 12.48zM12.185 14.583l1.689-7.799 0.35 0.071-1.689 7.805-0.348-0.077z"></path>
            <path
                d="M2.713 12.503l0.165-0.267-1.04-0.629-0.165 0.267 1.038 0.627zM13.022 14.4l0.071-0.306L11.911 13.831l-0.071 0.306 1.182 0.263zM1.111 13.323h8.16s0.83 0.044 1.316-0.427c0 0 0.272-0.089 0.387 0.142 0 0 0.1 0.77-1.145 0.813H0.88l0.231-0.527zM5.404 11.993h8.16s0.83 0.041 1.316-0.43c0 0 0.274-0.089 0.388 0.142 0 0 0.101 0.773-1.145 0.818H5.177l0.231-0.53z"></path>
        </g>
        <g id="SvgjsG1793">
            <path
                d="M12.421 2.526c0.704 0 1.267-0.564 1.267-1.261A1.264 1.264 0 0 0 12.421 0c-0.697 0-1.261 0.567-1.261 1.265a1.26 1.26 0 0 0 1.261 1.261m-6.4 5.125l4.546-2.937c0.592-0.378 0.772-1.162 0.396-1.754-0.374-0.594-1.162-0.774-1.755-0.396l-3.351 2.165c-0.191 0.122-0.34 0.283-0.438 0.471L1.931 12.073C1.727 12.48 1.888 12.973 2.291 13.178a0.821 0.821 0 0 0 1.104-0.358L6.021 7.651z m8.853-0.481c0.6-0.376 0.787-1.168 0.409-1.77l-0.439 0.27a0.764 0.764 0 0 1-0.247 1.058L0.64 15.563 0.917 16l13.957-8.83z"></path>
        </g>
        <g id="SvgjsG1794">
            <path
                d="M14.668 5.394A1.332 1.332 0 0 0 16 4.062c0-0.735-0.596-1.328-1.332-1.328-0.733 0-1.33 0.594-1.331 1.328s0.597 1.332 1.331 1.332zM14.011 14.984a1.353 1.353 0 0 0 1.855-0.472l-0.465-0.279c-0.228 0.384-0.727 0.506-1.109 0.279L0.275 6.282 0 6.752 14.011 14.984z"></path>
            <path
                d="M8.937 0.301c-0.81-0.544-1.904-0.33-2.45 0.483-0.301 0.444-0.383 1.006-0.236 1.462l0.931 3.05-2.811 0.896a1.085 1.085 0 0 0-0.67 0.877c-0.073 0.594 0.37 0.987 0.964 1.057 0.135 0.016 0.226-0.024 0.352-0.055l3.837-1.269c0.281-0.102 0.589-0.382 0.619-0.626 0.021-0.177 0.078-0.326 0.042-0.432l-0.584-2.086 2.306 1.371 0.279 2c0.024 0.35 0.183 0.601 0.452 0.751L14.984 9.541a0.683 0.683 0 0 0 0.928-0.275c0.183-0.33 0.059-0.75-0.272-0.932l-2.383-1.391-0.275-3.565a1.453 1.453 0 0 0-0.612-1.045L8.938 0.301z"></path>
        </g>
        <g id="SvgjsG1800">
            <use xlink:href="#SvgjsG1787" transform="translate(0, 0) scale(2)" fill="#0f457b"></use>
            <use xlink:href="#SvgjsG1788" transform="translate(0, 76) scale(2)"
                fill="rgba(132, 198, 231, 1)"></use>
            <use xlink:href="#SvgjsG1789" transform="translate(0, 152) scale(2)"
                fill="rgba(51, 78, 127, 1)"></use>
            <use xlink:href="#SvgjsG1790" transform="translate(0, 228) scale(2)"
                fill="rgba(61, 91, 148, 1)"></use>
            <use xlink:href="#SvgjsG1791" transform="translate(0, 304) scale(2)"
                fill="rgba(61, 91, 148, 1)"></use>
            <use xlink:href="#SvgjsG1792" transform="translate(0, 380) scale(2)"
                fill="rgba(63, 108, 192, 1)"></use>
            <use xlink:href="#SvgjsG1788" transform="translate(0, 456) scale(2)"
                fill="rgba(61, 91, 148, 1)"></use>
            <use xlink:href="#SvgjsG1791" transform="translate(0, 532) scale(2)" fill="#0f457b"></use>
            <use xlink:href="#SvgjsG1793" transform="translate(0, 608) scale(2)"
                fill="rgba(63, 108, 192, 1)"></use>
            <use xlink:href="#SvgjsG1794" transform="translate(0, 684) scale(2)"
                fill="rgba(61, 91, 148, 1)"></use>
            <use xlink:href="#SvgjsG1794" transform="translate(76, 0) scale(2)"
                fill="rgba(61, 91, 148, 1)"></use>
            <use xlink:href="#SvgjsG1795" transform="translate(76, 76) scale(2)"
                fill="rgba(63, 108, 192, 1)"></use>
            <use xlink:href="#SvgjsG1787" transform="translate(76, 152) scale(2)"
                fill="rgba(63, 108, 192, 1)"></use>
            <use xlink:href="#SvgjsG1794" transform="translate(76, 228) scale(2)"
                fill="rgba(61, 91, 148, 1)"></use>
            <use xlink:href="#SvgjsG1792" transform="translate(76, 304) scale(2)"
                fill="rgba(63, 108, 192, 1)"></use>
            <use xlink:href="#SvgjsG1796" transform="translate(76, 380) scale(2)"
                fill="rgba(64, 88, 132, 1)"></use>
            <use xlink:href="#SvgjsG1797" transform="translate(76, 456) scale(2)"
                fill="rgba(132, 198, 231, 1)"></use>
            <use xlink:href="#SvgjsG1798" transform="translate(76, 532) scale(2)"
                fill="rgba(63, 108, 192, 1)"></use>
            <use xlink:href="#SvgjsG1797" transform="translate(76, 608) scale(2)"
                fill="rgba(64, 88, 132, 1)"></use>
            <use xlink:href="#SvgjsG1790" transform="translate(76, 684) scale(2)" fill="#0f457b"></use>
            <use xlink:href="#SvgjsG1794" transform="translate(152, 0) scale(2)"
                fill="rgba(61, 91, 148, 1)"></use>
            <use xlink:href="#SvgjsG1787" transform="translate(152, 76) scale(2)"
                fill="rgba(61, 91, 148, 1)"></use>
            <use xlink:href="#SvgjsG1790" transform="translate(152, 152) scale(2)"
                fill="rgba(61, 91, 148, 1)"></use>
            <use xlink:href="#SvgjsG1790" transform="translate(152, 228) scale(2)"
                fill="rgba(61, 91, 148, 1)"></use>
            <use xlink:href="#SvgjsG1787" transform="translate(152, 304) scale(2)" fill="#0f457b"></use>
            <use xlink:href="#SvgjsG1796" transform="translate(152, 380) scale(2)" fill="#0f457b"></use>
            <use xlink:href="#SvgjsG1793" transform="translate(152, 456) scale(2)"
                fill="rgba(61, 91, 148, 1)"></use>
            <use xlink:href="#SvgjsG1792" transform="translate(152, 532) scale(2)"
                fill="rgba(51, 78, 127, 1)"></use>
            <use xlink:href="#SvgjsG1794" transform="translate(152, 608) scale(2)"
                fill="rgba(61, 91, 148, 1)"></use>
            <use xlink:href="#SvgjsG1796" transform="translate(152, 684) scale(2)"
                fill="rgba(132, 198, 231, 1)"></use>
            <use xlink:href="#SvgjsG1794" transform="translate(228, 0) scale(2)"
                fill="rgba(51, 78, 127, 1)"></use>
            <use xlink:href="#SvgjsG1788" transform="translate(228, 76) scale(2)"
                fill="rgba(61, 91, 148, 1)"></use>
            <use xlink:href="#SvgjsG1794" transform="translate(228, 152) scale(2)" fill="#0f457b"></use>
            <use xlink:href="#SvgjsG1795" transform="translate(228, 228) scale(2)"
                fill="rgba(132, 198, 231, 1)"></use>
            <use xlink:href="#SvgjsG1794" transform="translate(228, 304) scale(2)"
                fill="rgba(64, 88, 132, 1)"></use>
            <use xlink:href="#SvgjsG1796" transform="translate(228, 380) scale(2)"
                fill="rgba(132, 198, 231, 1)"></use>
            <use xlink:href="#SvgjsG1787" transform="translate(228, 456) scale(2)"
                fill="rgba(132, 198, 231, 1)"></use>
            <use xlink:href="#SvgjsG1788" transform="translate(228, 532) scale(2)" fill="#0f457b"></use>
            <use xlink:href="#SvgjsG1787" transform="translate(228, 608) scale(2)"
                fill="rgba(64, 88, 132, 1)"></use>
            <use xlink:href="#SvgjsG1797" transform="translate(228, 684) scale(2)"
                fill="rgba(51, 78, 127, 1)"></use>
            <use xlink:href="#SvgjsG1794" transform="translate(304, 0) scale(2)"
                fill="rgba(132, 198, 231, 1)"></use>
            <use xlink:href="#SvgjsG1794" transform="translate(304, 76) scale(2)"
                fill="rgba(61, 91, 148, 1)"></use>
            <use xlink:href="#SvgjsG1799" transform="translate(304, 152) scale(2)"
                fill="rgba(64, 88, 132, 1)"></use>
            <use xlink:href="#SvgjsG1797" transform="translate(304, 228) scale(2)"
                fill="rgba(63, 108, 192, 1)"></use>
            <use xlink:href="#SvgjsG1792" transform="translate(304, 304) scale(2)"
                fill="rgba(61, 91, 148, 1)"></use>
            <use xlink:href="#SvgjsG1789" transform="translate(304, 380) scale(2)"
                fill="rgba(61, 91, 148, 1)"></use>
            <use xlink:href="#SvgjsG1798" transform="translate(304, 456) scale(2)"
                fill="rgba(61, 91, 148, 1)"></use>
            <use xlink:href="#SvgjsG1790" transform="translate(304, 532) scale(2)"
                fill="rgba(51, 78, 127, 1)"></use>
            <use xlink:href="#SvgjsG1791" transform="translate(304, 608) scale(2)"
                fill="rgba(61, 91, 148, 1)"></use>
            <use xlink:href="#SvgjsG1787" transform="translate(304, 684) scale(2)" fill="#0f457b"></use>
            <use xlink:href="#SvgjsG1789" transform="translate(380, 0) scale(2)"
                fill="rgba(51, 78, 127, 1)"></use>
            <use xlink:href="#SvgjsG1793" transform="translate(380, 76) scale(2)" fill="#0f457b"></use>
            <use xlink:href="#SvgjsG1789" transform="translate(380, 152) scale(2)"
                fill="rgba(64, 88, 132, 1)"></use>
            <use xlink:href="#SvgjsG1787" transform="translate(380, 228) scale(2)"
                fill="rgba(61, 91, 148, 1)"></use>
            <use xlink:href="#SvgjsG1799" transform="translate(380, 304) scale(2)"
                fill="rgba(61, 91, 148, 1)"></use>
            <use xlink:href="#SvgjsG1790" transform="translate(380, 380) scale(2)"
                fill="rgba(61, 91, 148, 1)"></use>
            <use xlink:href="#SvgjsG1793" transform="translate(380, 456) scale(2)"
                fill="rgba(51, 78, 127, 1)"></use>
            <use xlink:href="#SvgjsG1788" transform="translate(380, 532) scale(2)"
                fill="rgba(61, 91, 148, 1)"></use>
            <use xlink:href="#SvgjsG1793" transform="translate(380, 608) scale(2)"
                fill="rgba(132, 198, 231, 1)"></use>
            <use xlink:href="#SvgjsG1798" transform="translate(380, 684) scale(2)"
                fill="rgba(61, 91, 148, 1)"></use>
            <use xlink:href="#SvgjsG1793" transform="translate(456, 0) scale(2)"
                fill="rgba(61, 91, 148, 1)"></use>
            <use xlink:href="#SvgjsG1797" transform="translate(456, 76) scale(2)"
                fill="rgba(61, 91, 148, 1)"></use>
            <use xlink:href="#SvgjsG1790" transform="translate(456, 152) scale(2)"
                fill="rgba(61, 91, 148, 1)"></use>
            <use xlink:href="#SvgjsG1795" transform="translate(456, 228) scale(2)" fill="#0f457b"></use>
            <use xlink:href="#SvgjsG1787" transform="translate(456, 304) scale(2)" fill="#0f457b"></use>
            <use xlink:href="#SvgjsG1798" transform="translate(456, 380) scale(2)"
                fill="rgba(61, 91, 148, 1)"></use>
            <use xlink:href="#SvgjsG1798" transform="translate(456, 456) scale(2)"
                fill="rgba(61, 91, 148, 1)"></use>
            <use xlink:href="#SvgjsG1791" transform="translate(456, 532) scale(2)"
                fill="rgba(61, 91, 148, 1)"></use>
            <use xlink:href="#SvgjsG1792" transform="translate(456, 608) scale(2)"
                fill="rgba(63, 108, 192, 1)"></use>
            <use xlink:href="#SvgjsG1787" transform="translate(456, 684) scale(2)"
                fill="rgba(61, 91, 148, 1)"></use>
            <use xlink:href="#SvgjsG1798" transform="translate(532, 0) scale(2)"
                fill="rgba(64, 88, 132, 1)"></use>
            <use xlink:href="#SvgjsG1798" transform="translate(532, 76) scale(2)"
                fill="rgba(51, 78, 127, 1)"></use>
            <use xlink:href="#SvgjsG1796" transform="translate(532, 152) scale(2)" fill="#0f457b"></use>
            <use xlink:href="#SvgjsG1790" transform="translate(532, 228) scale(2)"
                fill="rgba(63, 108, 192, 1)"></use>
            <use xlink:href="#SvgjsG1795" transform="translate(532, 304) scale(2)"
                fill="rgba(64, 88, 132, 1)"></use>
            <use xlink:href="#SvgjsG1793" transform="translate(532, 380) scale(2)"
                fill="rgba(61, 91, 148, 1)"></use>
            <use xlink:href="#SvgjsG1788" transform="translate(532, 456) scale(2)"
                fill="rgba(132, 198, 231, 1)"></use>
            <use xlink:href="#SvgjsG1792" transform="translate(532, 532) scale(2)"
                fill="rgba(132, 198, 231, 1)"></use>
            <use xlink:href="#SvgjsG1795" transform="translate(532, 608) scale(2)"
                fill="rgba(64, 88, 132, 1)"></use>
            <use xlink:href="#SvgjsG1792" transform="translate(532, 684) scale(2)"
                fill="rgba(61, 91, 148, 1)"></use>
            <use xlink:href="#SvgjsG1798" transform="translate(608, 0) scale(2)"
                fill="rgba(61, 91, 148, 1)"></use>
            <use xlink:href="#SvgjsG1794" transform="translate(608, 76) scale(2)"
                fill="rgba(132, 198, 231, 1)"></use>
            <use xlink:href="#SvgjsG1790" transform="translate(608, 152) scale(2)"
                fill="rgba(64, 88, 132, 1)"></use>
            <use xlink:href="#SvgjsG1791" transform="translate(608, 228) scale(2)"
                fill="rgba(132, 198, 231, 1)"></use>
            <use xlink:href="#SvgjsG1792" transform="translate(608, 304) scale(2)"
                fill="rgba(61, 91, 148, 1)"></use>
            <use xlink:href="#SvgjsG1795" transform="translate(608, 380) scale(2)"
                fill="rgba(51, 78, 127, 1)"></use>
            <use xlink:href="#SvgjsG1791" transform="translate(608, 456) scale(2)"
                fill="rgba(132, 198, 231, 1)"></use>
            <use xlink:href="#SvgjsG1799" transform="translate(608, 532) scale(2)"
                fill="rgba(132, 198, 231, 1)"></use>
            <use xlink:href="#SvgjsG1795" transform="translate(608, 608) scale(2)"
                fill="rgba(61, 91, 148, 1)"></use>
            <use xlink:href="#SvgjsG1789" transform="translate(608, 684) scale(2)" fill="#0f457b"></use>
            <use xlink:href="#SvgjsG1797" transform="translate(684, 0) scale(2)"
                fill="rgba(61, 91, 148, 1)"></use>
            <use xlink:href="#SvgjsG1788" transform="translate(684, 76) scale(2)"
                fill="rgba(61, 91, 148, 1)"></use>
            <use xlink:href="#SvgjsG1796" transform="translate(684, 152) scale(2)"
                fill="rgba(61, 91, 148, 1)"></use>
            <use xlink:href="#SvgjsG1798" transform="translate(684, 228) scale(2)"
                fill="rgba(63, 108, 192, 1)"></use>
            <use xlink:href="#SvgjsG1794" transform="translate(684, 304) scale(2)"
                fill="rgba(64, 88, 132, 1)"></use>
            <use xlink:href="#SvgjsG1788" transform="translate(684, 380) scale(2)"
                fill="rgba(63, 108, 192, 1)"></use>
            <use xlink:href="#SvgjsG1792" transform="translate(684, 456) scale(2)"
                fill="rgba(63, 108, 192, 1)"></use>
            <use xlink:href="#SvgjsG1788" transform="translate(684, 532) scale(2)"
                fill="rgba(61, 91, 148, 1)"></use>
            <use xlink:href="#SvgjsG1796" transform="translate(684, 608) scale(2)" fill="#0f457b"></use>
            <use xlink:href="#SvgjsG1793" transform="translate(684, 684) scale(2)"
                fill="rgba(64, 88, 132, 1)"></use>
        </g>
    </defs>
</svg>