<?xml version="1.0" encoding="utf-8"?>
<!-- Generator: Adobe Illustrator 25.0.0, SVG Export Plug-In . SVG Version: 6.00 Build 0)  -->
<svg version="1.1" xmlns="http://www.w3.org/2000/svg" xmlns:xlink="http://www.w3.org/1999/xlink" x="0px" y="0px"
	 viewBox="0 0 198.43 198.43" style="enable-background:new 0 0 198.43 198.43;" xml:space="preserve">
<style type="text/css">
	.st0{display:none;}
	.st1{display:inline;}
	.st2{fill:#333333;}
	.st3{fill:#4E4D4D;}
	.st4{fill:#FFFFFF;}
	.st5{font-family:'BankGothicBT-Medium';}
	.st6{font-size:14.9558px;}
	.st7{font-size:10.7091px;}
	.st8{fill:#F7A813;}
	.st9{fill:none;}
	.st10{fill:#37BFF0;}
	.st11{opacity:0.29;fill:#2F3030;}
	.st12{opacity:0.47;fill:#2F3030;}
	.st13{fill:#DC7D28;}
	.st14{fill:#971A15;}
</style>
<g id="wlepa1" class="st0">
	<g class="st1">
		<circle class="st2" cx="99.21" cy="99.21" r="99.11"/>
		<circle class="st3" cx="99.21" cy="99.21" r="25.42"/>
		<path class="st3" d="M99.21,31.54c-37.38,0-67.68,30.3-67.68,67.68c0,1.02,0.02,2.03,0.07,3.03c0.39,8.91,2.51,17.37,6.02,25.06
			c4.87,10.66,12.42,19.83,21.79,26.65c11.17,8.14,24.93,12.94,39.8,12.94c37.38,0,67.68-30.3,67.68-67.68
			C166.89,61.84,136.59,31.54,99.21,31.54z M99.21,156.78c-10.56,0-20.46-2.84-28.96-7.81c-9.03-5.26-16.49-12.92-21.53-22.09
			c-4.03-7.33-6.5-15.64-6.99-24.47c-0.06-1.06-0.09-2.13-0.09-3.21c0-31.8,25.78-57.57,57.57-57.57s57.57,25.78,57.57,57.57
			C156.78,131.01,131.01,156.78,99.21,156.78z"/>
		<path class="st3" d="M99.21,52.58c-25.75,0-46.63,20.88-46.63,46.63c0,25.75,20.88,46.63,46.63,46.63s46.63-20.88,46.63-46.63
			C145.84,73.46,124.97,52.58,99.21,52.58z M99.21,136.84c-20.76,0-37.59-16.83-37.59-37.59c0-20.76,16.83-37.59,37.59-37.59
			c20.76,0,37.59,16.83,37.59,37.59C136.81,120.01,119.97,136.84,99.21,136.84z"/>
		<text transform="matrix(1 0 0 1 82.3379 129.2842)"><tspan x="0" y="0" class="st4 st5 st6">PW</tspan><tspan x="24.45" y="0" class="st4 st5 st7">r</tspan></text>
		<g>
			<g>
				<g>
					<path class="st8" d="M57.69,138.48l-3.01-7.44l-7.96,18.41l18.43-4.95l-6-4.36l-4.09,3.68c-0.2,0.18-1.15,0.44-2.97,0.96
						c0,0,1.13-2.63,1.33-2.79L57.69,138.48z"/>
					<path class="st8" d="M90.83,112.9l-29.76,25.97c-0.4,0.34-1.01,0.3-1.36-0.1l-0.17-0.19c-0.36-0.41-0.32-1.03,0.1-1.38
						l31.29-27.17"/>
					<path class="st8" d="M98.84,103.2l35.83-30.15c0.43-0.37,1.09-0.28,1.42,0.19l0,0c0.29,0.41,0.22,0.97-0.16,1.3l-33.78,28.61"
						/>
					<path class="st8" d="M152.39,57.99l4.31-3.37c0.43-0.37,1.09-0.28,1.42,0.19l0,0c0.29,0.41,0.22,0.97-0.16,1.3l-4.03,3.47
						c-0.26,0.23-0.6,0.36-0.95,0.32C151.89,59.77,151.94,58.37,152.39,57.99z"/>
				</g>
				<path class="st8" d="M144.56,70.52l0.79-0.66l4.51,1.02c0.96-0.6,2.03-1.27,3.12-1.96l-5.03-1.19l0.79-0.66l5.28,1.19
					c0.99-0.62,1.98-1.24,2.91-1.82l-5.76-1.37l0.79-0.66l6.02,1.36c2.34-1.46,4.12-2.57,4.25-2.65c-0.01,0-10.3-2.3-10.3-2.3
					L138.4,72.38l7.59,0.93c0.17-0.1,1.28-0.8,2.84-1.78L144.56,70.52z"/>
				<path class="st8" d="M139.94,65.15l0.77-0.68l-0.29-4.62c0.75-0.85,1.57-1.8,2.43-2.77l0.38,5.15l0.77-0.68l-0.34-5.4
					c0.77-0.88,1.54-1.76,2.26-2.59l0.43,5.91l0.77-0.68l-0.39-6.16c1.82-2.08,3.83-4.23,3.92-4.35c0,0.01,0,11.11,0,11.11
					l-13.53,11.55l0.28-7.64c0.13-0.15,0.99-1.14,2.21-2.53L139.94,65.15z"/>
			</g>
		</g>
		<g>
			<path class="st4" d="M49.95,85.35c0-1.59,0.28-2.68,0.85-3.26c0.57-0.58,1.65-0.88,3.25-0.88h12.1c1.58,0,2.65,0.29,3.22,0.87
				c0.57,0.58,0.85,1.67,0.85,3.27v9.22c0,1.61-0.28,2.7-0.85,3.28c-0.57,0.57-1.64,0.86-3.22,0.86h-12.1
				c-1.6,0-2.68-0.29-3.25-0.88c-0.57-0.58-0.85-1.67-0.85-3.26V85.35z M52.87,96.27h14.48V83.6H52.87V96.27z"/>
			<path class="st4" d="M79.1,98.71V81.21h14.1c1.31,0,2.26,0.27,2.84,0.8c0.58,0.54,0.87,1.4,0.87,2.59v2.04
				c0,0.94-0.23,1.64-0.7,2.1c-0.47,0.46-1.21,0.76-2.21,0.88c0.98,0.12,1.73,0.47,2.24,1.05c0.51,0.58,0.77,1.37,0.77,2.37v2.23
				c0,1.16-0.4,2.02-1.2,2.58c-0.8,0.56-2.02,0.84-3.65,0.84H79.1z M93.91,86.84v-1.75c0-0.57-0.12-0.97-0.37-1.19
				c-0.25-0.22-0.72-0.33-1.41-0.33h-10.1v4.83h10.1c0.67,0,1.14-0.12,1.4-0.35C93.78,87.82,93.91,87.41,93.91,86.84z M94.06,94.24
				v-1.46c0-0.79-0.14-1.34-0.42-1.65c-0.28-0.3-0.79-0.46-1.51-0.46h-10.1v5.63h10.1c0.74,0,1.25-0.15,1.52-0.45
				C93.92,95.56,94.06,95.02,94.06,94.24z"/>
			<path class="st4" d="M125.12,85.52l-0.02,9.05c0,1.61-0.28,2.7-0.85,3.28c-0.57,0.57-1.64,0.86-3.22,0.86h-12.1
				c-1.6,0-2.68-0.29-3.25-0.88c-0.57-0.58-0.85-1.67-0.85-3.26v-9.22c0-1.59,0.28-2.68,0.85-3.26c0.57-0.58,1.65-0.88,3.25-0.88
				h13.65c-1,0.84-2.89,2.39-2.86,2.36l-11.97,0.02v12.68h14.48l0.21-8.36 M112.72,79.36l3.46-5.76h2.95l-4.65,5.76H112.72z"/>
			<path class="st4" d="M131.67,98.71v-1.19l12.96-13.92H132.8v-2.38h16.5v0.99l-13.19,14.07h13.19v2.43H131.67z"/>
			<path class="st4" d="M36.87,106.58h-6.93v2.27h6.6c1.03,0,1.73,0.18,2.1,0.53c0.36,0.35,0.55,1.01,0.55,1.97v1.45
				c0,0.96-0.18,1.62-0.55,1.97c-0.36,0.35-1.06,0.53-2.1,0.53H30c-1.03,0-1.73-0.18-2.1-0.53c-0.36-0.35-0.55-1.01-0.55-1.97v-0.29
				l2.17-0.45v1.25h7.48v-2.41h-6.6c-1.03,0-1.72-0.18-2.08-0.53c-0.36-0.35-0.54-1.01-0.54-1.97v-1.17c0-0.96,0.18-1.62,0.54-1.97
				c0.36-0.35,1.05-0.53,2.08-0.53h6.01c0.99,0,1.68,0.17,2.06,0.51s0.57,0.94,0.57,1.81v0.22l-2.17,0.51V106.58z"/>
			<path class="st4" d="M49.33,106.62v8.69h-2.46v-8.69h-4.85v-1.89h12.19v1.89H49.33z"/>
			<path class="st4" d="M59.81,104.73v8.59h7.02v-8.59h2.45v8.08c0,0.97-0.18,1.63-0.54,1.98c-0.36,0.35-1.05,0.53-2.08,0.53h-6.69
				c-1.02,0-1.71-0.18-2.08-0.53c-0.36-0.35-0.55-1.01-0.55-1.98v-8.08H59.81z"/>
			<path class="st4" d="M74.81,115.31v-10.58h5.9c1.68,0,2.98,0.45,3.88,1.36c0.9,0.91,1.36,2.2,1.36,3.86
				c0,0.99-0.18,1.88-0.53,2.67c-0.35,0.79-0.85,1.41-1.49,1.87c-0.4,0.29-0.89,0.5-1.49,0.63c-0.59,0.13-1.35,0.2-2.28,0.2H74.81z
				 M76.95,113.32h2.76c1.47,0,2.51-0.26,3.12-0.79c0.61-0.53,0.92-1.4,0.92-2.61c0-1.08-0.25-1.9-0.76-2.46
				c-0.51-0.56-1.26-0.84-2.25-0.84h-3.78V113.32z"/>
			<path class="st4" d="M92.31,115.31v-10.58h10.83v1.8h-8.37v2.36h4.88v1.8h-4.88v2.62h8.47v1.99H92.31z"/>
			<path class="st4" d="M107.88,115.31v-10.58h1.68l7.45,6.24c0.25,0.21,0.48,0.4,0.67,0.59c0.19,0.18,0.37,0.37,0.53,0.57
				c-0.04-0.59-0.07-1.01-0.08-1.26c-0.01-0.25-0.02-0.44-0.02-0.57v-5.56h2.21v10.58h-1.68l-7.77-6.54
				c-0.19-0.17-0.35-0.32-0.49-0.45c-0.14-0.13-0.27-0.27-0.39-0.41c0.03,0.33,0.06,0.64,0.08,0.93c0.02,0.29,0.03,0.54,0.03,0.76
				v5.72H107.88z"/>
			<path class="st4" d="M130.77,106.62v8.69h-2.46v-8.69h-4.85v-1.89h12.19v1.89H130.77z"/>
			<path class="st4" d="M138.56,107.23c0-0.96,0.18-1.62,0.54-1.97c0.36-0.35,1.05-0.53,2.08-0.53h7.79c1.03,0,1.72,0.18,2.08,0.53
				c0.36,0.35,0.54,1.01,0.54,1.97v5.58c0,0.97-0.18,1.63-0.54,1.98c-0.36,0.35-1.05,0.53-2.08,0.53h-7.79
				c-1.03,0-1.72-0.18-2.08-0.53c-0.36-0.35-0.54-1.01-0.54-1.98V107.23z M141.02,113.32h8.12v-6.7h-8.12V113.32z M143.61,103.61
				l2.04-3.46h2.22l-2.95,3.46H143.61z"/>
			<path class="st4" d="M159.08,115.31L155,104.73h2.54l2.68,7.1l2.81-7.1h1.72l2.86,7.1l2.56-7.1h2.2l-4.08,10.58h-1.66l-2.91-7.32
				l-2.95,7.32H159.08z"/>
		</g>
		<path id="SVGID_x5F_1_x5F_" class="st9" d="M181.67,106.99c0,43.03-39.81,78.83-85.3,77.79c-44.2-1-80.06-34.88-80.06-77.91"/>
		<text>		<textPath  xlink:href="#SVGID_x5F_1_x5F_" startOffset="0%">
<tspan  class="st4 st5" style="font-size:11.8483px; letter-spacing:26.72;">IGRZYSKA DZIESIECIOLECIA</tspan>		</textPath>
</text>
		<path id="SVGID_x5F_2_x5F_" class="st9" d="M163.79,104.14c0,33.64-31.34,61.62-65.44,60.87c-33.14-0.72-63.71-28.33-63.71-62.2"
			/>
		<text>		<textPath  xlink:href="#SVGID_x5F_2_x5F_" startOffset="0%">
<tspan  class="st5" style="fill:#333333;stroke:#333333;stroke-width:0.75;stroke-miterlimit:10; font-size:12.2598px; letter-spacing:25.71;">2023</tspan>		</textPath>
</text>
		<path id="SVGID_x5F_3_x5F_" class="st9" d="M18.95,99.22c0-44.99,36.09-81.65,82.13-80.34c42.13,1.2,78.4,35.57,78.4,80.56"/>
		<text>		<textPath  xlink:href="#SVGID_x5F_3_x5F_" startOffset="0%">
<tspan  class="st4" style="font-family:'BankGothicBT-Light'; font-size:9.7026px; letter-spacing:28.6;">MAY THE PROFESSORS BE EVER IN YOUR FAVOR</tspan>		</textPath>
</text>
		<path class="st10" d="M56.31,162.79"/>
		<g>
			<ellipse class="st4" cx="182.11" cy="107.1" rx="2.63" ry="2.62"/>
			<ellipse class="st4" cx="16.32" cy="107.1" rx="2.63" ry="2.62"/>
		</g>
		<polygon class="st4" points="128.84,181.84 127.81,181.62 128.83,178.62 129.55,178.77 		"/>
	</g>
</g>
<g id="apka" class="st0">
	<g class="st1">
		<circle class="st11" cx="99.21" cy="99.21" r="25.42"/>
		<path class="st11" d="M99.21,52.58c-25.75,0-46.63,20.88-46.63,46.63c0,25.75,20.88,46.63,46.63,46.63s46.63-20.88,46.63-46.63
			C145.84,73.46,124.97,52.58,99.21,52.58z M99.21,136.84c-20.76,0-37.59-16.83-37.59-37.59c0-20.76,16.83-37.59,37.59-37.59
			c20.76,0,37.59,16.83,37.59,37.59C136.81,120.01,119.97,136.84,99.21,136.84z"/>
		<g>
			
				<rect x="92.19" y="159.29" transform="matrix(0.0931 -0.9957 0.9957 0.0931 -75.4098 240.3634)" class="st11" width="4.11" height="4.57"/>
			<path class="st11" d="M99.21,31.54c-37.38,0-67.68,30.3-67.68,67.68c0,1.02,0.02,2.03,0.07,3.03c0.39,8.91,2.51,17.37,6.02,25.06
				c4.87,10.66,12.42,19.83,21.79,26.65c11.17,8.14,24.93,12.94,39.8,12.94c37.38,0,67.68-30.3,67.68-67.68
				C166.89,61.84,136.59,31.54,99.21,31.54z M87.82,158.77l-0.1,0.39c-0.08,0.3-0.19,0.51-0.32,0.65c-0.13,0.13-0.41,0.26-0.81,0.38
				l-4.21,1.21l3.59,0.96l0.24-0.9l1.06,0.62l-0.13,0.49c-0.12,0.46-0.3,0.75-0.54,0.87c-0.24,0.12-0.64,0.1-1.19-0.04l-5.2-1.39
				l0.15-0.56c0.07-0.27,0.18-0.46,0.34-0.58c0.15-0.12,0.4-0.23,0.74-0.33l4.97-1.46l0.21-0.8l-3.52-0.94l-0.34,1.26l-1.14-0.64
				l0.21-0.79c0.12-0.46,0.3-0.75,0.54-0.87s0.63-0.1,1.19,0.04l3.18,0.85c0.56,0.15,0.91,0.33,1.06,0.55
				C87.92,157.97,87.94,158.31,87.82,158.77z M98.01,160.29l-0.31,3.32c-0.05,0.58-0.19,0.96-0.41,1.15s-0.62,0.26-1.18,0.21
				l-4.31-0.4c-0.56-0.05-0.94-0.19-1.12-0.42s-0.25-0.63-0.19-1.21l0.31-3.32c0.05-0.58,0.19-0.96,0.41-1.15
				c0.22-0.19,0.61-0.26,1.18-0.21l4.31,0.4c0.57,0.05,0.94,0.19,1.13,0.42C98,159.31,98.06,159.71,98.01,160.29z M107.76,164.31
				c-0.18,0.19-0.56,0.31-1.14,0.36l-5.36,0.43l-0.05-0.57c-0.02-0.28,0.02-0.5,0.13-0.66c0.11-0.16,0.3-0.35,0.59-0.56l4.2-3.04
				l-0.07-0.82l-3.63,0.29l0.11,1.3l-1.29-0.22l-0.07-0.82c-0.04-0.47,0.03-0.8,0.22-1c0.18-0.19,0.56-0.31,1.14-0.36l3.28-0.26
				c0.58-0.05,0.97,0.01,1.18,0.17c0.21,0.16,0.34,0.48,0.38,0.95l0.03,0.41c0.02,0.31,0,0.54-0.08,0.72s-0.29,0.38-0.64,0.63
				l-3.57,2.55l3.71-0.3l-0.08-0.93l1.2,0.23l0.04,0.5C108.02,163.79,107.95,164.12,107.76,164.31z M117.94,162.06
				c-0.17,0.24-0.54,0.44-1.1,0.58l-3.6,0.92c-0.56,0.14-0.96,0.15-1.19,0.03c-0.24-0.12-0.41-0.41-0.53-0.87l-0.13-0.5l1.21-0.58
				l0.22,0.86l3.34-0.85c0.24-0.06,0.39-0.14,0.45-0.23s0.06-0.25,0.01-0.47l-0.11-0.45c-0.06-0.22-0.14-0.36-0.24-0.42
				s-0.27-0.05-0.5,0.01l-2.09,0.53l-0.25-1l1.87-0.48c0.24-0.06,0.38-0.14,0.44-0.23s0.06-0.25,0-0.48l-0.08-0.31
				c-0.06-0.23-0.14-0.37-0.23-0.42c-0.1-0.05-0.26-0.05-0.5,0.01l-3.06,0.78l0.2,0.77l-1.28,0.09l-0.1-0.38
				c-0.12-0.46-0.1-0.8,0.05-1.02c0.15-0.22,0.5-0.4,1.06-0.54l3.36-0.85c0.56-0.14,0.96-0.15,1.19-0.03
				c0.23,0.12,0.41,0.41,0.53,0.87l0.14,0.56c0.09,0.36,0.07,0.65-0.06,0.87s-0.41,0.42-0.84,0.6c0.51-0.08,0.9-0.05,1.19,0.09
				c0.28,0.14,0.47,0.41,0.57,0.79l0.16,0.64C118.13,161.44,118.11,161.81,117.94,162.06z M99.21,156.78
				c-10.56,0-20.46-2.84-28.96-7.81c-9.03-5.26-16.49-12.92-21.53-22.09c-4.03-7.33-6.5-15.64-6.99-24.47
				c-0.06-1.06-0.09-2.13-0.09-3.21c0-31.8,25.78-57.57,57.57-57.57c31.8,0,57.57,25.78,57.57,57.57S131.01,156.78,99.21,156.78z"/>
		</g>
		<text transform="matrix(1 0 0 1 82.3379 129.2842)"><tspan x="0" y="0" class="st4 st5 st6">PW</tspan><tspan x="24.45" y="0" class="st4 st5 st7">r</tspan></text>
		<g>
			<g>
				<g>
					<path class="st8" d="M57.69,138.48l-3.01-7.44l-7.96,18.41l18.43-4.95l-6-4.36l-4.09,3.68c-0.2,0.18-1.15,0.44-2.97,0.96
						c0,0,1.13-2.63,1.33-2.79L57.69,138.48z"/>
					<path class="st8" d="M90.83,112.9l-29.76,25.97c-0.4,0.34-1.01,0.3-1.36-0.1l-0.17-0.19c-0.36-0.41-0.32-1.03,0.1-1.38
						l31.29-27.17"/>
					<path class="st8" d="M98.84,103.2l35.83-30.15c0.43-0.37,1.09-0.28,1.42,0.19l0,0c0.29,0.41,0.22,0.97-0.16,1.3l-33.78,28.61"
						/>
					<path class="st8" d="M152.39,57.99l4.31-3.37c0.43-0.37,1.09-0.28,1.42,0.19l0,0c0.29,0.41,0.22,0.97-0.16,1.3l-4.03,3.47
						c-0.26,0.23-0.6,0.36-0.95,0.32C151.89,59.77,151.94,58.37,152.39,57.99z"/>
				</g>
				<path class="st8" d="M144.56,70.52l0.79-0.66l4.51,1.02c0.96-0.6,2.03-1.27,3.12-1.96l-5.03-1.19l0.79-0.66l5.28,1.19
					c0.99-0.62,1.98-1.24,2.91-1.82l-5.76-1.37l0.79-0.66l6.02,1.36c2.34-1.46,4.12-2.57,4.25-2.65c-0.01,0-10.3-2.3-10.3-2.3
					L138.4,72.38l7.59,0.93c0.17-0.1,1.28-0.8,2.84-1.78L144.56,70.52z"/>
				<path class="st8" d="M139.94,65.15l0.77-0.68l-0.29-4.62c0.75-0.85,1.57-1.8,2.43-2.77l0.38,5.15l0.77-0.68l-0.34-5.4
					c0.77-0.88,1.54-1.76,2.26-2.59l0.43,5.91l0.77-0.68l-0.39-6.16c1.82-2.08,3.83-4.23,3.92-4.35c0,0.01,0,11.11,0,11.11
					l-13.53,11.55l0.28-7.64c0.13-0.15,0.99-1.14,2.21-2.53L139.94,65.15z"/>
			</g>
		</g>
		<g>
			<path class="st4" d="M49.95,85.35c0-1.59,0.28-2.68,0.85-3.26c0.57-0.58,1.65-0.88,3.25-0.88h12.1c1.58,0,2.65,0.29,3.22,0.87
				c0.57,0.58,0.85,1.67,0.85,3.27v9.22c0,1.61-0.28,2.7-0.85,3.28c-0.57,0.57-1.64,0.86-3.22,0.86h-12.1
				c-1.6,0-2.68-0.29-3.25-0.88c-0.57-0.58-0.85-1.67-0.85-3.26V85.35z M52.87,96.27h14.48V83.6H52.87V96.27z"/>
			<path class="st4" d="M79.1,98.71V81.21h14.1c1.31,0,2.26,0.27,2.84,0.8c0.58,0.54,0.87,1.4,0.87,2.59v2.04
				c0,0.94-0.23,1.64-0.7,2.1c-0.47,0.46-1.21,0.76-2.21,0.88c0.98,0.12,1.73,0.47,2.24,1.05c0.51,0.58,0.77,1.37,0.77,2.37v2.23
				c0,1.16-0.4,2.02-1.2,2.58c-0.8,0.56-2.02,0.84-3.65,0.84H79.1z M93.91,86.84v-1.75c0-0.57-0.12-0.97-0.37-1.19
				c-0.25-0.22-0.72-0.33-1.41-0.33h-10.1v4.83h10.1c0.67,0,1.14-0.12,1.4-0.35C93.78,87.82,93.91,87.41,93.91,86.84z M94.06,94.24
				v-1.46c0-0.79-0.14-1.34-0.42-1.65c-0.28-0.3-0.79-0.46-1.51-0.46h-10.1v5.63h10.1c0.74,0,1.25-0.15,1.52-0.45
				C93.92,95.56,94.06,95.02,94.06,94.24z"/>
			<path class="st4" d="M125.12,85.52l-0.02,9.05c0,1.61-0.28,2.7-0.85,3.28c-0.57,0.57-1.64,0.86-3.22,0.86h-12.1
				c-1.6,0-2.68-0.29-3.25-0.88c-0.57-0.58-0.85-1.67-0.85-3.26v-9.22c0-1.59,0.28-2.68,0.85-3.26c0.57-0.58,1.65-0.88,3.25-0.88
				h13.65c-1,0.84-2.89,2.39-2.86,2.36l-11.97,0.02v12.68h14.48l0.21-8.36 M112.72,79.36l3.46-5.76h2.95l-4.65,5.76H112.72z"/>
			<path class="st4" d="M131.67,98.71v-1.19l12.96-13.92H132.8v-2.38h16.5v0.99l-13.19,14.07h13.19v2.43H131.67z"/>
			<path class="st4" d="M36.87,106.58h-6.93v2.27h6.6c1.03,0,1.73,0.18,2.1,0.53c0.36,0.35,0.55,1.01,0.55,1.97v1.45
				c0,0.96-0.18,1.62-0.55,1.97c-0.36,0.35-1.06,0.53-2.1,0.53H30c-1.03,0-1.73-0.18-2.1-0.53c-0.36-0.35-0.55-1.01-0.55-1.97v-0.29
				l2.17-0.45v1.25h7.48v-2.41h-6.6c-1.03,0-1.72-0.18-2.08-0.53c-0.36-0.35-0.54-1.01-0.54-1.97v-1.17c0-0.96,0.18-1.62,0.54-1.97
				c0.36-0.35,1.05-0.53,2.08-0.53h6.01c0.99,0,1.68,0.17,2.06,0.51s0.57,0.94,0.57,1.81v0.22l-2.17,0.51V106.58z"/>
			<path class="st4" d="M49.33,106.62v8.69h-2.46v-8.69h-4.85v-1.89h12.19v1.89H49.33z"/>
			<path class="st4" d="M59.81,104.73v8.59h7.02v-8.59h2.45v8.08c0,0.97-0.18,1.63-0.54,1.98c-0.36,0.35-1.05,0.53-2.08,0.53h-6.69
				c-1.02,0-1.71-0.18-2.08-0.53c-0.36-0.35-0.55-1.01-0.55-1.98v-8.08H59.81z"/>
			<path class="st4" d="M74.81,115.31v-10.58h5.9c1.68,0,2.98,0.45,3.88,1.36c0.9,0.91,1.36,2.2,1.36,3.86
				c0,0.99-0.18,1.88-0.53,2.67c-0.35,0.79-0.85,1.41-1.49,1.87c-0.4,0.29-0.89,0.5-1.49,0.63c-0.59,0.13-1.35,0.2-2.28,0.2H74.81z
				 M76.95,113.32h2.76c1.47,0,2.51-0.26,3.12-0.79c0.61-0.53,0.92-1.4,0.92-2.61c0-1.08-0.25-1.9-0.76-2.46
				c-0.51-0.56-1.26-0.84-2.25-0.84h-3.78V113.32z"/>
			<path class="st4" d="M92.31,115.31v-10.58h10.83v1.8h-8.37v2.36h4.88v1.8h-4.88v2.62h8.47v1.99H92.31z"/>
			<path class="st4" d="M107.88,115.31v-10.58h1.68l7.45,6.24c0.25,0.21,0.48,0.4,0.67,0.59c0.19,0.18,0.37,0.37,0.53,0.57
				c-0.04-0.59-0.07-1.01-0.08-1.26c-0.01-0.25-0.02-0.44-0.02-0.57v-5.56h2.21v10.58h-1.68l-7.77-6.54
				c-0.19-0.17-0.35-0.32-0.49-0.45c-0.14-0.13-0.27-0.27-0.39-0.41c0.03,0.33,0.06,0.64,0.08,0.93c0.02,0.29,0.03,0.54,0.03,0.76
				v5.72H107.88z"/>
			<path class="st4" d="M130.77,106.62v8.69h-2.46v-8.69h-4.85v-1.89h12.19v1.89H130.77z"/>
			<path class="st4" d="M138.56,107.23c0-0.96,0.18-1.62,0.54-1.97c0.36-0.35,1.05-0.53,2.08-0.53h7.79c1.03,0,1.72,0.18,2.08,0.53
				c0.36,0.35,0.54,1.01,0.54,1.97v5.58c0,0.97-0.18,1.63-0.54,1.98c-0.36,0.35-1.05,0.53-2.08,0.53h-7.79
				c-1.03,0-1.72-0.18-2.08-0.53c-0.36-0.35-0.54-1.01-0.54-1.98V107.23z M141.02,113.32h8.12v-6.7h-8.12V113.32z M143.61,103.61
				l2.04-3.46h2.22l-2.95,3.46H143.61z"/>
			<path class="st4" d="M159.08,115.31L155,104.73h2.54l2.68,7.1l2.81-7.1h1.72l2.86,7.1l2.56-7.1h2.2l-4.08,10.58h-1.66l-2.91-7.32
				l-2.95,7.32H159.08z"/>
		</g>
		<path id="SVGID_x5F_4_x5F_" class="st9" d="M181.67,106.99c0,43.03-39.81,78.83-85.3,77.79c-44.2-1-80.06-34.88-80.06-77.91"/>
		<text>		<textPath  xlink:href="#SVGID_x5F_4_x5F_" startOffset="0%">
<tspan  class="st4 st5" style="font-size:11.8483px; letter-spacing:26.72;">IGRZYSKA DZIESIECIOLECIA</tspan>		</textPath>
</text>
		<path id="SVGID_x5F_5_x5F_" class="st9" d="M18.95,99.22c0-44.99,36.09-81.65,82.13-80.34c42.13,1.2,78.4,35.57,78.4,80.56"/>
		<text>		<textPath  xlink:href="#SVGID_x5F_5_x5F_" startOffset="0%">
<tspan  class="st4" style="font-family:'BankGothicBT-Light'; font-size:9.7026px; letter-spacing:28.6;">MAY THE PROFESSORS BE EVER IN YOUR FAVOR</tspan>		</textPath>
</text>
		<path class="st10" d="M56.31,162.79"/>
		<g>
			<ellipse class="st4" cx="182.11" cy="107.1" rx="2.63" ry="2.62"/>
			<ellipse class="st4" cx="16.32" cy="107.1" rx="2.63" ry="2.62"/>
		</g>
		<polygon class="st4" points="128.84,181.84 127.81,181.62 128.83,178.62 129.55,178.77 		"/>
	</g>
</g>
<g id="wlepa2">
	<g>
		<circle class="st12" cx="99.21" cy="99.21" r="25.42"/>
		<path class="st12" d="M99.21,31.54c-37.38,0-67.68,30.3-67.68,67.68c0,1.02,0.02,2.03,0.07,3.03c0.39,8.91,2.51,17.37,6.02,25.06
			c4.87,10.66,12.42,19.83,21.79,26.65c11.17,8.14,24.93,12.94,39.8,12.94c37.38,0,67.68-30.3,67.68-67.68
			C166.89,61.84,136.59,31.54,99.21,31.54z M99.21,156.78c-10.56,0-20.46-2.84-28.96-7.81c-9.03-5.26-16.49-12.92-21.53-22.09
			c-4.03-7.33-6.5-15.64-6.99-24.47c-0.06-1.06-0.09-2.13-0.09-3.21c0-31.8,25.78-57.57,57.57-57.57s57.57,25.78,57.57,57.57
			C156.78,131.01,131.01,156.78,99.21,156.78z"/>
		<path class="st12" d="M99.21,52.58c-25.75,0-46.63,20.88-46.63,46.63c0,25.75,20.88,46.63,46.63,46.63s46.63-20.88,46.63-46.63
			C145.84,73.46,124.97,52.58,99.21,52.58z M99.21,136.84c-20.76,0-37.59-16.83-37.59-37.59c0-20.76,16.83-37.59,37.59-37.59
			c20.76,0,37.59,16.83,37.59,37.59C136.81,120.01,119.97,136.84,99.21,136.84z"/>
		<text transform="matrix(1 0 0 1 82.3384 129.2832)"><tspan x="0" y="0" class="st13 st5 st6">PW</tspan><tspan x="24.45" y="0" class="st13 st5 st7">r</tspan></text>
		<g>
			<g>
				<g>
					<g>
						<path class="st14" d="M57.69,138.48l-3.01-7.44l-7.96,18.41l18.43-4.95l-6-4.36l-4.09,3.68c-0.2,0.18-1.15,0.44-2.97,0.96
							c0,0,1.13-2.63,1.33-2.79L57.69,138.48z"/>
						<path class="st14" d="M90.83,112.9l-29.76,25.97c-0.4,0.34-1.01,0.3-1.36-0.1l-0.17-0.19c-0.36-0.41-0.32-1.03,0.1-1.38
							l31.29-27.17"/>
						<path class="st14" d="M98.84,103.2l35.83-30.15c0.43-0.37,1.09-0.28,1.42,0.19l0,0c0.29,0.41,0.22,0.97-0.16,1.3l-33.78,28.61
							"/>
						<path class="st14" d="M152.39,57.99l4.31-3.37c0.43-0.37,1.09-0.28,1.42,0.19l0,0c0.29,0.41,0.22,0.97-0.16,1.3l-4.03,3.47
							c-0.26,0.23-0.6,0.36-0.95,0.32C151.89,59.77,151.94,58.37,152.39,57.99z"/>
					</g>
					<path class="st14" d="M144.56,70.52l0.79-0.66l4.51,1.02c0.96-0.6,2.03-1.27,3.12-1.96l-5.03-1.19l0.79-0.66l5.28,1.19
						c0.99-0.62,1.98-1.24,2.91-1.82l-5.76-1.37l0.79-0.66l6.02,1.36c2.34-1.46,4.12-2.57,4.25-2.65c-0.01,0-10.3-2.3-10.3-2.3
						L138.4,72.38l7.59,0.93c0.17-0.1,1.28-0.8,2.84-1.78L144.56,70.52z"/>
					<path class="st14" d="M139.94,65.15l0.77-0.68l-0.29-4.62c0.75-0.85,1.57-1.8,2.43-2.77l0.38,5.15l0.77-0.68l-0.34-5.4
						c0.77-0.88,1.54-1.76,2.26-2.59l0.43,5.91l0.77-0.68l-0.39-6.16c1.82-2.08,3.83-4.23,3.92-4.35c0,0.01,0,11.11,0,11.11
						l-13.53,11.55l0.28-7.64c0.13-0.15,0.99-1.14,2.21-2.53L139.94,65.15z"/>
				</g>
			</g>
		</g>
		<g>
			<path class="st13" d="M49.95,85.35c0-1.59,0.28-2.68,0.85-3.26c0.57-0.58,1.65-0.88,3.25-0.88h12.1c1.58,0,2.65,0.29,3.22,0.87
				c0.57,0.58,0.85,1.67,0.85,3.27v9.22c0,1.61-0.28,2.7-0.85,3.28c-0.57,0.57-1.64,0.86-3.22,0.86h-12.1
				c-1.6,0-2.68-0.29-3.25-0.88c-0.57-0.58-0.85-1.67-0.85-3.26V85.35z M52.87,96.27h14.48V83.6H52.87V96.27z"/>
			<path class="st13" d="M79.1,98.71V81.21h14.1c1.31,0,2.26,0.27,2.84,0.8c0.58,0.54,0.87,1.4,0.87,2.59v2.04
				c0,0.94-0.23,1.64-0.7,2.1c-0.47,0.46-1.21,0.76-2.21,0.88c0.98,0.12,1.73,0.47,2.24,1.05c0.51,0.58,0.77,1.37,0.77,2.37v2.23
				c0,1.16-0.4,2.02-1.2,2.58c-0.8,0.56-2.02,0.84-3.65,0.84H79.1z M93.91,86.84v-1.75c0-0.57-0.12-0.97-0.37-1.19
				c-0.25-0.22-0.72-0.33-1.41-0.33h-10.1v4.83h10.1c0.67,0,1.14-0.12,1.4-0.35C93.78,87.82,93.91,87.41,93.91,86.84z M94.06,94.24
				v-1.46c0-0.79-0.14-1.34-0.42-1.65c-0.28-0.3-0.79-0.46-1.51-0.46h-10.1v5.63h10.1c0.74,0,1.25-0.15,1.52-0.45
				C93.92,95.56,94.06,95.02,94.06,94.24z"/>
			<path class="st13" d="M125.12,85.52l-0.02,9.05c0,1.61-0.28,2.7-0.85,3.28c-0.57,0.57-1.64,0.86-3.22,0.86h-12.1
				c-1.6,0-2.68-0.29-3.25-0.88c-0.57-0.58-0.85-1.67-0.85-3.26v-9.22c0-1.59,0.28-2.68,0.85-3.26c0.57-0.58,1.65-0.88,3.25-0.88
				h13.65c-1,0.84-2.89,2.39-2.86,2.36l-11.97,0.02v12.68h14.48l0.21-8.36 M112.72,79.36l3.46-5.76h2.95l-4.65,5.76H112.72z"/>
			<path class="st13" d="M131.67,98.71v-1.19l12.96-13.92H132.8v-2.38h16.5v0.99l-13.19,14.07h13.19v2.43H131.67z"/>
			<path class="st13" d="M36.87,106.58h-6.93v2.27h6.6c1.03,0,1.73,0.18,2.1,0.53c0.36,0.35,0.55,1.01,0.55,1.97v1.45
				c0,0.96-0.18,1.62-0.55,1.97c-0.36,0.35-1.06,0.53-2.1,0.53H30c-1.03,0-1.73-0.18-2.1-0.53c-0.36-0.35-0.55-1.01-0.55-1.97v-0.29
				l2.17-0.45v1.25h7.48v-2.41h-6.6c-1.03,0-1.72-0.18-2.08-0.53c-0.36-0.35-0.54-1.01-0.54-1.97v-1.17c0-0.96,0.18-1.62,0.54-1.97
				c0.36-0.35,1.05-0.53,2.08-0.53h6.01c0.99,0,1.68,0.17,2.06,0.51s0.57,0.94,0.57,1.81v0.22l-2.17,0.51V106.58z"/>
			<path class="st13" d="M49.33,106.62v8.69h-2.46v-8.69h-4.85v-1.89h12.19v1.89H49.33z"/>
			<path class="st13" d="M59.81,104.73v8.59h7.02v-8.59h2.45v8.08c0,0.97-0.18,1.63-0.54,1.98c-0.36,0.35-1.05,0.53-2.08,0.53h-6.69
				c-1.02,0-1.71-0.18-2.08-0.53c-0.36-0.35-0.55-1.01-0.55-1.98v-8.08H59.81z"/>
			<path class="st13" d="M74.81,115.31v-10.58h5.9c1.68,0,2.98,0.45,3.88,1.36c0.9,0.91,1.36,2.2,1.36,3.86
				c0,0.99-0.18,1.88-0.53,2.67c-0.35,0.79-0.85,1.41-1.49,1.87c-0.4,0.29-0.89,0.5-1.49,0.63c-0.59,0.13-1.35,0.2-2.28,0.2H74.81z
				 M76.95,113.32h2.76c1.47,0,2.51-0.26,3.12-0.79c0.61-0.53,0.92-1.4,0.92-2.61c0-1.08-0.25-1.9-0.76-2.46
				c-0.51-0.56-1.26-0.84-2.25-0.84h-3.78V113.32z"/>
			<path class="st13" d="M92.31,115.31v-10.58h10.83v1.8h-8.37v2.36h4.88v1.8h-4.88v2.62h8.47v1.99H92.31z"/>
			<path class="st13" d="M107.88,115.31v-10.58h1.68l7.45,6.24c0.25,0.21,0.48,0.4,0.67,0.59c0.19,0.18,0.37,0.37,0.53,0.57
				c-0.04-0.59-0.07-1.01-0.08-1.26c-0.01-0.25-0.02-0.44-0.02-0.57v-5.56h2.21v10.58h-1.68l-7.77-6.54
				c-0.19-0.17-0.35-0.32-0.49-0.45c-0.14-0.13-0.27-0.27-0.39-0.41c0.03,0.33,0.06,0.64,0.08,0.93c0.02,0.29,0.03,0.54,0.03,0.76
				v5.72H107.88z"/>
			<path class="st13" d="M130.77,106.62v8.69h-2.46v-8.69h-4.85v-1.89h12.19v1.89H130.77z"/>
			<path class="st13" d="M138.56,107.23c0-0.96,0.18-1.62,0.54-1.97c0.36-0.35,1.05-0.53,2.08-0.53h7.79c1.03,0,1.72,0.18,2.08,0.53
				c0.36,0.35,0.54,1.01,0.54,1.97v5.58c0,0.97-0.18,1.63-0.54,1.98c-0.36,0.35-1.05,0.53-2.08,0.53h-7.79
				c-1.03,0-1.72-0.18-2.08-0.53c-0.36-0.35-0.54-1.01-0.54-1.98V107.23z M141.02,113.32h8.12v-6.7h-8.12V113.32z M143.61,103.61
				l2.04-3.46h2.22l-2.95,3.46H143.61z"/>
			<path class="st13" d="M159.08,115.31L155,104.73h2.54l2.68,7.1l2.81-7.1h1.72l2.86,7.1l2.56-7.1h2.2l-4.08,10.58h-1.66
				l-2.91-7.32l-2.95,7.32H159.08z"/>
		</g>
		<path class="st10" d="M56.31,162.79"/>
		<g>
			<ellipse class="st13" cx="182.11" cy="109.72" rx="2.63" ry="2.62"/>
			<ellipse class="st13" cx="16.32" cy="109.72" rx="2.63" ry="2.62"/>
		</g>
	</g>
</g>
</svg>
