<?xml version="1.0" encoding="utf-8"?>
<!-- Generator: Adobe Illustrator 25.0.0, SVG Export Plug-In . SVG Version: 6.00 Build 0)  -->
<svg version="1.1" id="Warstwa_1" xmlns="http://www.w3.org/2000/svg" xmlns:xlink="http://www.w3.org/1999/xlink" x="0px" y="0px"
	 viewBox="0 0 198.4 198.4" style="enable-background:new 0 0 198.4 198.4;" xml:space="preserve">
<style type="text/css">
	.st0{display:none;}
	.st1{display:inline;}
	.st2{fill:#333333;}
	.st3{fill:#4E4D4D;}
	.st4{fill:#FFFFFF;}
	.st5{fill:#F7A813;}
	.st6{fill:none;}
	.st7{fill:#333333;stroke:#333333;stroke-width:0.75;stroke-miterlimit:10;}
	.st8{fill:#37BFF0;}
	.st9{fill:#201E1E;}
	.st10{fill:#DC7D28;}
	.st11{opacity:0.47;fill:#2F3030;enable-background:new    ;}
	.st12{fill:#971A15;}
</style>
<g id="wlepa1" class="st0">
	<g class="st1">
		<circle class="st2" cx="99.2" cy="99.2" r="99.1"/>
		<circle class="st3" cx="99.2" cy="99.2" r="25.4"/>
		<path class="st3" d="M99.2,31.5c-37.4,0-67.7,30.3-67.7,67.7c0,1,0,2,0.1,3c0.4,8.9,2.5,17.4,6,25.1C42.5,138,50,147.1,59.4,154
			c11.2,8.1,24.9,12.9,39.8,12.9c37.4,0,67.7-30.3,67.7-67.7S136.6,31.5,99.2,31.5z M99.2,156.8c-10.6,0-20.5-2.8-29-7.8
			c-9-5.3-16.5-12.9-21.5-22.1c-4-7.3-6.5-15.6-7-24.5c-0.1-1.1-0.1-2.1-0.1-3.2c0-31.8,25.8-57.6,57.6-57.6s57.6,25.8,57.6,57.6
			C156.8,131,131,156.8,99.2,156.8z"/>
		<path class="st3" d="M99.2,52.6c-25.8,0-46.6,20.9-46.6,46.6s20.9,46.6,46.6,46.6s46.6-20.9,46.6-46.6S125,52.6,99.2,52.6z
			 M99.2,136.8c-20.8,0-37.6-16.8-37.6-37.6s16.8-37.6,37.6-37.6s37.6,16.8,37.6,37.6C136.8,120,120,136.8,99.2,136.8z"/>
		<g>
			<path class="st4" d="M84.2,129.3v-7.7h6.6c0.6,0,1.1,0.1,1.3,0.3c0.3,0.2,0.4,0.6,0.4,1.1v1.7c0,0.5-0.1,0.9-0.4,1.1
				c-0.3,0.2-0.7,0.3-1.3,0.3h-4.8v3L84.2,129.3L84.2,129.3z M90,122.9h-4v2h4c0.3,0,0.5,0,0.6-0.1c0.1-0.1,0.2-0.2,0.2-0.5v-0.8
				c0-0.2-0.1-0.4-0.2-0.5C90.5,122.9,90.3,122.9,90,122.9z"/>
			<path class="st4" d="M96.9,129.3l-3-7.7h1.8l2,5.2l2.1-5.2h1.3l2.1,5.2l1.9-5.2h1.6l-3,7.7h-1.2l-2.1-5.3l-2.2,5.3H96.9z"/>
			<path class="st4" d="M107.9,129.3v-4.5h4.1c0.4,0,0.6,0.1,0.8,0.2s0.2,0.4,0.2,0.7v1.1c0,0.3-0.1,0.5-0.2,0.7s-0.4,0.2-0.8,0.2
				h-0.6l2.2,1.7H112l-1.9-1.7h-1v1.7L107.9,129.3L107.9,129.3z M111.6,125.5H109v1.2h2.5c0.2,0,0.3,0,0.4-0.1s0.1-0.2,0.1-0.3v-0.5
				c0-0.1,0-0.2-0.1-0.3C111.9,125.6,111.7,125.5,111.6,125.5z"/>
		</g>
		<g>
			<g>
				<g>
					<path class="st5" d="M57.7,138.5l-3-7.4l-8,18.4l18.4-4.9l-6-4.4l-4.1,3.7c-0.2,0.2-1.2,0.4-3,1c0,0,1.1-2.6,1.3-2.8
						L57.7,138.5z"/>
					<path class="st5" d="M90.8,112.9l-29.8,26c-0.4,0.3-1,0.3-1.4-0.1l-0.2-0.2c-0.4-0.4-0.3-1,0.1-1.4L90.9,110"/>
					<path class="st5" d="M98.8,103.2L134.7,73c0.4-0.4,1.1-0.3,1.4,0.2l0,0c0.3,0.4,0.2,1-0.2,1.3l-33.8,28.6"/>
					<path class="st5" d="M152.4,58l4.3-3.4c0.4-0.4,1.1-0.3,1.4,0.2l0,0c0.3,0.4,0.2,1-0.2,1.3l-4,3.5c-0.3,0.2-0.6,0.4-0.9,0.3
						C151.9,59.8,151.9,58.4,152.4,58z"/>
				</g>
				<path class="st5" d="M144.6,70.5l0.8-0.7l4.5,1c1-0.6,2-1.3,3.1-2l-5-1.2l0.8-0.7l5.3,1.2c1-0.6,2-1.2,2.9-1.8l-5.8-1.4l0.8-0.7
					l6,1.4c2.3-1.5,4.1-2.6,4.2-2.7c0,0-10.3-2.3-10.3-2.3l-13.5,11.6l7.6,0.9c0.2-0.1,1.3-0.8,2.8-1.8L144.6,70.5z"/>
				<path class="st5" d="M139.9,65.2l0.8-0.7l-0.3-4.6c0.8-0.8,1.6-1.8,2.4-2.8l0.4,5.2l0.8-0.7l-0.3-5.4c0.8-0.9,1.5-1.8,2.3-2.6
					l0.4,5.9l0.8-0.7l-0.4-6.2c1.8-2.1,3.8-4.2,3.9-4.3c0,0,0,11.1,0,11.1l-13.5,11.5l0.3-7.6c0.1-0.2,1-1.1,2.2-2.5L139.9,65.2z"/>
			</g>
		</g>
		<g>
			<path class="st4" d="M50,85.3c0-1.6,0.3-2.7,0.8-3.3s1.7-0.9,3.2-0.9h12.1c1.6,0,2.7,0.3,3.2,0.9s0.8,1.7,0.8,3.3v9.2
				c0,1.6-0.3,2.7-0.8,3.3c-0.6,0.6-1.6,0.9-3.2,0.9H54.1c-1.6,0-2.7-0.3-3.2-0.9c-0.6-0.6-0.8-1.7-0.8-3.3C50,94.6,50,85.3,50,85.3
				z M52.9,96.3h14.5V83.6H52.9V96.3z"/>
			<path class="st4" d="M79.1,98.7V81.2h14.1c1.3,0,2.3,0.3,2.8,0.8c0.6,0.5,0.9,1.4,0.9,2.6v2c0,0.9-0.2,1.6-0.7,2.1
				c-0.5,0.5-1.2,0.8-2.2,0.9c1,0.1,1.7,0.5,2.2,1.1C96.8,91.2,97,92,97,93v2.2c0,1.2-0.4,2-1.2,2.6c-0.8,0.6-2,0.8-3.7,0.8
				L79.1,98.7L79.1,98.7z M93.9,86.8v-1.8c0-0.6-0.1-1-0.4-1.2s-0.7-0.3-1.4-0.3H82v4.8h10.1c0.7,0,1.1-0.1,1.4-0.3
				C93.8,87.8,93.9,87.4,93.9,86.8z M94.1,94.2v-1.5c0-0.8-0.1-1.3-0.4-1.7c-0.3-0.3-0.8-0.5-1.5-0.5H82v5.6h10.1
				c0.7,0,1.2-0.2,1.5-0.4C93.9,95.6,94.1,95,94.1,94.2z"/>
			<path class="st4" d="M125.1,85.5l0,9.1c0,1.6-0.3,2.7-0.8,3.3c-0.6,0.6-1.6,0.9-3.2,0.9h-12.1c-1.6,0-2.7-0.3-3.2-0.9
				c-0.6-0.6-0.8-1.7-0.8-3.3v-9.2c0-1.6,0.3-2.7,0.8-3.3s1.7-0.9,3.2-0.9h13.7c-1,0.8-2.9,2.4-2.9,2.4l-12,0v12.7h14.5l0.2-8.4
				 M112.7,79.4l3.5-5.8h2.9l-4.7,5.8H112.7z"/>
			<path class="st4" d="M131.7,98.7v-1.2l13-13.9h-11.8v-2.4h16.5v1l-13.2,14.1h13.2v2.4H131.7z"/>
			<path class="st4" d="M36.9,106.6h-6.9v2.3h6.6c1,0,1.7,0.2,2.1,0.5c0.4,0.3,0.5,1,0.5,2v1.4c0,1-0.2,1.6-0.5,2
				c-0.4,0.3-1.1,0.5-2.1,0.5H30c-1,0-1.7-0.2-2.1-0.5c-0.4-0.3-0.5-1-0.5-2v-0.3l2.2-0.4v1.2H37v-2.4h-6.6c-1,0-1.7-0.2-2.1-0.5
				s-0.5-1-0.5-2v-1.2c0-1,0.2-1.6,0.5-2s1-0.5,2.1-0.5h6c1,0,1.7,0.2,2.1,0.5s0.6,0.9,0.6,1.8v0.2l-2.2,0.5
				C36.9,107.8,36.9,106.6,36.9,106.6z"/>
			<path class="st4" d="M49.3,106.6v8.7h-2.5v-8.7H42v-1.9h12.2v1.9H49.3z"/>
			<path class="st4" d="M59.8,104.7v8.6h7v-8.6h2.4v8.1c0,1-0.2,1.6-0.5,2c-0.4,0.3-1.1,0.5-2.1,0.5H60c-1,0-1.7-0.2-2.1-0.5
				c-0.4-0.3-0.5-1-0.5-2v-8.1C57.3,104.7,59.8,104.7,59.8,104.7z"/>
			<path class="st4" d="M74.8,115.3v-10.6h5.9c1.7,0,3,0.4,3.9,1.4c0.9,0.9,1.4,2.2,1.4,3.9c0,1-0.2,1.9-0.5,2.7s-0.8,1.4-1.5,1.9
				c-0.4,0.3-0.9,0.5-1.5,0.6c-0.6,0.1-1.3,0.2-2.3,0.2L74.8,115.3L74.8,115.3z M76.9,113.3h2.8c1.5,0,2.5-0.3,3.1-0.8
				s0.9-1.4,0.9-2.6c0-1.1-0.2-1.9-0.8-2.5s-1.3-0.8-2.2-0.8H77L76.9,113.3L76.9,113.3z"/>
			<path class="st4" d="M92.3,115.3v-10.6h10.8v1.8h-8.4v2.4h4.9v1.8h-4.9v2.6h8.5v2L92.3,115.3L92.3,115.3z"/>
			<path class="st4" d="M107.9,115.3v-10.6h1.7l7.4,6.2c0.2,0.2,0.5,0.4,0.7,0.6c0.2,0.2,0.4,0.4,0.5,0.6c0-0.6-0.1-1-0.1-1.3
				s0-0.4,0-0.6v-5.6h2.2v10.6h-1.7l-7.8-6.5c-0.2-0.2-0.3-0.3-0.5-0.4s-0.3-0.3-0.4-0.4c0,0.3,0.1,0.6,0.1,0.9c0,0.3,0,0.5,0,0.8
				v5.7L107.9,115.3L107.9,115.3z"/>
			<path class="st4" d="M130.8,106.6v8.7h-2.5v-8.7h-4.8v-1.9h12.2v1.9H130.8z"/>
			<path class="st4" d="M138.6,107.2c0-1,0.2-1.6,0.5-2s1.1-0.5,2.1-0.5h7.8c1,0,1.7,0.2,2.1,0.5s0.5,1,0.5,2v5.6c0,1-0.2,1.6-0.5,2
				c-0.4,0.3-1.1,0.5-2.1,0.5h-7.8c-1,0-1.7-0.2-2.1-0.5s-0.5-1-0.5-2V107.2z M141,113.3h8.1v-6.7H141V113.3z M143.6,103.6l2-3.5
				h2.2l-2.9,3.5H143.6z"/>
			<path class="st4" d="M159.1,115.3l-4.1-10.6h2.5l2.7,7.1l2.8-7.1h1.7l2.9,7.1l2.6-7.1h2.2l-4.1,10.6h-1.7l-2.9-7.3l-2.9,7.3
				C160.8,115.3,159.1,115.3,159.1,115.3z"/>
		</g>
		<g>
			<path class="st6" d="M181.7,107c0,43-39.8,78.8-85.3,77.8c-44.2-1-80.1-34.9-80.1-77.9"/>
			<path class="st4" d="M20.7,132.2l5.7-2.1l0.5,1.3l-5.7,2.1L20.7,132.2z"/>
			<path class="st4" d="M29.5,139.8l-1.9-3.9l-3.5,1.7l1.9,3.9l1.2-0.6l-1-2l0.9-0.5l1.6,3.2l-1.9,0.9c-0.5,0.2-0.9,0.3-1.2,0.2
				c-0.3-0.1-0.5-0.4-0.8-0.9l-1.8-3.7c-0.3-0.5-0.3-0.9-0.2-1.2c0.1-0.3,0.4-0.5,0.9-0.8l2.9-1.4c0.5-0.2,0.9-0.3,1.2-0.2
				c0.3,0.1,0.5,0.4,0.8,0.9l1.8,3.7c0.2,0.5,0.3,0.9,0.2,1.2c-0.1,0.3-0.4,0.5-0.8,0.8l-0.1,0.1l-0.8-1.1L29.5,139.8z"/>
			<path class="st4" d="M27.5,146.6l5.1-3.4l2.8,4.2c0.3,0.4,0.4,0.7,0.3,1s-0.2,0.5-0.6,0.8L34,150c-0.3,0.2-0.7,0.3-0.9,0.2
				s-0.5-0.3-0.8-0.7l-0.4-0.6l-0.4,3.6l-1.1-1.6l0.6-3.3l-0.7-1.1l-1.9,1.3L27.5,146.6z M34.2,147.5l-1.8-2.6l-1.4,0.9l1.8,2.6
				c0.1,0.2,0.3,0.3,0.4,0.4c0.1,0,0.2,0,0.4-0.1l0.6-0.4c0.2-0.1,0.2-0.2,0.2-0.3S34.4,147.7,34.2,147.5z"/>
			<path class="st4" d="M32.9,154.2l0.5-0.4l6,0.3l-2.5-2.8l0.8-0.7l3.9,4.5l-0.5,0.4l-6.1-0.3l2.8,3.2l-0.9,0.8L32.9,154.2z"/>
			<path class="st4" d="M40.5,162.3l1.9-2l0-4.6l1.4,1.2l-0.1,3.1l3.1-0.3l1.2,1.1l-4.5,0.4l-1.9,2L40.5,162.3z"/>
			<path class="st4" d="M52.8,165.8l-3.2-2.3l-0.8,1.1l3,2.2c0.5,0.3,0.7,0.7,0.8,0.9s-0.1,0.6-0.4,1.1l-0.5,0.7
				c-0.3,0.4-0.6,0.7-0.9,0.7s-0.7-0.1-1.1-0.4l-3-2.2c-0.5-0.3-0.7-0.7-0.8-0.9c0-0.3,0.1-0.6,0.4-1.1l0.1-0.1l1.1,0.5l-0.4,0.6
				l3.4,2.5l0.8-1.1l-3-2.2c-0.5-0.3-0.7-0.6-0.8-0.9c0-0.3,0.1-0.6,0.4-1.1l0.4-0.6c0.3-0.4,0.6-0.7,0.9-0.7s0.7,0.1,1.1,0.4l2.7,2
				c0.5,0.3,0.7,0.6,0.8,0.9c0.1,0.3-0.1,0.6-0.4,1l-0.1,0.1l-1.2-0.5L52.8,165.8z"/>
			<path class="st4" d="M54.1,172.7l3-5.4l1.2,0.7l-1.2,2.2l4.1-0.6l1.8,1l-4.8,0.6l2.3,5l-1.9-1.1l-1.8-4.1l-1.3,2.4L54.1,172.7z"
				/>
			<path class="st4" d="M61.5,176.7l5.5-4.4l1.2,0.5l0.8,7l-1.4-0.6l-0.2-1.5l-3.5-1.4l-1.2,1L61.5,176.7z M64.9,175.5l2.4,1
				l-0.2-2.8L64.9,175.5z"/>
			<path class="st4" d="M76.4,182.1l1.3-6l3.7,0.8c1.1,0.2,1.8,0.7,2.3,1.3s0.6,1.4,0.4,2.4c-0.1,0.6-0.3,1-0.7,1.4
				s-0.7,0.7-1.2,0.9c-0.3,0.1-0.6,0.2-1,0.1c-0.4,0-0.9-0.1-1.5-0.2L76.4,182.1z M78,181.3l1.8,0.4c0.9,0.2,1.6,0.2,2.1,0
				c0.4-0.2,0.8-0.7,0.9-1.4c0.1-0.6,0.1-1.1-0.2-1.5s-0.7-0.6-1.3-0.8l-2.4-0.5L78,181.3z"/>
			<path class="st4" d="M86,184l0.1-0.7l4.6-3.9l-3.7-0.4l0.1-1.1l5.9,0.6l-0.1,0.6l-4.7,3.9l4.2,0.4l-0.1,1.1L86,184z"/>
			<path class="st4" d="M95.3,184.8l0.2-6.1l1.4,0.1l-0.2,6.1L95.3,184.8z"/>
			<path class="st4" d="M100.4,184.8l-0.4-6.1l6.1-0.4l0.1,1l-4.7,0.3l0.1,1.4l2.7-0.2l0.1,1l-2.7,0.2l0.1,1.5l4.8-0.3l0.1,1.1
				L100.4,184.8z"/>
			<path class="st4" d="M114.1,178.2l-3.8,0.7l0.2,1.3l3.7-0.6c0.6-0.1,1-0.1,1.2,0.1c0.2,0.2,0.4,0.5,0.5,1.1l0.2,0.8
				c0.1,0.6,0.1,0.9-0.1,1.2c-0.2,0.2-0.5,0.4-1.1,0.5l-3.6,0.6c-0.6,0.1-1,0.1-1.2-0.1c-0.2-0.2-0.4-0.5-0.5-1.1l0-0.2l1.2-0.5
				l0.1,0.7l4.1-0.7l-0.2-1.4l-3.7,0.6c-0.6,0.1-1,0.1-1.2-0.1c-0.2-0.2-0.4-0.5-0.5-1.1l-0.1-0.7c-0.1-0.6-0.1-0.9,0.1-1.2
				c0.2-0.2,0.5-0.4,1.1-0.5l3.3-0.6c0.6-0.1,0.9-0.1,1.2,0.1c0.2,0.2,0.4,0.5,0.5,1l0,0.1l-1.2,0.5L114.1,178.2z"/>
			<path class="st4" d="M119.7,182.1l-1.6-5.9l1.3-0.4l1.6,5.9L119.7,182.1z"/>
			<path class="st4" d="M124.7,180.7l-2.1-5.8l5.7-2.1l0.4,1l-4.4,1.6l0.5,1.3l2.6-0.9l0.3,1l-2.6,0.9l0.5,1.4l4.5-1.6l0.4,1.1
				L124.7,180.7z"/>
			<path class="st4" d="M135.8,170.5l-3.4,1.7l1.7,3.5l3.4-1.7l-0.6-1.2l1.4-0.4l0.3,0.6c0.2,0.5,0.3,0.9,0.2,1.2
				c-0.1,0.3-0.4,0.5-0.9,0.8l-3.2,1.6c-0.5,0.3-0.9,0.3-1.2,0.2s-0.5-0.4-0.8-0.9l-1.4-2.9c-0.2-0.5-0.3-0.9-0.2-1.2
				c0.1-0.3,0.4-0.5,0.9-0.8l3.2-1.6c0.5-0.2,0.9-0.3,1.2-0.2c0.3,0.1,0.5,0.4,0.8,0.9l0.3,0.5l-1.1,0.8L135.8,170.5z"/>
			<path class="st4" d="M142.3,172.6l-3.2-5.2l1.2-0.7l3.2,5.2L142.3,172.6z"/>
			<path class="st4" d="M143.8,166.2c-0.3-0.4-0.5-0.8-0.4-1.1c0-0.3,0.3-0.6,0.8-0.9l3.5-2.6c0.5-0.3,0.8-0.5,1.1-0.4
				c0.3,0,0.6,0.3,0.9,0.7l1.9,2.6c0.3,0.4,0.5,0.8,0.4,1.1s-0.3,0.6-0.8,0.9l-3.5,2.6c-0.5,0.3-0.8,0.5-1.1,0.4s-0.6-0.3-0.9-0.7
				L143.8,166.2z M147,168.2l3.7-2.7l-2.3-3.1l-3.7,2.7L147,168.2z"/>
			<path class="st4" d="M155.3,163.1l-4.2-4.5l1-0.9l3.4,3.6l3.3-3.1l0.8,0.8L155.3,163.1z"/>
			<path class="st4" d="M161.5,157.1l-4.6-4l4-4.6l0.8,0.7l-3.1,3.6l1,0.9l1.8-2.1l0.8,0.7l-1.8,2.1l1.1,1l3.1-3.6l0.9,0.8
				L161.5,157.1z"/>
			<path class="st4" d="M166.1,142.7l-2.1,3.1l3.2,2.1l2.1-3.1l-1.1-0.7l1-1l0.6,0.4c0.5,0.3,0.7,0.6,0.8,0.9
				c0.1,0.3-0.1,0.7-0.4,1.1l-2,3c-0.3,0.5-0.6,0.8-0.9,0.8s-0.6-0.1-1.1-0.4l-2.7-1.8c-0.5-0.3-0.7-0.6-0.8-0.9s0.1-0.7,0.4-1.1
				l2-3c0.3-0.5,0.6-0.8,0.9-0.8s0.7,0.1,1.1,0.4l0.5,0.3l-0.6,1.3L166.1,142.7z"/>
			<path class="st4" d="M172.8,141.2l-5.4-2.9l0.6-1.2l5.4,2.9L172.8,141.2z"/>
			<path class="st4" d="M174.8,137.6l-4.4-5.4l0.5-1.2l6.9-0.8l-0.6,1.4l-1.5,0.1l-1.4,3.5l1,1.1L174.8,137.6z M173.5,134.2l1-2.4
				l-2.8,0.2L173.5,134.2z"/>
		</g>
		<g>
			<path class="st6" d="M163.8,104.1c0,33.6-31.3,61.6-65.4,60.9c-33.1-0.7-63.7-28.3-63.7-62.2"/>
			<path class="st7" d="M81.8,157.2c0.1-0.5,0.3-0.8,0.5-0.9s0.6-0.1,1.2,0l3.2,0.9c0.6,0.1,0.9,0.3,1.1,0.6c0.2,0.2,0.2,0.6,0,1
				l-0.1,0.4c-0.1,0.3-0.2,0.5-0.3,0.6c-0.1,0.1-0.4,0.3-0.8,0.4l-4.2,1.2l3.6,1l0.2-0.9l1.1,0.6l-0.1,0.5c-0.1,0.5-0.3,0.8-0.5,0.9
				s-0.6,0.1-1.2,0l-5.2-1.4l0.2-0.6c0.1-0.3,0.2-0.5,0.3-0.6c0.2-0.1,0.4-0.2,0.7-0.3l5-1.5l0.2-0.8l-3.5-0.9l-0.3,1.3l-1.1-0.6
				L81.8,157.2z"/>
			<path class="st7" d="M90.8,159.6c0.1-0.6,0.2-1,0.4-1.1c0.2-0.2,0.6-0.3,1.2-0.2l4.3,0.4c0.6,0.1,0.9,0.2,1.1,0.4
				c0.2,0.2,0.2,0.6,0.2,1.2l-0.3,3.3c-0.1,0.6-0.2,1-0.4,1.1s-0.6,0.3-1.2,0.2l-4.3-0.4c-0.6-0.1-0.9-0.2-1.1-0.4s-0.2-0.6-0.2-1.2
				L90.8,159.6z M91.8,163.4l4.6,0.4l0.4-4.1l-4.6-0.4L91.8,163.4z"/>
			<path class="st7" d="M101.2,160c0-0.5,0-0.8,0.2-1c0.2-0.2,0.6-0.3,1.1-0.4l3.3-0.3c0.6-0.1,1,0,1.2,0.2s0.3,0.5,0.4,0.9l0,0.4
				c0,0.3,0,0.5-0.1,0.7s-0.3,0.4-0.6,0.6l-3.6,2.6l3.7-0.3l-0.1-0.9l1.2,0.2l0,0.5c0,0.5,0,0.8-0.2,1s-0.6,0.3-1.1,0.4l-5.4,0.4
				l-0.1-0.6c0-0.3,0-0.5,0.1-0.7s0.3-0.4,0.6-0.6l4.2-3l-0.1-0.8l-3.6,0.3l0.1,1.3l-1.3-0.2L101.2,160z"/>
			<path class="st7" d="M113.2,163.6c-0.6,0.1-1,0.1-1.2,0c-0.2-0.1-0.4-0.4-0.5-0.9l-0.1-0.5l1.2-0.6l0.2,0.9l3.3-0.9
				c0.2-0.1,0.4-0.1,0.4-0.2s0.1-0.2,0-0.5l-0.1-0.4c-0.1-0.2-0.1-0.4-0.2-0.4s-0.3-0.1-0.5,0l-2.1,0.5l-0.2-1l1.9-0.5
				c0.2-0.1,0.4-0.1,0.4-0.2s0.1-0.2,0-0.5l-0.1-0.3c-0.1-0.2-0.1-0.4-0.2-0.4c-0.1-0.1-0.3-0.1-0.5,0l-3.1,0.8l0.2,0.8l-1.3,0.1
				l-0.1-0.4c-0.1-0.5-0.1-0.8,0.1-1s0.5-0.4,1.1-0.5l3.4-0.9c0.6-0.1,1-0.1,1.2,0s0.4,0.4,0.5,0.9l0.1,0.6c0.1,0.4,0.1,0.6-0.1,0.9
				s-0.4,0.4-0.8,0.6c0.5-0.1,0.9-0.1,1.2,0.1c0.3,0.1,0.5,0.4,0.6,0.8l0.2,0.6c0.1,0.5,0.1,0.9-0.1,1.1c-0.2,0.2-0.5,0.4-1.1,0.6
				L113.2,163.6z"/>
		</g>
		<g>
			<path class="st6" d="M19,99.2c0-45,36.1-81.7,82.1-80.3c42.1,1.2,78.4,35.6,78.4,80.6"/>
			<path class="st4" d="M15.1,91.5c0.1,0,0.2,0,0.3,0c0.1,0,0.2,0,0.4,0l3.4,0.4l-0.1,0.6l-5-0.6l0.1-0.6l3.5-1.8l-3-2.4l0.1-0.7
				l5,0.6l-0.1,0.7l-3.4-0.4c0,0-0.1,0-0.3-0.1s-0.3-0.1-0.4-0.1c0.1,0.1,0.2,0.1,0.3,0.2c0.1,0.1,0.2,0.1,0.2,0.1l2.6,2l0,0.2
				l-2.9,1.5c0,0,0,0,0,0C15.6,91.4,15.4,91.4,15.1,91.5z"/>
			<path class="st4" d="M20,85.4L15.6,82l0.2-0.8l5.4-1.5L21,80.5l-1.3,0.3l-0.6,3l1.1,0.8L20,85.4z M18.5,83.4L19,81l-2.8,0.7
				L18.5,83.4z"/>
			<path class="st4" d="M21.8,77.6L19.7,77l-3.3,1.5l0.2-0.9l2.6-1.1l-1.7-2.2l0.2-0.9l2.1,2.9l2.1,0.6L21.8,77.6z"/>
			<path class="st4" d="M21,66.7l4,1.6L24.7,69l-4-1.6l-0.8,1.9L19.3,69l1.8-4.6l0.6,0.2L21,66.7z"/>
			<path class="st4" d="M26.4,65l-4.5-2.2l0.3-0.7L24,63l1.6-3.2l-1.8-0.9l0.3-0.7l4.5,2.2l-0.3,0.7l-2-1l-1.6,3.2l2,1L26.4,65z"/>
			<path class="st4" d="M29.9,58.3l-4.3-2.6l2.3-3.7l0.6,0.3l-1.9,3.1l1.2,0.7l1.2-1.9l0.6,0.3l-1.2,1.9l1.4,0.8l1.9-3.1l0.6,0.4
				L29.9,58.3z"/>
			<path class="st4" d="M35.3,50.2L31.4,47l2.3-2.9c0.2-0.3,0.4-0.4,0.6-0.4s0.5,0.1,0.7,0.3l0.9,0.7c0.3,0.2,0.4,0.4,0.4,0.6
				s-0.1,0.5-0.3,0.7l-1.8,2.3l1.5,1.2L35.3,50.2z M34,44.8l-1.6,2l1.4,1.1l1.6-2c0.1-0.2,0.2-0.3,0.2-0.4c0-0.1-0.1-0.2-0.2-0.3
				l-0.5-0.4c-0.2-0.1-0.3-0.2-0.4-0.2C34.2,44.6,34.1,44.7,34,44.8z"/>
			<path class="st4" d="M39.5,45.1l-3.6-3.5l2.5-2.7c0.2-0.2,0.5-0.4,0.7-0.4s0.5,0.1,0.7,0.3l0.8,0.8c0.2,0.2,0.4,0.5,0.4,0.7
				c0,0.2-0.1,0.5-0.3,0.7l-0.5,0.5l2.8-0.2l-0.8,0.8h-2.7l-0.9,1l1.4,1.3L39.5,45.1z M38.6,39.6l-1.8,1.9l1.3,1.2l1.8-1.9
				c0.1-0.1,0.2-0.3,0.2-0.4c0-0.1-0.1-0.2-0.2-0.3l-0.5-0.5c-0.1-0.1-0.3-0.2-0.4-0.2C38.9,39.4,38.8,39.5,38.6,39.6z"/>
			<path class="st4" d="M41.7,37.3c-0.3-0.3-0.5-0.6-0.5-0.8c0-0.2,0.2-0.5,0.5-0.8l2.4-2.1c0.3-0.3,0.6-0.4,0.8-0.4
				c0.2,0,0.5,0.2,0.8,0.6l1.7,2c0.3,0.3,0.5,0.6,0.5,0.8c0,0.2-0.2,0.5-0.5,0.7L45,39.5c-0.3,0.3-0.6,0.4-0.8,0.4
				c-0.2,0-0.5-0.2-0.8-0.6L41.7,37.3z M44.3,39.2l2.8-2.5L44.8,34l-2.8,2.5L44.3,39.2z"/>
			<path class="st4" d="M50.1,35.2l-3-4l3.5-2.6l0.4,0.5l-2.9,2.1l1,1.3l1.6-1.2l0.4,0.5l-1.6,1.2l1.2,1.6L50.1,35.2z"/>
			<path class="st4" d="M54.8,31.9l-2.7-4.2l3.7-2.3l0.4,0.6l-3.1,1.9l0.7,1.2l1.9-1.2l0.3,0.6l-1.9,1.2l0.8,1.4l3.1-1.9l0.4,0.6
				L54.8,31.9z"/>
			<path class="st4" d="M61.6,23l-2.9,1.5l0.6,1.2l2.5-1.3c0.4-0.2,0.6-0.2,0.8-0.2s0.4,0.3,0.6,0.7l0.3,0.5
				c0.2,0.4,0.3,0.7,0.2,0.9s-0.3,0.4-0.6,0.6l-2.4,1.2c-0.4,0.2-0.7,0.2-0.9,0.2s-0.4-0.3-0.6-0.7l-0.1-0.1l0.5-0.5l0.4,0.7l3-1.5
				l-0.7-1.3l-2.5,1.3c-0.4,0.2-0.7,0.2-0.9,0.2s-0.4-0.3-0.6-0.7l-0.2-0.4c-0.2-0.4-0.3-0.7-0.2-0.9s0.3-0.4,0.6-0.6l2.2-1.1
				c0.4-0.2,0.7-0.2,0.9-0.2s0.4,0.3,0.6,0.6l0,0.1L62,23.6L61.6,23z"/>
			<path class="st4" d="M68.4,20l-3,1.2l0.5,1.3l2.7-1.1c0.4-0.1,0.7-0.2,0.9-0.1s0.4,0.4,0.6,0.8l0.2,0.5c0.2,0.4,0.2,0.7,0.2,1
				c-0.1,0.2-0.3,0.4-0.7,0.5l-2.5,1c-0.4,0.2-0.7,0.2-0.9,0.1s-0.4-0.4-0.6-0.8l-0.1-0.1l0.6-0.4l0.3,0.8l3.1-1.3L69.2,22l-2.7,1.1
				c-0.4,0.2-0.7,0.2-0.9,0.1c-0.2-0.1-0.4-0.4-0.6-0.8L65,22c-0.2-0.4-0.2-0.7-0.2-1c0.1-0.2,0.3-0.4,0.7-0.5l2.2-0.9
				c0.4-0.1,0.7-0.2,0.9-0.1c0.2,0.1,0.4,0.3,0.5,0.7l0,0.1l-0.5,0.4L68.4,20z"/>
			<path class="st4" d="M71.8,19.3c-0.1-0.4-0.2-0.8-0.1-1c0.1-0.2,0.3-0.4,0.7-0.5l3-0.9c0.4-0.1,0.7-0.1,0.9,0s0.3,0.4,0.5,0.8
				l0.8,2.5c0.1,0.4,0.2,0.8,0.1,1c-0.1,0.2-0.3,0.4-0.7,0.5l-3,0.9c-0.4,0.1-0.7,0.1-0.9,0c-0.2-0.1-0.3-0.4-0.5-0.8L71.8,19.3z
				 M73.4,22.1L77,21L76,17.6l-3.6,1.1L73.4,22.1z"/>
			<path class="st4" d="M80.3,20.9l-1-4.9l3.6-0.7c0.3-0.1,0.6,0,0.8,0.1s0.3,0.4,0.4,0.7l0.2,1.1c0.1,0.3,0,0.6-0.1,0.8
				c-0.1,0.2-0.3,0.3-0.7,0.4l-0.7,0.1l2.4,1.5l-1.1,0.2l-2.2-1.5l-1.3,0.3l0.4,1.9L80.3,20.9z M82.7,16l-2.6,0.5l0.3,1.7l2.6-0.5
				c0.2,0,0.3-0.1,0.4-0.2c0.1-0.1,0.1-0.2,0-0.4l-0.2-0.7c0-0.2-0.1-0.3-0.2-0.4S82.9,15.9,82.7,16z"/>
			<path class="st4" d="M90.4,14.9l-3.2,0.4l0.2,1.4l2.8-0.3c0.4,0,0.7,0,0.8,0.1s0.3,0.5,0.3,0.9l0.1,0.6c0.1,0.5,0,0.8-0.1,1
				c-0.1,0.2-0.4,0.3-0.8,0.3l-2.6,0.3c-0.4,0-0.7,0-0.9-0.1s-0.3-0.5-0.3-0.9l0-0.1l0.7-0.3l0.1,0.8l3.4-0.4L90.6,17l-2.8,0.3
				c-0.4,0-0.7,0-0.9-0.1s-0.3-0.5-0.3-0.9l-0.1-0.4c-0.1-0.4,0-0.8,0.1-0.9c0.1-0.2,0.4-0.3,0.8-0.3l2.4-0.3c0.4-0.1,0.7,0,0.9,0.1
				s0.3,0.4,0.3,0.8l0,0.1l-0.6,0.3L90.4,14.9z"/>
			<path class="st4" d="M97.4,18.8l0.1-5l3.7,0c0.3,0,0.6,0.1,0.7,0.2s0.2,0.4,0.2,0.7l0,0.6c0,0.3-0.1,0.5-0.2,0.6
				s-0.3,0.2-0.6,0.2c0.3,0,0.4,0.1,0.6,0.3c0.1,0.2,0.2,0.4,0.2,0.7l0,0.6c0,0.3-0.1,0.6-0.3,0.7s-0.5,0.2-0.9,0.2L97.4,18.8z
				 M101.3,17.6l0-0.4c0-0.2,0-0.4-0.1-0.5c-0.1-0.1-0.2-0.1-0.4-0.1l-2.6,0l0,1.6l2.6,0c0.2,0,0.3,0,0.4-0.1
				C101.3,18,101.3,17.8,101.3,17.6z M101.3,15.5l0-0.5c0-0.2,0-0.3-0.1-0.3s-0.2-0.1-0.4-0.1l-2.6,0l0,1.4l2.6,0
				c0.2,0,0.3,0,0.4-0.1S101.3,15.6,101.3,15.5z"/>
			<path class="st4" d="M104.3,19l0.5-5l4.4,0.4l-0.1,0.7l-3.6-0.3l-0.1,1.4l2.2,0.2l-0.1,0.7l-2.2-0.2l-0.2,1.6l3.6,0.3l-0.1,0.7
				L104.3,19z"/>
			<path class="st4" d="M114,20.3l1.1-4.9l4.3,0.9l-0.1,0.7l-3.5-0.8l-0.3,1.4l2.2,0.5l-0.1,0.6l-2.2-0.5l-0.3,1.5l3.6,0.8l-0.2,0.7
				L114,20.3z"/>
			<path class="st4" d="M121.7,22.2l-0.9-5.5l0.8,0.2l0.7,4.6l3.1-3.4l0.7,0.2l-3.7,4.1L121.7,22.2z"/>
			<path class="st4" d="M126.1,23.6l1.8-4.7l4.1,1.6l-0.2,0.6l-3.4-1.3l-0.5,1.3L130,22l-0.2,0.6l-2.1-0.8l-0.6,1.5l3.4,1.3
				l-0.2,0.6L126.1,23.6z"/>
			<path class="st4" d="M132,26l2.2-4.5l3.3,1.6c0.3,0.1,0.5,0.3,0.6,0.5s0,0.5-0.1,0.8l-0.5,1c-0.1,0.3-0.3,0.5-0.5,0.6
				s-0.5,0-0.8-0.1l-0.6-0.3l1,2.7l-1-0.5l-0.8-2.6l-1.2-0.6l-0.9,1.8L132,26z M136.9,23.6l-2.4-1.1l-0.8,1.6l2.4,1.1
				c0.2,0.1,0.3,0.1,0.4,0.1s0.2-0.1,0.3-0.3l0.3-0.7c0.1-0.2,0.1-0.3,0.1-0.4C137.2,23.7,137.1,23.6,136.9,23.6z"/>
			<path class="st4" d="M141.1,30.9l2.6-4.2l0.6,0.4l-2.6,4.2L141.1,30.9z"/>
			<path class="st4" d="M143.9,32.6l2.9-4.1l0.4,0.3l0.8,4.7c0,0.1,0,0.2,0,0.4s0,0.3,0,0.5c0.1-0.1,0.2-0.3,0.2-0.4
				c0.1-0.2,0.2-0.3,0.4-0.6l1.6-2.2l0.6,0.4l-2.9,4.1l-0.4-0.2l-0.8-4.9c0,0,0-0.1,0-0.1c0-0.2-0.1-0.5,0-0.6
				c-0.1,0.1-0.2,0.3-0.2,0.4s-0.2,0.3-0.3,0.5l-1.7,2.4L143.9,32.6z"/>
			<path class="st4" d="M153.5,40.3l1.5-1.6l0.2-3.6l0.7,0.6l-0.2,2.8l2.8-0.5l0.7,0.6l-3.6,0.5l-1.5,1.6L153.5,40.3z"/>
			<path class="st4" d="M159.4,40.7c0.3-0.3,0.6-0.5,0.8-0.5c0.2,0,0.5,0.2,0.8,0.5l2.1,2.3c0.3,0.3,0.4,0.6,0.4,0.8
				c0,0.2-0.2,0.5-0.5,0.8l-1.9,1.8c-0.3,0.3-0.6,0.5-0.8,0.5s-0.5-0.2-0.8-0.5l-2.1-2.3c-0.3-0.3-0.4-0.6-0.4-0.8s0.2-0.5,0.5-0.8
				L159.4,40.7z M157.7,43.3l2.6,2.8l2.7-2.5l-2.6-2.8L157.7,43.3z"/>
			<path class="st4" d="M166.2,46.5l-3.4,2.6l2,2.6l3.4-2.6l0.4,0.6l-3,2.3c-0.4,0.3-0.7,0.4-0.9,0.4s-0.5-0.2-0.7-0.5l-1.6-2.2
				c-0.2-0.3-0.4-0.6-0.3-0.8s0.2-0.5,0.6-0.7l3-2.3L166.2,46.5z"/>
			<path class="st4" d="M166.1,54.8l4.2-2.7l2,3.1c0.2,0.3,0.2,0.5,0.2,0.8s-0.2,0.4-0.5,0.6l-0.9,0.6c-0.3,0.2-0.5,0.2-0.7,0.2
				s-0.4-0.2-0.6-0.5l-0.4-0.6l-0.5,2.8l-0.6-1l0.7-2.6l-0.7-1.1l-1.6,1L166.1,54.8z M171.5,55.4l-1.4-2.2l-1.5,0.9l1.4,2.2
				c0.1,0.2,0.2,0.2,0.3,0.3s0.2,0,0.4-0.1l0.6-0.4c0.2-0.1,0.2-0.2,0.3-0.3C171.7,55.7,171.6,55.5,171.5,55.4z"/>
			<path class="st4" d="M171.2,63.8l4.5-2.1l1.8,3.9l-0.6,0.3l-1.5-3.2l-1.5,0.7l0.9,1.8l-0.6,0.3l-0.9-1.8l-1.8,0.9L171.2,63.8z"/>
			<path class="st4" d="M173,67.6l5.6,0.5l0.3,0.8l-3.8,4.2l-0.3-0.8l0.9-1l-1.1-2.9l-1.4-0.1L173,67.6z M175.4,68.5l0.9,2.3
				l1.9-2.1L175.4,68.5z"/>
			<path class="st4" d="M175.9,75.4l4.1-3.8l0.2,0.8l-3.4,3.2l4.6,0.6l0.2,0.7L176,76L175.9,75.4z"/>
			<path class="st4" d="M180.8,78.8c0.4-0.1,0.8-0.1,1,0c0.2,0.1,0.3,0.4,0.4,0.8l0.7,3.1c0.1,0.4,0.1,0.7-0.1,0.9s-0.4,0.3-0.9,0.4
				l-2.6,0.6c-0.4,0.1-0.8,0.1-1,0c-0.2-0.1-0.3-0.4-0.4-0.8l-0.7-3.1c-0.1-0.4-0.1-0.7,0.1-0.9s0.4-0.3,0.9-0.4L180.8,78.8z
				 M177.9,80.2l0.8,3.7l3.6-0.8l-0.8-3.7L177.9,80.2z"/>
			<path class="st4" d="M178.6,87.1l5-0.6l0.4,3.6c0,0.3,0,0.6-0.1,0.8c-0.1,0.2-0.4,0.3-0.7,0.3l-1.1,0.1c-0.3,0-0.6,0-0.8-0.1
				s-0.3-0.4-0.3-0.7l-0.1-0.7l-1.7,2.3l-0.1-1.1l1.7-2.1l-0.2-1.3l-1.9,0.2L178.6,87.1z M183.3,89.9l-0.3-2.6l-1.7,0.2l0.3,2.6
				c0,0.2,0.1,0.3,0.2,0.4c0.1,0.1,0.2,0.1,0.4,0.1l0.7-0.1c0.2,0,0.3-0.1,0.4-0.2C183.3,90.2,183.3,90.1,183.3,89.9z"/>
		</g>
		<path class="st8" d="M56.3,162.8"/>
		<g>
			<ellipse class="st4" cx="182.1" cy="107.1" rx="2.6" ry="2.6"/>
			<ellipse class="st4" cx="16.3" cy="107.1" rx="2.6" ry="2.6"/>
		</g>
		<polygon class="st4" points="128.8,181.8 127.8,181.6 128.8,178.6 129.6,178.8 		"/>
	</g>
</g>
<g id="apka">
	<circle class="st9" cx="99.2" cy="99.2" r="25.4"/>
	<path class="st9" d="M99.2,52.6c-25.8,0-46.6,20.9-46.6,46.6s20.9,46.6,46.6,46.6s46.6-20.9,46.6-46.6S125,52.6,99.2,52.6z
		 M99.2,136.8c-20.8,0-37.6-16.8-37.6-37.6s16.8-37.6,37.6-37.6s37.6,16.8,37.6,37.6C136.8,120,120,136.8,99.2,136.8z"/>
	<g>
		<g>
			
				<rect x="92.2" y="159.3" transform="matrix(9.309599e-02 -0.9957 0.9957 9.309599e-02 -75.3938 240.3605)" class="st9" width="4.1" height="4.6"/>
			<path class="st9" d="M99.2,31.5c-37.4,0-67.7,30.3-67.7,67.7c0,1,0,2,0.1,3c0.4,8.9,2.5,17.4,6,25.1C42.5,138,50,147.1,59.4,154
				c11.2,8.1,24.9,12.9,39.8,12.9c37.4,0,67.7-30.3,67.7-67.7S136.6,31.5,99.2,31.5z M87.8,158.8l-0.1,0.4c-0.1,0.3-0.2,0.5-0.3,0.6
				c-0.1,0.1-0.4,0.3-0.8,0.4l-4.2,1.2l3.6,1l0.2-0.9l1.1,0.6l-0.1,0.5c-0.1,0.5-0.3,0.8-0.5,0.9s-0.6,0.1-1.2,0l-5.2-1.4l0.2-0.6
				c0.1-0.3,0.2-0.5,0.3-0.6c0.2-0.1,0.4-0.2,0.7-0.3l5-1.5l0.2-0.8l-3.5-0.9l-0.3,1.3l-1.1-0.6l0.2-0.8c0.1-0.5,0.3-0.8,0.5-0.9
				s0.6-0.1,1.2,0l3.2,0.9c0.6,0.1,0.9,0.3,1.1,0.6C87.9,158,87.9,158.3,87.8,158.8z M98,160.3l-0.3,3.3c-0.1,0.6-0.2,1-0.4,1.1
				s-0.6,0.3-1.2,0.2l-4.3-0.4c-0.6-0.1-0.9-0.2-1.1-0.4s-0.2-0.6-0.2-1.2l0.3-3.3c0.1-0.6,0.2-1,0.4-1.1c0.2-0.2,0.6-0.3,1.2-0.2
				l4.3,0.4c0.6,0.1,0.9,0.2,1.1,0.4C98,159.3,98.1,159.7,98,160.3z M107.8,164.3c-0.2,0.2-0.6,0.3-1.1,0.4l-5.4,0.4l-0.1-0.6
				c0-0.3,0-0.5,0.1-0.7s0.3-0.4,0.6-0.6l4.2-3l-0.1-0.8l-3.6,0.3l0.1,1.3l-1.3-0.2l-0.1-0.8c0-0.5,0-0.8,0.2-1
				c0.2-0.2,0.6-0.3,1.1-0.4l3.3-0.3c0.6-0.1,1,0,1.2,0.2s0.3,0.5,0.4,0.9l0,0.4c0,0.3,0,0.5-0.1,0.7s-0.3,0.4-0.6,0.6l-3.6,2.6
				l3.7-0.3l-0.1-0.9l1.2,0.2l0,0.5C108,163.8,107.9,164.1,107.8,164.3z M117.9,162.1c-0.2,0.2-0.5,0.4-1.1,0.6l-3.6,0.9
				c-0.6,0.1-1,0.1-1.2,0c-0.2-0.1-0.4-0.4-0.5-0.9l-0.1-0.5l1.2-0.6l0.2,0.9l3.3-0.9c0.2-0.1,0.4-0.1,0.4-0.2s0.1-0.2,0-0.5
				l-0.1-0.4c-0.1-0.2-0.1-0.4-0.2-0.4s-0.3-0.1-0.5,0l-2.1,0.5l-0.2-1l1.9-0.5c0.2-0.1,0.4-0.1,0.4-0.2s0.1-0.2,0-0.5l-0.1-0.3
				c-0.1-0.2-0.1-0.4-0.2-0.4c-0.1-0.1-0.3-0.1-0.5,0l-3.1,0.8l0.2,0.8l-1.3,0.1l-0.1-0.4c-0.1-0.5-0.1-0.8,0.1-1s0.5-0.4,1.1-0.5
				l3.4-0.9c0.6-0.1,1-0.1,1.2,0s0.4,0.4,0.5,0.9l0.1,0.6c0.1,0.4,0.1,0.6-0.1,0.9s-0.4,0.4-0.8,0.6c0.5-0.1,0.9-0.1,1.2,0.1
				c0.3,0.1,0.5,0.4,0.6,0.8l0.2,0.6C118.1,161.4,118.1,161.8,117.9,162.1z M99.2,156.8c-10.6,0-20.5-2.8-29-7.8
				c-9-5.3-16.5-12.9-21.5-22.1c-4-7.3-6.5-15.6-7-24.5c-0.1-1.1-0.1-2.1-0.1-3.2c0-31.8,25.8-57.6,57.6-57.6
				c31.8,0,57.6,25.8,57.6,57.6S131,156.8,99.2,156.8z"/>
		</g>
	</g>
	<g>
		<path class="st4" d="M84.2,129.3v-7.7h6.6c0.6,0,1.1,0.1,1.3,0.3c0.3,0.2,0.4,0.6,0.4,1.1v1.7c0,0.5-0.1,0.9-0.4,1.1
			c-0.3,0.2-0.7,0.3-1.3,0.3h-4.8v3L84.2,129.3L84.2,129.3z M90,122.9h-4v2h4c0.3,0,0.5,0,0.6-0.1c0.1-0.1,0.2-0.2,0.2-0.5v-0.8
			c0-0.2-0.1-0.4-0.2-0.5C90.5,122.9,90.3,122.9,90,122.9z"/>
		<path class="st4" d="M96.9,129.3l-3-7.7h1.8l2,5.2l2.1-5.2h1.3l2.1,5.2l1.9-5.2h1.6l-3,7.7h-1.2l-2.1-5.3l-2.2,5.3H96.9z"/>
		<path class="st4" d="M107.9,129.3v-4.5h4.1c0.4,0,0.6,0.1,0.8,0.2s0.2,0.4,0.2,0.7v1.1c0,0.3-0.1,0.5-0.2,0.7s-0.4,0.2-0.8,0.2
			h-0.6l2.2,1.7H112l-1.9-1.7h-1v1.7L107.9,129.3L107.9,129.3z M111.6,125.5H109v1.2h2.5c0.2,0,0.3,0,0.4-0.1s0.1-0.2,0.1-0.3v-0.5
			c0-0.1,0-0.2-0.1-0.3C111.9,125.6,111.7,125.5,111.6,125.5z"/>
	</g>
	<g>
		<g>
			<g>
				<g>
					<path class="st10" d="M57.7,138.5l-3-7.4l-8,18.4l18.4-4.9l-6-4.4l-4.1,3.7c-0.2,0.2-1.2,0.4-3,1c0,0,1.1-2.6,1.3-2.8
						L57.7,138.5z"/>
					<path class="st10" d="M90.8,112.9l-29.8,26c-0.4,0.3-1,0.3-1.4-0.1l-0.2-0.2c-0.4-0.4-0.3-1,0.1-1.4L90.9,110"/>
					<path class="st10" d="M98.8,103.2L134.7,73c0.4-0.4,1.1-0.3,1.4,0.2l0,0c0.3,0.4,0.2,1-0.2,1.3l-33.8,28.6"/>
					<path class="st10" d="M152.4,58l4.3-3.4c0.4-0.4,1.1-0.3,1.4,0.2l0,0c0.3,0.4,0.2,1-0.2,1.3l-4,3.5c-0.3,0.2-0.6,0.4-0.9,0.3
						C151.9,59.8,151.9,58.4,152.4,58z"/>
				</g>
				<path class="st10" d="M144.6,70.5l0.8-0.7l4.5,1c1-0.6,2-1.3,3.1-2l-5-1.2l0.8-0.7l5.3,1.2c1-0.6,2-1.2,2.9-1.8l-5.8-1.4
					l0.8-0.7l6,1.4c2.3-1.5,4.1-2.6,4.2-2.7c0,0-10.3-2.3-10.3-2.3l-13.5,11.6l7.6,0.9c0.2-0.1,1.3-0.8,2.8-1.8L144.6,70.5z"/>
				<path class="st10" d="M139.9,65.2l0.8-0.7l-0.3-4.6c0.8-0.8,1.6-1.8,2.4-2.8l0.4,5.2l0.8-0.7l-0.3-5.4c0.8-0.9,1.5-1.8,2.3-2.6
					l0.4,5.9l0.8-0.7l-0.4-6.2c1.8-2.1,3.8-4.2,3.9-4.3c0,0,0,11.1,0,11.1l-13.5,11.5l0.3-7.6c0.1-0.2,1-1.1,2.2-2.5L139.9,65.2z"/>
			</g>
		</g>
	</g>
	<g>
		<path class="st4" d="M50,85.3c0-1.6,0.3-2.7,0.8-3.3s1.7-0.9,3.2-0.9h12.1c1.6,0,2.7,0.3,3.2,0.9s0.8,1.7,0.8,3.3v9.2
			c0,1.6-0.3,2.7-0.8,3.3c-0.6,0.6-1.6,0.9-3.2,0.9H54.1c-1.6,0-2.7-0.3-3.2-0.9c-0.6-0.6-0.8-1.7-0.8-3.3C50,94.6,50,85.3,50,85.3z
			 M52.9,96.3h14.5V83.6H52.9V96.3z"/>
		<path class="st4" d="M79.1,98.7V81.2h14.1c1.3,0,2.3,0.3,2.8,0.8c0.6,0.5,0.9,1.4,0.9,2.6v2c0,0.9-0.2,1.6-0.7,2.1
			c-0.5,0.5-1.2,0.8-2.2,0.9c1,0.1,1.7,0.5,2.2,1.1C96.8,91.2,97,92,97,93v2.2c0,1.2-0.4,2-1.2,2.6c-0.8,0.6-2,0.8-3.7,0.8
			L79.1,98.7L79.1,98.7z M93.9,86.8v-1.8c0-0.6-0.1-1-0.4-1.2s-0.7-0.3-1.4-0.3H82v4.8h10.1c0.7,0,1.1-0.1,1.4-0.3
			C93.8,87.8,93.9,87.4,93.9,86.8z M94.1,94.2v-1.5c0-0.8-0.1-1.3-0.4-1.7c-0.3-0.3-0.8-0.5-1.5-0.5H82v5.6h10.1
			c0.7,0,1.2-0.2,1.5-0.4C93.9,95.6,94.1,95,94.1,94.2z"/>
		<path class="st4" d="M125.1,85.5l0,9.1c0,1.6-0.3,2.7-0.8,3.3c-0.6,0.6-1.6,0.9-3.2,0.9h-12.1c-1.6,0-2.7-0.3-3.2-0.9
			c-0.6-0.6-0.8-1.7-0.8-3.3v-9.2c0-1.6,0.3-2.7,0.8-3.3s1.7-0.9,3.2-0.9h13.7c-1,0.8-2.9,2.4-2.9,2.4l-12,0v12.7h14.5l0.2-8.4
			 M112.7,79.4l3.5-5.8h2.9l-4.7,5.8H112.7z"/>
		<path class="st4" d="M131.7,98.7v-1.2l13-13.9h-11.8v-2.4h16.5v1l-13.2,14.1h13.2v2.4H131.7z"/>
		<path class="st4" d="M36.9,106.6h-6.9v2.3h6.6c1,0,1.7,0.2,2.1,0.5c0.4,0.3,0.5,1,0.5,2v1.4c0,1-0.2,1.6-0.5,2
			c-0.4,0.3-1.1,0.5-2.1,0.5H30c-1,0-1.7-0.2-2.1-0.5c-0.4-0.3-0.5-1-0.5-2v-0.3l2.2-0.4v1.2H37v-2.4h-6.6c-1,0-1.7-0.2-2.1-0.5
			s-0.5-1-0.5-2v-1.2c0-1,0.2-1.6,0.5-2s1-0.5,2.1-0.5h6c1,0,1.7,0.2,2.1,0.5s0.6,0.9,0.6,1.8v0.2l-2.2,0.5
			C36.9,107.8,36.9,106.6,36.9,106.6z"/>
		<path class="st4" d="M49.3,106.6v8.7h-2.5v-8.7H42v-1.9h12.2v1.9H49.3z"/>
		<path class="st4" d="M59.8,104.7v8.6h7v-8.6h2.4v8.1c0,1-0.2,1.6-0.5,2c-0.4,0.3-1.1,0.5-2.1,0.5H60c-1,0-1.7-0.2-2.1-0.5
			c-0.4-0.3-0.5-1-0.5-2v-8.1C57.3,104.7,59.8,104.7,59.8,104.7z"/>
		<path class="st4" d="M74.8,115.3v-10.6h5.9c1.7,0,3,0.4,3.9,1.4c0.9,0.9,1.4,2.2,1.4,3.9c0,1-0.2,1.9-0.5,2.7s-0.8,1.4-1.5,1.9
			c-0.4,0.3-0.9,0.5-1.5,0.6c-0.6,0.1-1.3,0.2-2.3,0.2L74.8,115.3L74.8,115.3z M76.9,113.3h2.8c1.5,0,2.5-0.3,3.1-0.8
			s0.9-1.4,0.9-2.6c0-1.1-0.2-1.9-0.8-2.5s-1.3-0.8-2.2-0.8H77L76.9,113.3L76.9,113.3z"/>
		<path class="st4" d="M92.3,115.3v-10.6h10.8v1.8h-8.4v2.4h4.9v1.8h-4.9v2.6h8.5v2L92.3,115.3L92.3,115.3z"/>
		<path class="st4" d="M107.9,115.3v-10.6h1.7l7.4,6.2c0.2,0.2,0.5,0.4,0.7,0.6c0.2,0.2,0.4,0.4,0.5,0.6c0-0.6-0.1-1-0.1-1.3
			s0-0.4,0-0.6v-5.6h2.2v10.6h-1.7l-7.8-6.5c-0.2-0.2-0.3-0.3-0.5-0.4s-0.3-0.3-0.4-0.4c0,0.3,0.1,0.6,0.1,0.9c0,0.3,0,0.5,0,0.8
			v5.7L107.9,115.3L107.9,115.3z"/>
		<path class="st4" d="M130.8,106.6v8.7h-2.5v-8.7h-4.8v-1.9h12.2v1.9H130.8z"/>
		<path class="st4" d="M138.6,107.2c0-1,0.2-1.6,0.5-2s1.1-0.5,2.1-0.5h7.8c1,0,1.7,0.2,2.1,0.5s0.5,1,0.5,2v5.6c0,1-0.2,1.6-0.5,2
			c-0.4,0.3-1.1,0.5-2.1,0.5h-7.8c-1,0-1.7-0.2-2.1-0.5s-0.5-1-0.5-2V107.2z M141,113.3h8.1v-6.7H141V113.3z M143.6,103.6l2-3.5h2.2
			l-2.9,3.5H143.6z"/>
		<path class="st4" d="M159.1,115.3l-4.1-10.6h2.5l2.7,7.1l2.8-7.1h1.7l2.9,7.1l2.6-7.1h2.2l-4.1,10.6h-1.7l-2.9-7.3l-2.9,7.3
			C160.8,115.3,159.1,115.3,159.1,115.3z"/>
	</g>
	<path class="st8" d="M56.3,162.8"/>
	<g>
		<ellipse class="st4" cx="181.7" cy="110" rx="2.6" ry="2.6"/>
		<ellipse class="st4" cx="15.9" cy="110" rx="2.6" ry="2.6"/>
	</g>
</g>
<g id="wlepa2" class="st0">
	<g class="st1">
		<circle class="st11" cx="99.2" cy="99.2" r="25.4"/>
		<path class="st11" d="M99.2,31.5c-37.4,0-67.7,30.3-67.7,67.7c0,1,0,2,0.1,3c0.4,8.9,2.5,17.4,6,25.1C42.5,138,50,147.1,59.4,154
			c11.2,8.1,24.9,12.9,39.8,12.9c37.4,0,67.7-30.3,67.7-67.7S136.6,31.5,99.2,31.5z M99.2,156.8c-10.6,0-20.5-2.8-29-7.8
			c-9-5.3-16.5-12.9-21.5-22.1c-4-7.3-6.5-15.6-7-24.5c-0.1-1.1-0.1-2.1-0.1-3.2c0-31.8,25.8-57.6,57.6-57.6s57.6,25.8,57.6,57.6
			C156.8,131,131,156.8,99.2,156.8z"/>
		<path class="st11" d="M99.2,52.6c-25.8,0-46.6,20.9-46.6,46.6s20.9,46.6,46.6,46.6s46.6-20.9,46.6-46.6S125,52.6,99.2,52.6z
			 M99.2,136.8c-20.8,0-37.6-16.8-37.6-37.6s16.8-37.6,37.6-37.6s37.6,16.8,37.6,37.6C136.8,120,120,136.8,99.2,136.8z"/>
		<g>
			<path class="st10" d="M84.2,129.3v-7.7h6.6c0.6,0,1.1,0.1,1.3,0.3c0.3,0.2,0.4,0.6,0.4,1.1v1.7c0,0.5-0.1,0.9-0.4,1.1
				c-0.3,0.2-0.7,0.3-1.3,0.3h-4.8v3L84.2,129.3L84.2,129.3z M90,122.9h-4v2h4c0.3,0,0.5,0,0.6-0.1c0.1-0.1,0.2-0.2,0.2-0.5v-0.8
				c0-0.2-0.1-0.4-0.2-0.5C90.5,122.9,90.3,122.9,90,122.9z"/>
			<path class="st10" d="M96.9,129.3l-3-7.7h1.8l2,5.2l2.1-5.2h1.3l2.1,5.2l1.9-5.2h1.6l-3,7.7h-1.2l-2.1-5.3l-2.2,5.3H96.9z"/>
			<path class="st10" d="M107.9,129.3v-4.5h4.1c0.4,0,0.6,0.1,0.8,0.2s0.2,0.4,0.2,0.7v1.1c0,0.3-0.1,0.5-0.2,0.7s-0.4,0.2-0.8,0.2
				h-0.6l2.2,1.7H112l-1.9-1.7h-1v1.7L107.9,129.3L107.9,129.3z M111.6,125.5H109v1.2h2.5c0.2,0,0.3,0,0.4-0.1s0.1-0.2,0.1-0.3v-0.5
				c0-0.1,0-0.2-0.1-0.3C111.9,125.6,111.7,125.5,111.6,125.5z"/>
		</g>
		<g>
			<g>
				<g>
					<g>
						<path class="st12" d="M57.7,138.5l-3-7.4l-8,18.4l18.4-4.9l-6-4.4l-4.1,3.7c-0.2,0.2-1.2,0.4-3,1c0,0,1.1-2.6,1.3-2.8
							L57.7,138.5z"/>
						<path class="st12" d="M90.8,112.9l-29.8,26c-0.4,0.3-1,0.3-1.4-0.1l-0.2-0.2c-0.4-0.4-0.3-1,0.1-1.4L90.9,110"/>
						<path class="st12" d="M98.8,103.2L134.7,73c0.4-0.4,1.1-0.3,1.4,0.2l0,0c0.3,0.4,0.2,1-0.2,1.3l-33.8,28.6"/>
						<path class="st12" d="M152.4,58l4.3-3.4c0.4-0.4,1.1-0.3,1.4,0.2l0,0c0.3,0.4,0.2,1-0.2,1.3l-4,3.5c-0.3,0.2-0.6,0.4-0.9,0.3
							C151.9,59.8,151.9,58.4,152.4,58z"/>
					</g>
					<path class="st12" d="M144.6,70.5l0.8-0.7l4.5,1c1-0.6,2-1.3,3.1-2l-5-1.2l0.8-0.7l5.3,1.2c1-0.6,2-1.2,2.9-1.8l-5.8-1.4
						l0.8-0.7l6,1.4c2.3-1.5,4.1-2.6,4.2-2.7c0,0-10.3-2.3-10.3-2.3l-13.5,11.6l7.6,0.9c0.2-0.1,1.3-0.8,2.8-1.8L144.6,70.5z"/>
					<path class="st12" d="M139.9,65.2l0.8-0.7l-0.3-4.6c0.8-0.8,1.6-1.8,2.4-2.8l0.4,5.2l0.8-0.7l-0.3-5.4c0.8-0.9,1.5-1.8,2.3-2.6
						l0.4,5.9l0.8-0.7l-0.4-6.2c1.8-2.1,3.8-4.2,3.9-4.3c0,0,0,11.1,0,11.1l-13.5,11.5l0.3-7.6c0.1-0.2,1-1.1,2.2-2.5L139.9,65.2z"
						/>
				</g>
			</g>
		</g>
		<g>
			<path class="st10" d="M50,85.3c0-1.6,0.3-2.7,0.8-3.3s1.7-0.9,3.2-0.9h12.1c1.6,0,2.7,0.3,3.2,0.9s0.8,1.7,0.8,3.3v9.2
				c0,1.6-0.3,2.7-0.8,3.3c-0.6,0.6-1.6,0.9-3.2,0.9H54.1c-1.6,0-2.7-0.3-3.2-0.9c-0.6-0.6-0.8-1.7-0.8-3.3C50,94.6,50,85.3,50,85.3
				z M52.9,96.3h14.5V83.6H52.9V96.3z"/>
			<path class="st10" d="M79.1,98.7V81.2h14.1c1.3,0,2.3,0.3,2.8,0.8c0.6,0.5,0.9,1.4,0.9,2.6v2c0,0.9-0.2,1.6-0.7,2.1
				c-0.5,0.5-1.2,0.8-2.2,0.9c1,0.1,1.7,0.5,2.2,1.1C96.8,91.2,97,92,97,93v2.2c0,1.2-0.4,2-1.2,2.6c-0.8,0.6-2,0.8-3.7,0.8
				L79.1,98.7L79.1,98.7z M93.9,86.8v-1.8c0-0.6-0.1-1-0.4-1.2s-0.7-0.3-1.4-0.3H82v4.8h10.1c0.7,0,1.1-0.1,1.4-0.3
				C93.8,87.8,93.9,87.4,93.9,86.8z M94.1,94.2v-1.5c0-0.8-0.1-1.3-0.4-1.7c-0.3-0.3-0.8-0.5-1.5-0.5H82v5.6h10.1
				c0.7,0,1.2-0.2,1.5-0.4C93.9,95.6,94.1,95,94.1,94.2z"/>
			<path class="st10" d="M125.1,85.5l0,9.1c0,1.6-0.3,2.7-0.8,3.3c-0.6,0.6-1.6,0.9-3.2,0.9h-12.1c-1.6,0-2.7-0.3-3.2-0.9
				c-0.6-0.6-0.8-1.7-0.8-3.3v-9.2c0-1.6,0.3-2.7,0.8-3.3s1.7-0.9,3.2-0.9h13.7c-1,0.8-2.9,2.4-2.9,2.4l-12,0v12.7h14.5l0.2-8.4
				 M112.7,79.4l3.5-5.8h2.9l-4.7,5.8H112.7z"/>
			<path class="st10" d="M131.7,98.7v-1.2l13-13.9h-11.8v-2.4h16.5v1l-13.2,14.1h13.2v2.4H131.7z"/>
			<path class="st10" d="M36.9,106.6h-6.9v2.3h6.6c1,0,1.7,0.2,2.1,0.5c0.4,0.3,0.5,1,0.5,2v1.4c0,1-0.2,1.6-0.5,2
				c-0.4,0.3-1.1,0.5-2.1,0.5H30c-1,0-1.7-0.2-2.1-0.5c-0.4-0.3-0.5-1-0.5-2v-0.3l2.2-0.4v1.2H37v-2.4h-6.6c-1,0-1.7-0.2-2.1-0.5
				s-0.5-1-0.5-2v-1.2c0-1,0.2-1.6,0.5-2s1-0.5,2.1-0.5h6c1,0,1.7,0.2,2.1,0.5s0.6,0.9,0.6,1.8v0.2l-2.2,0.5
				C36.9,107.8,36.9,106.6,36.9,106.6z"/>
			<path class="st10" d="M49.3,106.6v8.7h-2.5v-8.7H42v-1.9h12.2v1.9H49.3z"/>
			<path class="st10" d="M59.8,104.7v8.6h7v-8.6h2.4v8.1c0,1-0.2,1.6-0.5,2c-0.4,0.3-1.1,0.5-2.1,0.5H60c-1,0-1.7-0.2-2.1-0.5
				c-0.4-0.3-0.5-1-0.5-2v-8.1C57.3,104.7,59.8,104.7,59.8,104.7z"/>
			<path class="st10" d="M74.8,115.3v-10.6h5.9c1.7,0,3,0.4,3.9,1.4c0.9,0.9,1.4,2.2,1.4,3.9c0,1-0.2,1.9-0.5,2.7s-0.8,1.4-1.5,1.9
				c-0.4,0.3-0.9,0.5-1.5,0.6c-0.6,0.1-1.3,0.2-2.3,0.2L74.8,115.3L74.8,115.3z M76.9,113.3h2.8c1.5,0,2.5-0.3,3.1-0.8
				s0.9-1.4,0.9-2.6c0-1.1-0.2-1.9-0.8-2.5s-1.3-0.8-2.2-0.8H77L76.9,113.3L76.9,113.3z"/>
			<path class="st10" d="M92.3,115.3v-10.6h10.8v1.8h-8.4v2.4h4.9v1.8h-4.9v2.6h8.5v2L92.3,115.3L92.3,115.3z"/>
			<path class="st10" d="M107.9,115.3v-10.6h1.7l7.4,6.2c0.2,0.2,0.5,0.4,0.7,0.6c0.2,0.2,0.4,0.4,0.5,0.6c0-0.6-0.1-1-0.1-1.3
				s0-0.4,0-0.6v-5.6h2.2v10.6h-1.7l-7.8-6.5c-0.2-0.2-0.3-0.3-0.5-0.4s-0.3-0.3-0.4-0.4c0,0.3,0.1,0.6,0.1,0.9c0,0.3,0,0.5,0,0.8
				v5.7L107.9,115.3L107.9,115.3z"/>
			<path class="st10" d="M130.8,106.6v8.7h-2.5v-8.7h-4.8v-1.9h12.2v1.9H130.8z"/>
			<path class="st10" d="M138.6,107.2c0-1,0.2-1.6,0.5-2s1.1-0.5,2.1-0.5h7.8c1,0,1.7,0.2,2.1,0.5s0.5,1,0.5,2v5.6
				c0,1-0.2,1.6-0.5,2c-0.4,0.3-1.1,0.5-2.1,0.5h-7.8c-1,0-1.7-0.2-2.1-0.5s-0.5-1-0.5-2V107.2z M141,113.3h8.1v-6.7H141V113.3z
				 M143.6,103.6l2-3.5h2.2l-2.9,3.5H143.6z"/>
			<path class="st10" d="M159.1,115.3l-4.1-10.6h2.5l2.7,7.1l2.8-7.1h1.7l2.9,7.1l2.6-7.1h2.2l-4.1,10.6h-1.7l-2.9-7.3l-2.9,7.3
				C160.8,115.3,159.1,115.3,159.1,115.3z"/>
		</g>
		<path class="st8" d="M56.3,162.8"/>
		<g>
			<ellipse class="st10" cx="182.1" cy="109.7" rx="2.6" ry="2.6"/>
			<ellipse class="st10" cx="16.3" cy="109.7" rx="2.6" ry="2.6"/>
		</g>
	</g>
</g>
</svg>
