<?xml version="1.0" encoding="utf-8"?>
<!-- Generator: Adobe Illustrator 25.0.0, SVG Export Plug-In . SVG Version: 6.00 Build 0)  -->
<svg version="1.1" xmlns="http://www.w3.org/2000/svg" xmlns:xlink="http://www.w3.org/1999/xlink" x="0px" y="0px"
	 viewBox="0 0 198.43 198.43" style="enable-background:new 0 0 198.43 198.43;" xml:space="preserve">
<style type="text/css">
	.Dodaj_x0020_cień{fill:none;}
	.Blask_x0020_zewnętrzny_x0020__x0028_5_x0020_pkt_x002E__x0029_{fill:none;}
	.Jive_GS{fill:#90CADD;}
	.st0{display:none;}
	.st1{display:inline;}
	.st2{fill:#333333;}
	.st3{fill:#4E4D4D;}
	.st4{fill:#FFFFFF;}
	.st5{fill:#F7A813;}
	.st6{fill:none;}
	.st7{fill:#333333;stroke:#333333;stroke-width:0.75;stroke-miterlimit:10;}
	.st8{fill:#37BFF0;}
	.st9{opacity:0.29;fill:#2F3030;}
	.st10{fill:#601F10;}
	.st11{fill:#DC7D28;}
	.st12{fill:#010202;}
</style>
<g id="wlepa1" class="st0">
	<g class="st1">
		<circle class="st2" cx="99.21" cy="99.21" r="99.11"/>
		<circle class="st3" cx="99.21" cy="99.21" r="25.42"/>
		<path class="st3" d="M99.21,31.54c-37.38,0-67.68,30.3-67.68,67.68c0,1.02,0.02,2.03,0.07,3.03c0.39,8.91,2.51,17.37,6.02,25.06
			c4.87,10.66,12.42,19.83,21.79,26.65c11.17,8.14,24.93,12.94,39.8,12.94c37.38,0,67.68-30.3,67.68-67.68
			C166.89,61.84,136.59,31.54,99.21,31.54z M99.21,156.78c-10.56,0-20.46-2.84-28.96-7.81c-9.03-5.26-16.49-12.92-21.53-22.09
			c-4.03-7.33-6.5-15.64-6.99-24.47c-0.06-1.06-0.09-2.13-0.09-3.21c0-31.8,25.78-57.57,57.57-57.57s57.57,25.78,57.57,57.57
			C156.78,131.01,131.01,156.78,99.21,156.78z"/>
		<path class="st3" d="M99.21,52.58c-25.75,0-46.63,20.88-46.63,46.63c0,25.75,20.88,46.63,46.63,46.63s46.63-20.88,46.63-46.63
			C145.84,73.46,124.97,52.58,99.21,52.58z M99.21,136.84c-20.76,0-37.59-16.83-37.59-37.59c0-20.76,16.83-37.59,37.59-37.59
			c20.76,0,37.59,16.83,37.59,37.59C136.81,120.01,119.97,136.84,99.21,136.84z"/>
		<g>
			<path class="st4" d="M84.17,129.28v-7.72h6.6c0.61,0,1.06,0.12,1.33,0.35c0.27,0.24,0.41,0.62,0.41,1.14v1.72
				c0,0.52-0.14,0.9-0.41,1.13c-0.28,0.24-0.72,0.35-1.33,0.35h-4.83v3.01H84.17z M89.98,122.9h-4.04v2.04h4.04
				c0.31,0,0.52-0.04,0.64-0.13c0.11-0.09,0.17-0.25,0.17-0.48v-0.83c0-0.22-0.06-0.38-0.17-0.47
				C90.5,122.95,90.29,122.9,89.98,122.9z"/>
			<path class="st4" d="M96.89,129.28l-2.97-7.72h1.85l1.96,5.18l2.05-5.18h1.26l2.09,5.18l1.87-5.18h1.61l-2.98,7.72h-1.21
				l-2.12-5.34l-2.15,5.34H96.89z"/>
			<path class="st4" d="M107.94,129.28v-4.53h4.08c0.37,0,0.64,0.07,0.81,0.21c0.17,0.14,0.25,0.36,0.25,0.67v1.07
				c0,0.31-0.08,0.53-0.25,0.66s-0.44,0.2-0.81,0.2h-0.62l2.15,1.71h-1.58l-1.9-1.71h-1.04v1.71H107.94z M111.55,125.54h-2.52v1.25
				h2.52c0.19,0,0.32-0.03,0.39-0.08s0.11-0.15,0.11-0.28v-0.52c0-0.13-0.04-0.23-0.11-0.28
				C111.87,125.56,111.74,125.54,111.55,125.54z"/>
		</g>
		<g>
			<g>
				<g>
					<path class="st5" d="M57.69,138.48l-3.01-7.44l-7.96,18.41l18.43-4.95l-6-4.36l-4.09,3.68c-0.2,0.18-1.15,0.44-2.97,0.96
						c0,0,1.13-2.63,1.33-2.79L57.69,138.48z"/>
					<path class="st5" d="M90.83,112.9l-29.76,25.97c-0.4,0.34-1.01,0.3-1.36-0.1l-0.17-0.19c-0.36-0.41-0.32-1.03,0.1-1.38
						l31.29-27.17"/>
					<path class="st5" d="M98.84,103.2l35.83-30.15c0.43-0.37,1.09-0.28,1.42,0.19l0,0c0.29,0.41,0.22,0.97-0.16,1.3l-33.78,28.61"
						/>
					<path class="st5" d="M152.39,57.99l4.31-3.37c0.43-0.37,1.09-0.28,1.42,0.19l0,0c0.29,0.41,0.22,0.97-0.16,1.3l-4.03,3.47
						c-0.26,0.23-0.6,0.36-0.95,0.32C151.89,59.77,151.94,58.37,152.39,57.99z"/>
				</g>
				<path class="st5" d="M144.56,70.52l0.79-0.66l4.51,1.02c0.96-0.6,2.03-1.27,3.12-1.96l-5.03-1.19l0.79-0.66l5.28,1.19
					c0.99-0.62,1.98-1.24,2.91-1.82l-5.76-1.37l0.79-0.66l6.02,1.36c2.34-1.46,4.12-2.57,4.25-2.65c-0.01,0-10.3-2.3-10.3-2.3
					L138.4,72.38l7.59,0.93c0.17-0.1,1.28-0.8,2.84-1.78L144.56,70.52z"/>
				<path class="st5" d="M139.94,65.15l0.77-0.68l-0.29-4.62c0.75-0.85,1.57-1.8,2.43-2.77l0.38,5.15l0.77-0.68l-0.34-5.4
					c0.77-0.88,1.54-1.76,2.26-2.59l0.43,5.91l0.77-0.68l-0.39-6.16c1.82-2.08,3.83-4.23,3.92-4.35c0,0.01,0,11.11,0,11.11
					l-13.53,11.55l0.28-7.64c0.13-0.15,0.99-1.14,2.21-2.53L139.94,65.15z"/>
			</g>
		</g>
		<g>
			<path class="st4" d="M49.95,85.35c0-1.59,0.28-2.68,0.85-3.26c0.57-0.58,1.65-0.88,3.25-0.88h12.1c1.58,0,2.65,0.29,3.22,0.87
				c0.57,0.58,0.85,1.67,0.85,3.27v9.22c0,1.61-0.28,2.7-0.85,3.28c-0.57,0.57-1.64,0.86-3.22,0.86h-12.1
				c-1.6,0-2.68-0.29-3.25-0.88c-0.57-0.58-0.85-1.67-0.85-3.26V85.35z M52.87,96.27h14.48V83.6H52.87V96.27z"/>
			<path class="st4" d="M79.1,98.71V81.21h14.1c1.31,0,2.26,0.27,2.84,0.8c0.58,0.54,0.87,1.4,0.87,2.59v2.04
				c0,0.94-0.23,1.64-0.7,2.1c-0.47,0.46-1.21,0.76-2.21,0.88c0.98,0.12,1.73,0.47,2.24,1.05c0.51,0.58,0.77,1.37,0.77,2.37v2.23
				c0,1.16-0.4,2.02-1.2,2.58c-0.8,0.56-2.02,0.84-3.65,0.84H79.1z M93.91,86.84v-1.75c0-0.57-0.12-0.97-0.37-1.19
				c-0.25-0.22-0.72-0.33-1.41-0.33h-10.1v4.83h10.1c0.67,0,1.14-0.12,1.4-0.35C93.78,87.82,93.91,87.41,93.91,86.84z M94.06,94.24
				v-1.46c0-0.79-0.14-1.34-0.42-1.65c-0.28-0.3-0.79-0.46-1.51-0.46h-10.1v5.63h10.1c0.74,0,1.25-0.15,1.52-0.45
				C93.92,95.56,94.06,95.02,94.06,94.24z"/>
			<path class="st4" d="M125.12,85.52l-0.02,9.05c0,1.61-0.28,2.7-0.85,3.28c-0.57,0.57-1.64,0.86-3.22,0.86h-12.1
				c-1.6,0-2.68-0.29-3.25-0.88c-0.57-0.58-0.85-1.67-0.85-3.26v-9.22c0-1.59,0.28-2.68,0.85-3.26c0.57-0.58,1.65-0.88,3.25-0.88
				h13.65c-1,0.84-2.89,2.39-2.86,2.36l-11.97,0.02v12.68h14.48l0.21-8.36 M112.72,79.36l3.46-5.76h2.95l-4.65,5.76H112.72z"/>
			<path class="st4" d="M131.67,98.71v-1.19l12.96-13.92H132.8v-2.38h16.5v0.99l-13.19,14.07h13.19v2.43H131.67z"/>
			<path class="st4" d="M36.87,106.58h-6.93v2.27h6.6c1.03,0,1.73,0.18,2.1,0.53c0.36,0.35,0.55,1.01,0.55,1.97v1.45
				c0,0.96-0.18,1.62-0.55,1.97c-0.36,0.35-1.06,0.53-2.1,0.53H30c-1.03,0-1.73-0.18-2.1-0.53c-0.36-0.35-0.55-1.01-0.55-1.97v-0.29
				l2.17-0.45v1.25h7.48v-2.41h-6.6c-1.03,0-1.72-0.18-2.08-0.53c-0.36-0.35-0.54-1.01-0.54-1.97v-1.17c0-0.96,0.18-1.62,0.54-1.97
				c0.36-0.35,1.05-0.53,2.08-0.53h6.01c0.99,0,1.68,0.17,2.06,0.51s0.57,0.94,0.57,1.81v0.22l-2.17,0.51V106.58z"/>
			<path class="st4" d="M49.33,106.62v8.69h-2.46v-8.69h-4.85v-1.89h12.19v1.89H49.33z"/>
			<path class="st4" d="M59.81,104.73v8.59h7.02v-8.59h2.45v8.08c0,0.97-0.18,1.63-0.54,1.98c-0.36,0.35-1.05,0.53-2.08,0.53h-6.69
				c-1.02,0-1.71-0.18-2.08-0.53c-0.36-0.35-0.55-1.01-0.55-1.98v-8.08H59.81z"/>
			<path class="st4" d="M74.81,115.31v-10.58h5.9c1.68,0,2.98,0.45,3.88,1.36c0.9,0.91,1.36,2.2,1.36,3.86
				c0,0.99-0.18,1.88-0.53,2.67c-0.35,0.79-0.85,1.41-1.49,1.87c-0.4,0.29-0.89,0.5-1.49,0.63c-0.59,0.13-1.35,0.2-2.28,0.2H74.81z
				 M76.95,113.32h2.76c1.47,0,2.51-0.26,3.12-0.79c0.61-0.53,0.92-1.4,0.92-2.61c0-1.08-0.25-1.9-0.76-2.46
				c-0.51-0.56-1.26-0.84-2.25-0.84h-3.78V113.32z"/>
			<path class="st4" d="M92.31,115.31v-10.58h10.83v1.8h-8.37v2.36h4.88v1.8h-4.88v2.62h8.47v1.99H92.31z"/>
			<path class="st4" d="M107.88,115.31v-10.58h1.68l7.45,6.24c0.25,0.21,0.48,0.4,0.67,0.59c0.19,0.18,0.37,0.37,0.53,0.57
				c-0.04-0.59-0.07-1.01-0.08-1.26c-0.01-0.25-0.02-0.44-0.02-0.57v-5.56h2.21v10.58h-1.68l-7.77-6.54
				c-0.19-0.17-0.35-0.32-0.49-0.45c-0.14-0.13-0.27-0.27-0.39-0.41c0.03,0.33,0.06,0.64,0.08,0.93c0.02,0.29,0.03,0.54,0.03,0.76
				v5.72H107.88z"/>
			<path class="st4" d="M130.77,106.62v8.69h-2.46v-8.69h-4.85v-1.89h12.19v1.89H130.77z"/>
			<path class="st4" d="M138.56,107.23c0-0.96,0.18-1.62,0.54-1.97c0.36-0.35,1.05-0.53,2.08-0.53h7.79c1.03,0,1.72,0.18,2.08,0.53
				c0.36,0.35,0.54,1.01,0.54,1.97v5.58c0,0.97-0.18,1.63-0.54,1.98c-0.36,0.35-1.05,0.53-2.08,0.53h-7.79
				c-1.03,0-1.72-0.18-2.08-0.53c-0.36-0.35-0.54-1.01-0.54-1.98V107.23z M141.02,113.32h8.12v-6.7h-8.12V113.32z M143.61,103.61
				l2.04-3.46h2.22l-2.95,3.46H143.61z"/>
			<path class="st4" d="M159.08,115.31L155,104.73h2.54l2.68,7.1l2.81-7.1h1.72l2.86,7.1l2.56-7.1h2.2l-4.08,10.58h-1.66l-2.91-7.32
				l-2.95,7.32H159.08z"/>
		</g>
		<g>
			<path class="st6" d="M181.67,106.99c0,43.03-39.81,78.83-85.3,77.79c-44.2-1-80.06-34.88-80.06-77.91"/>
			<path class="st4" d="M20.67,132.18l5.74-2.11l0.48,1.3l-5.74,2.11L20.67,132.18z"/>
			<path class="st4" d="M29.5,139.85l-1.91-3.88l-3.47,1.71l1.91,3.88l1.22-0.6l-1-2.03l0.93-0.46l1.6,3.24l-1.89,0.93
				c-0.5,0.25-0.89,0.33-1.16,0.23c-0.27-0.09-0.53-0.4-0.79-0.92l-1.81-3.68c-0.26-0.52-0.34-0.91-0.25-1.18
				c0.09-0.27,0.39-0.53,0.89-0.78l2.89-1.42c0.5-0.25,0.88-0.32,1.16-0.23s0.54,0.4,0.79,0.92l1.81,3.68
				c0.25,0.51,0.33,0.9,0.25,1.18c-0.09,0.27-0.37,0.53-0.84,0.76l-0.12,0.06l-0.82-1.1L29.5,139.85z"/>
			<path class="st4" d="M27.55,146.59l5.06-3.43l2.85,4.21c0.27,0.39,0.38,0.73,0.34,1.01c-0.04,0.28-0.23,0.54-0.57,0.77l-1.19,0.8
				c-0.34,0.23-0.65,0.31-0.93,0.24s-0.55-0.3-0.81-0.69l-0.44-0.64l-0.37,3.57l-1.11-1.64l0.57-3.28l-0.74-1.09l-1.91,1.29
				L27.55,146.59z M34.25,147.46l-1.75-2.58l-1.41,0.95l1.75,2.58c0.13,0.2,0.26,0.32,0.36,0.35c0.11,0.03,0.24,0,0.39-0.1
				l0.61-0.41c0.15-0.1,0.23-0.21,0.23-0.32S34.38,147.66,34.25,147.46z"/>
			<path class="st4" d="M32.91,154.17l0.5-0.44l6.02,0.28l-2.46-2.82l0.82-0.72l3.92,4.5l-0.46,0.4l-6.06-0.32l2.77,3.18l-0.87,0.76
				L32.91,154.17z"/>
			<path class="st4" d="M40.51,162.3l1.86-2.01l0.02-4.58l1.36,1.25l-0.09,3.11l3.1-0.33l1.2,1.1l-4.53,0.37l-1.88,2.04L40.51,162.3
				z"/>
			<path class="st4" d="M52.84,165.81l-3.15-2.3l-0.77,1.06l3,2.19c0.47,0.34,0.73,0.66,0.77,0.94s-0.1,0.65-0.42,1.1l-0.49,0.68
				c-0.33,0.45-0.63,0.7-0.92,0.74s-0.66-0.1-1.13-0.45l-2.97-2.17c-0.47-0.34-0.73-0.66-0.77-0.94c-0.04-0.29,0.1-0.65,0.42-1.1
				l0.1-0.14l1.14,0.51l-0.43,0.58l3.4,2.48l0.82-1.13l-3-2.19c-0.47-0.34-0.72-0.65-0.77-0.94c-0.04-0.29,0.1-0.65,0.43-1.1
				l0.4-0.55c0.33-0.45,0.63-0.7,0.92-0.74s0.66,0.1,1.13,0.44l2.73,1.99c0.45,0.33,0.71,0.64,0.76,0.92
				c0.06,0.28-0.06,0.63-0.36,1.03l-0.07,0.1l-1.16-0.48L52.84,165.81z"/>
			<path class="st4" d="M54.1,172.67l2.97-5.35l1.22,0.68l-1.24,2.23l4.12-0.63l1.75,0.97l-4.84,0.6l2.3,4.98l-1.94-1.08l-1.81-4.08
				l-1.31,2.35L54.1,172.67z"/>
			<path class="st4" d="M61.5,176.69l5.46-4.35l1.23,0.51l0.8,6.96l-1.43-0.6l-0.15-1.51l-3.48-1.45l-1.15,0.97L61.5,176.69z
				 M64.89,175.46l2.41,1l-0.23-2.79L64.89,175.46z"/>
			<path class="st4" d="M76.44,182.09l1.31-5.97l3.74,0.82c1.07,0.23,1.83,0.67,2.29,1.31c0.46,0.64,0.59,1.43,0.38,2.37
				c-0.12,0.56-0.34,1.04-0.67,1.43s-0.71,0.68-1.18,0.85c-0.29,0.11-0.63,0.16-1.02,0.15c-0.39-0.01-0.88-0.08-1.47-0.21
				L76.44,182.09z M78.04,181.26l1.75,0.38c0.93,0.2,1.62,0.2,2.08-0.01c0.45-0.21,0.76-0.66,0.91-1.35
				c0.13-0.61,0.07-1.11-0.18-1.49c-0.25-0.38-0.7-0.65-1.33-0.78l-2.4-0.53L78.04,181.26z"/>
			<path class="st4" d="M86.02,184l0.07-0.66l4.59-3.9l-3.72-0.39l0.11-1.09l5.94,0.62l-0.06,0.6l-4.65,3.89l4.2,0.44l-0.12,1.14
				L86.02,184z"/>
			<path class="st4" d="M95.26,184.75l0.23-6.11l1.38,0.05l-0.23,6.11L95.26,184.75z"/>
			<path class="st4" d="M100.4,184.83l-0.36-6.1l6.08-0.35l0.06,1.04l-4.7,0.27l0.08,1.36l2.74-0.16l0.06,1.04l-2.74,0.16l0.09,1.51
				l4.75-0.28l0.07,1.15L100.4,184.83z"/>
			<path class="st4" d="M114.11,178.2l-3.84,0.68l0.23,1.29l3.65-0.64c0.57-0.1,0.98-0.07,1.21,0.1c0.24,0.17,0.4,0.52,0.5,1.07
				l0.15,0.83c0.1,0.55,0.06,0.94-0.1,1.18c-0.17,0.24-0.54,0.41-1.11,0.51l-3.62,0.64c-0.57,0.1-0.98,0.07-1.21-0.1
				c-0.24-0.17-0.4-0.52-0.5-1.07l-0.03-0.17l1.16-0.47l0.13,0.71l4.14-0.73l-0.24-1.37l-3.65,0.64c-0.57,0.1-0.97,0.07-1.21-0.1
				c-0.23-0.17-0.4-0.52-0.5-1.07l-0.12-0.67c-0.1-0.55-0.06-0.94,0.1-1.18c0.16-0.24,0.53-0.4,1.1-0.5l3.33-0.59
				c0.55-0.1,0.95-0.07,1.19,0.09c0.24,0.16,0.41,0.48,0.5,0.98l0.02,0.13l-1.15,0.5L114.11,178.2z"/>
			<path class="st4" d="M119.73,182.06l-1.59-5.91l1.34-0.36l1.59,5.91L119.73,182.06z"/>
			<path class="st4" d="M124.65,180.67l-2.08-5.75l5.73-2.07l0.35,0.98l-4.43,1.6l0.46,1.28l2.58-0.93l0.35,0.98l-2.58,0.93
				l0.51,1.42l4.48-1.62l0.39,1.08L124.65,180.67z"/>
			<path class="st4" d="M135.79,170.52l-3.35,1.66l1.72,3.47l3.35-1.66l-0.58-1.18l1.37-0.35l0.32,0.65
				c0.25,0.5,0.33,0.89,0.23,1.16c-0.09,0.27-0.4,0.54-0.91,0.79l-3.18,1.58c-0.52,0.26-0.91,0.34-1.18,0.25s-0.53-0.39-0.78-0.89
				l-1.43-2.89c-0.25-0.5-0.32-0.88-0.23-1.16c0.09-0.27,0.4-0.54,0.91-0.79l3.18-1.58c0.51-0.25,0.91-0.34,1.18-0.24
				c0.27,0.09,0.53,0.39,0.78,0.88l0.26,0.52l-1.14,0.82L135.79,170.52z"/>
			<path class="st4" d="M142.31,172.61l-3.17-5.23l1.18-0.72l3.17,5.23L142.31,172.61z"/>
			<path class="st4" d="M143.81,166.22c-0.33-0.45-0.48-0.81-0.44-1.1c0.04-0.28,0.29-0.6,0.76-0.94l3.52-2.61
				c0.46-0.34,0.84-0.5,1.12-0.45c0.28,0.04,0.59,0.29,0.92,0.73l1.92,2.59c0.33,0.45,0.48,0.82,0.44,1.1
				c-0.04,0.28-0.29,0.6-0.76,0.94l-3.52,2.61c-0.46,0.34-0.84,0.5-1.12,0.45s-0.59-0.29-0.92-0.74L143.81,166.22z M147.02,168.22
				l3.67-2.72l-2.31-3.11l-3.67,2.72L147.02,168.22z"/>
			<path class="st4" d="M155.32,163.14l-4.18-4.46l1.01-0.95l3.4,3.62l3.26-3.05l0.79,0.84L155.32,163.14z"/>
			<path class="st4" d="M161.52,157.08l-4.64-3.98l3.96-4.63l0.79,0.68l-3.06,3.58l1.04,0.89l1.79-2.09l0.79,0.68l-1.79,2.09
				l1.15,0.99l3.1-3.62l0.88,0.75L161.52,157.08z"/>
			<path class="st4" d="M166.15,142.73l-2.06,3.11l3.22,2.14l2.07-3.11l-1.09-0.73l1.01-0.99l0.6,0.4c0.47,0.31,0.73,0.61,0.78,0.89
				c0.06,0.28-0.08,0.66-0.39,1.14l-1.96,2.96c-0.32,0.48-0.62,0.75-0.9,0.81c-0.28,0.06-0.65-0.07-1.12-0.38l-2.68-1.78
				c-0.46-0.31-0.72-0.6-0.78-0.88c-0.06-0.28,0.07-0.66,0.39-1.14l1.97-2.96c0.32-0.48,0.62-0.75,0.9-0.8s0.66,0.07,1.12,0.38
				l0.48,0.32l-0.58,1.28L166.15,142.73z"/>
			<path class="st4" d="M172.83,141.21l-5.4-2.87l0.65-1.22l5.4,2.87L172.83,141.21z"/>
			<path class="st4" d="M174.77,137.64l-4.38-5.44l0.51-1.23l6.95-0.83l-0.59,1.44l-1.51,0.15l-1.43,3.49l0.97,1.15L174.77,137.64z
				 M173.52,134.25l0.99-2.41l-2.79,0.24L173.52,134.25z"/>
		</g>
		<g>
			<path class="st6" d="M163.79,104.14c0,33.64-31.34,61.62-65.44,60.87c-33.14-0.72-63.71-28.33-63.71-62.2"/>
			<path class="st7" d="M81.81,157.17c0.12-0.46,0.3-0.75,0.54-0.87s0.63-0.1,1.19,0.04l3.18,0.85c0.56,0.15,0.91,0.33,1.06,0.55
				c0.15,0.22,0.16,0.56,0.04,1.02l-0.1,0.39c-0.08,0.3-0.19,0.51-0.32,0.65c-0.13,0.13-0.41,0.26-0.81,0.38l-4.21,1.21l3.59,0.96
				l0.24-0.9l1.06,0.62l-0.13,0.49c-0.12,0.46-0.3,0.75-0.54,0.87c-0.24,0.12-0.64,0.1-1.19-0.04l-5.2-1.39l0.15-0.56
				c0.07-0.27,0.18-0.46,0.34-0.58c0.15-0.12,0.4-0.23,0.74-0.33l4.97-1.46l0.21-0.8l-3.52-0.94l-0.34,1.26l-1.14-0.64L81.81,157.17
				z"/>
			<path class="st7" d="M90.79,159.61c0.05-0.58,0.19-0.96,0.41-1.15c0.22-0.19,0.61-0.26,1.18-0.21l4.31,0.4
				c0.57,0.05,0.94,0.19,1.13,0.42c0.18,0.23,0.25,0.63,0.19,1.21l-0.31,3.32c-0.05,0.58-0.19,0.96-0.41,1.15s-0.62,0.26-1.18,0.21
				l-4.31-0.4c-0.56-0.05-0.94-0.19-1.12-0.42s-0.25-0.63-0.19-1.21L90.79,159.61z M91.78,163.41l4.55,0.43l0.38-4.09l-4.55-0.43
				L91.78,163.41z"/>
			<path class="st7" d="M101.17,160c-0.04-0.47,0.03-0.8,0.22-1c0.18-0.19,0.56-0.31,1.14-0.36l3.28-0.26
				c0.58-0.05,0.97,0.01,1.18,0.17c0.21,0.16,0.34,0.48,0.38,0.95l0.03,0.41c0.02,0.31,0,0.54-0.08,0.72s-0.29,0.38-0.64,0.63
				l-3.57,2.55l3.71-0.3l-0.08-0.93l1.2,0.23l0.04,0.5c0.04,0.47-0.04,0.81-0.22,1c-0.18,0.19-0.56,0.31-1.14,0.36l-5.36,0.43
				l-0.05-0.57c-0.02-0.28,0.02-0.5,0.13-0.66c0.11-0.16,0.3-0.35,0.59-0.56l4.2-3.04l-0.07-0.82l-3.63,0.29l0.11,1.3l-1.29-0.22
				L101.17,160z"/>
			<path class="st7" d="M113.24,163.56c-0.56,0.14-0.96,0.15-1.19,0.03c-0.24-0.12-0.41-0.41-0.53-0.87l-0.13-0.5l1.21-0.58
				l0.22,0.86l3.34-0.85c0.24-0.06,0.39-0.14,0.45-0.23s0.06-0.25,0.01-0.47l-0.11-0.45c-0.06-0.22-0.14-0.36-0.24-0.42
				s-0.27-0.05-0.5,0.01l-2.09,0.53l-0.25-1l1.87-0.48c0.24-0.06,0.38-0.14,0.44-0.23s0.06-0.25,0-0.48l-0.08-0.31
				c-0.06-0.23-0.14-0.37-0.23-0.42c-0.1-0.05-0.26-0.05-0.5,0.01l-3.06,0.78l0.2,0.77l-1.28,0.09l-0.1-0.38
				c-0.12-0.46-0.1-0.8,0.05-1.02c0.15-0.22,0.5-0.4,1.06-0.54l3.36-0.85c0.56-0.14,0.96-0.15,1.19-0.03
				c0.23,0.12,0.41,0.41,0.53,0.87l0.14,0.56c0.09,0.36,0.07,0.65-0.06,0.87s-0.41,0.42-0.84,0.6c0.51-0.08,0.9-0.05,1.19,0.09
				c0.28,0.14,0.47,0.41,0.57,0.79l0.16,0.64c0.13,0.5,0.11,0.88-0.06,1.12c-0.17,0.24-0.54,0.44-1.1,0.58L113.24,163.56z"/>
		</g>
		<g>
			<path class="st6" d="M18.95,99.22c0-44.99,36.09-81.65,82.13-80.34c42.13,1.2,78.4,35.57,78.4,80.56"/>
			<path class="st4" d="M15.15,91.47c0.1,0,0.2,0,0.31,0.01c0.11,0.01,0.25,0.02,0.42,0.04l3.36,0.38l-0.07,0.64l-4.98-0.57
				l0.07-0.62l3.49-1.83l-3-2.42l0.08-0.69l4.98,0.57l-0.08,0.69l-3.36-0.38c-0.04,0-0.15-0.02-0.33-0.05s-0.31-0.05-0.4-0.06
				c0.12,0.07,0.22,0.13,0.31,0.19c0.08,0.05,0.15,0.1,0.2,0.14l2.57,2.04l-0.02,0.19l-2.9,1.49c0,0-0.02,0.01-0.04,0.02
				C15.55,91.36,15.35,91.44,15.15,91.47z"/>
			<path class="st4" d="M20.05,85.43l-4.4-3.44l0.16-0.8l5.41-1.47l-0.17,0.82l-1.32,0.32l-0.62,3.02l1.09,0.82L20.05,85.43z
				 M18.55,83.44l0.49-2.4l-2.76,0.69L18.55,83.44z"/>
			<path class="st4" d="M21.83,77.59l-2.1-0.58l-3.34,1.47l0.25-0.91l2.63-1.12l-1.69-2.24l0.25-0.89l2.09,2.95l2.12,0.59
				L21.83,77.59z"/>
			<path class="st4" d="M20.98,66.65l4.01,1.62l-0.28,0.7l-4.01-1.62l-0.78,1.93l-0.63-0.26l1.84-4.57l0.63,0.25L20.98,66.65z"/>
			<path class="st4" d="M26.35,65.04l-4.48-2.24l0.34-0.68l1.83,0.92l1.6-3.21l-1.83-0.92l0.34-0.68l4.48,2.24l-0.34,0.68
				l-2.03-1.01l-1.6,3.21l2.03,1.01L26.35,65.04z"/>
			<path class="st4" d="M29.86,58.31l-4.27-2.62l2.29-3.74l0.57,0.35l-1.89,3.09l1.19,0.73l1.16-1.89l0.57,0.35l-1.16,1.89
				l1.36,0.83l1.91-3.12l0.59,0.36L29.86,58.31z"/>
			<path class="st4" d="M35.29,50.16l-3.91-3.13l2.29-2.87c0.21-0.27,0.43-0.41,0.64-0.43s0.45,0.07,0.72,0.29l0.87,0.7
				c0.26,0.21,0.41,0.42,0.43,0.64s-0.07,0.45-0.28,0.72l-1.82,2.27l1.52,1.22L35.29,50.16z M33.99,44.8l-1.63,2.04l1.37,1.09
				l1.63-2.04c0.12-0.15,0.17-0.27,0.15-0.38c-0.02-0.1-0.1-0.22-0.25-0.34l-0.54-0.44c-0.15-0.12-0.28-0.18-0.38-0.17
				C34.22,44.58,34.11,44.65,33.99,44.8z"/>
			<path class="st4" d="M39.48,45.07l-3.63-3.45l2.52-2.66c0.23-0.25,0.46-0.37,0.67-0.38s0.45,0.11,0.69,0.35l0.81,0.77
				c0.25,0.23,0.37,0.46,0.38,0.67c0.01,0.21-0.11,0.45-0.34,0.69l-0.46,0.48l2.85-0.17L42.2,42.2l-2.69,0l-0.92,0.97l1.42,1.34
				L39.48,45.07z M38.64,39.63l-1.8,1.89l1.28,1.21l1.8-1.89c0.13-0.14,0.19-0.26,0.18-0.36c-0.01-0.1-0.08-0.22-0.22-0.35
				l-0.53-0.5c-0.14-0.13-0.26-0.2-0.36-0.2C38.89,39.42,38.77,39.49,38.64,39.63z"/>
			<path class="st4" d="M41.7,37.33c-0.3-0.34-0.45-0.62-0.45-0.85c0-0.22,0.16-0.47,0.47-0.75l2.37-2.08
				c0.31-0.27,0.57-0.39,0.79-0.37c0.22,0.03,0.48,0.21,0.78,0.56l1.74,1.98c0.3,0.35,0.46,0.63,0.45,0.85
				c0,0.22-0.16,0.47-0.47,0.74l-2.37,2.08c-0.31,0.27-0.58,0.4-0.8,0.37c-0.22-0.03-0.48-0.21-0.78-0.56L41.7,37.33z M44.33,39.18
				l2.83-2.49l-2.39-2.73l-2.83,2.49L44.33,39.18z"/>
			<path class="st4" d="M50.09,35.24l-2.98-4.03l3.48-2.57l0.41,0.55l-2.87,2.12l0.97,1.32l1.64-1.21l0.4,0.54l-1.64,1.21l1.2,1.62
				L50.09,35.24z"/>
			<path class="st4" d="M54.75,31.91l-2.66-4.24l3.71-2.33l0.36,0.57l-3.07,1.92l0.74,1.18l1.88-1.18l0.35,0.56l-1.88,1.18
				l0.85,1.35l3.1-1.94l0.36,0.58L54.75,31.91z"/>
			<path class="st4" d="M61.64,22.99l-2.86,1.47l0.64,1.24l2.55-1.31c0.36-0.19,0.64-0.24,0.85-0.16c0.21,0.08,0.42,0.32,0.63,0.73
				l0.26,0.5c0.21,0.41,0.29,0.72,0.23,0.93s-0.27,0.41-0.63,0.6l-2.36,1.21c-0.37,0.19-0.66,0.24-0.86,0.16s-0.42-0.32-0.63-0.73
				l-0.06-0.12l0.55-0.48l0.37,0.72l3.01-1.55l-0.69-1.34l-2.54,1.31c-0.37,0.19-0.65,0.24-0.86,0.16s-0.41-0.32-0.62-0.73
				l-0.2-0.39c-0.21-0.41-0.29-0.72-0.23-0.93s0.27-0.42,0.63-0.61l2.16-1.11c0.36-0.19,0.65-0.24,0.86-0.17
				c0.21,0.07,0.41,0.29,0.6,0.65l0.05,0.09l-0.48,0.48L61.64,22.99z"/>
			<path class="st4" d="M68.41,20.05l-2.98,1.21l0.53,1.29l2.66-1.08c0.38-0.15,0.66-0.18,0.86-0.08c0.2,0.1,0.39,0.36,0.56,0.78
				l0.21,0.52c0.17,0.43,0.22,0.74,0.15,0.95c-0.07,0.21-0.3,0.39-0.68,0.54l-2.46,1c-0.38,0.16-0.67,0.18-0.88,0.09
				s-0.39-0.36-0.56-0.78l-0.05-0.13l0.59-0.43l0.3,0.75l3.14-1.27l-0.57-1.4l-2.65,1.08c-0.38,0.16-0.67,0.18-0.87,0.09
				c-0.2-0.1-0.38-0.36-0.56-0.78l-0.16-0.4c-0.17-0.42-0.22-0.74-0.15-0.95c0.07-0.21,0.3-0.39,0.68-0.55l2.25-0.91
				c0.38-0.15,0.66-0.18,0.87-0.09c0.2,0.09,0.38,0.33,0.54,0.71l0.04,0.1l-0.53,0.43L68.41,20.05z"/>
			<path class="st4" d="M71.77,19.34c-0.13-0.44-0.15-0.75-0.06-0.96c0.09-0.2,0.34-0.36,0.74-0.48l3.01-0.91
				c0.39-0.12,0.68-0.12,0.87,0s0.35,0.39,0.48,0.83l0.76,2.53c0.13,0.44,0.15,0.76,0.06,0.96c-0.09,0.2-0.34,0.36-0.73,0.48
				L73.9,22.7c-0.4,0.12-0.69,0.12-0.88,0c-0.19-0.12-0.35-0.39-0.48-0.83L71.77,19.34z M73.4,22.12l3.61-1.09l-1.05-3.47
				l-3.61,1.09L73.4,22.12z"/>
			<path class="st4" d="M80.28,20.91l-1-4.91l3.59-0.73c0.33-0.07,0.59-0.04,0.77,0.08c0.18,0.12,0.3,0.35,0.37,0.68l0.22,1.1
				c0.07,0.33,0.04,0.59-0.07,0.77c-0.12,0.18-0.34,0.3-0.68,0.37l-0.65,0.13l2.43,1.5l-1.11,0.23l-2.21-1.54l-1.31,0.27l0.39,1.91
				L80.28,20.91z M82.71,15.96l-2.56,0.52l0.35,1.72l2.56-0.52c0.19-0.04,0.3-0.1,0.36-0.19c0.05-0.09,0.06-0.23,0.02-0.41
				l-0.15-0.71c-0.04-0.19-0.1-0.31-0.18-0.37S82.89,15.93,82.71,15.96z"/>
			<path class="st4" d="M90.37,14.9l-3.2,0.37l0.16,1.39l2.85-0.33c0.4-0.05,0.69,0,0.85,0.15s0.28,0.45,0.33,0.9l0.06,0.56
				c0.05,0.46,0.02,0.78-0.11,0.96c-0.13,0.18-0.39,0.29-0.8,0.34l-2.64,0.31c-0.41,0.05-0.7,0-0.87-0.15s-0.28-0.45-0.33-0.9
				l-0.02-0.14l0.68-0.26l0.09,0.8l3.37-0.39L90.63,17l-2.84,0.33c-0.41,0.05-0.7,0-0.86-0.15s-0.27-0.45-0.33-0.9l-0.05-0.43
				c-0.05-0.45-0.02-0.77,0.11-0.95c0.13-0.18,0.4-0.3,0.81-0.34l2.41-0.28c0.4-0.05,0.69,0,0.86,0.15s0.28,0.42,0.33,0.82l0.01,0.1
				l-0.62,0.28L90.37,14.9z"/>
			<path class="st4" d="M97.43,18.82l0.06-5.01l3.67,0.04c0.34,0,0.59,0.08,0.74,0.24s0.22,0.4,0.22,0.74l-0.01,0.58
				c0,0.27-0.07,0.47-0.19,0.6s-0.32,0.21-0.58,0.24c0.26,0.04,0.45,0.14,0.58,0.31c0.13,0.17,0.2,0.4,0.19,0.68l-0.01,0.64
				c0,0.33-0.11,0.58-0.32,0.74c-0.21,0.16-0.53,0.24-0.95,0.23L97.43,18.82z M101.34,17.59l0.01-0.42c0-0.23-0.03-0.38-0.11-0.47
				c-0.07-0.09-0.2-0.13-0.39-0.13l-2.63-0.03l-0.02,1.61l2.63,0.03c0.19,0,0.32-0.04,0.4-0.12
				C101.3,17.96,101.34,17.81,101.34,17.59z M101.32,15.47l0.01-0.5c0-0.16-0.03-0.28-0.09-0.34s-0.19-0.1-0.37-0.1l-2.63-0.03
				l-0.02,1.38l2.63,0.03c0.18,0,0.3-0.03,0.37-0.1S101.32,15.63,101.32,15.47z"/>
			<path class="st4" d="M104.3,19.01l0.47-4.99l4.36,0.41l-0.06,0.67l-3.61-0.34l-0.13,1.39l2.2,0.21l-0.06,0.66l-2.2-0.21
				l-0.15,1.58l3.64,0.34l-0.06,0.68L104.3,19.01z"/>
			<path class="st4" d="M114.03,20.28l1.07-4.89l4.28,0.94l-0.14,0.66l-3.54-0.78l-0.3,1.36l2.16,0.47l-0.14,0.65l-2.16-0.47
				l-0.34,1.55l3.57,0.78l-0.15,0.67L114.03,20.28z"/>
			<path class="st4" d="M121.73,22.2l-0.93-5.51l0.78,0.24l0.72,4.58l3.05-3.44l0.72,0.22l-3.73,4.1L121.73,22.2z"/>
			<path class="st4" d="M126.13,23.63l1.82-4.67l4.08,1.59l-0.24,0.63l-3.38-1.31l-0.5,1.3l2.06,0.8l-0.24,0.62l-2.06-0.8
				l-0.58,1.48l3.41,1.33l-0.25,0.64L126.13,23.63z"/>
			<path class="st4" d="M131.98,26l2.19-4.5l3.3,1.6c0.31,0.15,0.5,0.33,0.56,0.53s0.03,0.46-0.12,0.77l-0.49,1.01
				c-0.15,0.3-0.32,0.49-0.52,0.56c-0.2,0.07-0.46,0.03-0.76-0.12l-0.6-0.29l1.02,2.66l-1.01-0.49l-0.81-2.56l-1.21-0.58l-0.85,1.76
				L131.98,26z M136.92,23.56l-2.35-1.14L133.8,24l2.35,1.14c0.17,0.08,0.3,0.11,0.4,0.07s0.18-0.14,0.27-0.31l0.32-0.66
				c0.08-0.17,0.11-0.31,0.08-0.41C137.18,23.73,137.08,23.64,136.92,23.56z"/>
			<path class="st4" d="M141.09,30.88l2.65-4.25l0.65,0.4l-2.65,4.25L141.09,30.88z"/>
			<path class="st4" d="M143.86,32.62l2.92-4.07l0.39,0.28l0.81,4.71c0.02,0.11,0.03,0.23,0.04,0.37c0.01,0.14,0.01,0.29,0.01,0.45
				c0.08-0.14,0.16-0.29,0.25-0.44c0.09-0.15,0.23-0.35,0.41-0.6l1.6-2.23l0.57,0.41l-2.92,4.07l-0.35-0.25l-0.81-4.87
				c0-0.02-0.01-0.06-0.02-0.11c-0.04-0.24-0.05-0.45-0.03-0.62c-0.07,0.13-0.16,0.27-0.25,0.42c-0.09,0.15-0.21,0.31-0.34,0.5
				l-1.72,2.4L143.86,32.62z"/>
			<path class="st4" d="M153.54,40.3l1.49-1.6l0.23-3.64l0.69,0.64l-0.21,2.85l2.77-0.48l0.68,0.63l-3.58,0.5l-1.5,1.62L153.54,40.3
				z"/>
			<path class="st4" d="M159.45,40.65c0.33-0.31,0.61-0.46,0.84-0.47c0.22,0,0.48,0.15,0.76,0.45l2.13,2.32
				c0.28,0.3,0.41,0.56,0.38,0.79c-0.02,0.22-0.2,0.49-0.54,0.8l-1.94,1.78c-0.34,0.31-0.62,0.47-0.84,0.47s-0.47-0.15-0.75-0.45
				l-2.13-2.32c-0.28-0.31-0.41-0.57-0.39-0.79s0.2-0.49,0.54-0.79L159.45,40.65z M157.66,43.32l2.55,2.78l2.67-2.45l-2.55-2.78
				L157.66,43.32z"/>
			<path class="st4" d="M166.18,46.55l-3.43,2.61l2.01,2.64l3.43-2.61l0.45,0.6l-3.04,2.31c-0.37,0.28-0.66,0.41-0.88,0.39
				c-0.22-0.02-0.46-0.19-0.7-0.52l-1.63-2.15c-0.25-0.33-0.35-0.6-0.31-0.82s0.25-0.47,0.61-0.74l3.04-2.31L166.18,46.55z"/>
			<path class="st4" d="M166.06,54.85l4.24-2.67l1.96,3.1c0.18,0.29,0.25,0.54,0.2,0.75c-0.05,0.21-0.22,0.4-0.51,0.59l-0.95,0.6
				c-0.29,0.18-0.53,0.25-0.74,0.2s-0.41-0.21-0.59-0.5l-0.36-0.56l-0.54,2.8l-0.6-0.95l0.66-2.61l-0.71-1.13l-1.65,1.04
				L166.06,54.85z M171.54,55.38l-1.39-2.21l-1.49,0.94l1.39,2.21c0.1,0.16,0.2,0.25,0.3,0.27c0.1,0.02,0.23-0.02,0.39-0.12
				l0.62-0.39c0.16-0.1,0.25-0.2,0.28-0.3C171.68,55.67,171.64,55.54,171.54,55.38z"/>
			<path class="st4" d="M171.21,63.79l4.53-2.13l1.84,3.92l-0.62,0.29l-1.52-3.23l-1.48,0.7l0.87,1.84l-0.6,0.28l-0.87-1.84
				l-1.83,0.86L171.21,63.79z"/>
			<path class="st4" d="M173.04,67.64l5.57,0.51l0.29,0.76l-3.76,4.17l-0.3-0.78l0.94-0.99l-1.11-2.87l-1.36-0.1L173.04,67.64z
				 M175.38,68.5l0.89,2.28l1.95-2.07L175.38,68.5z"/>
			<path class="st4" d="M175.86,75.44l4.06-3.85l0.24,0.78l-3.4,3.15l4.55,0.61l0.22,0.72l-5.49-0.81L175.86,75.44z"/>
			<path class="st4" d="M180.81,78.76c0.44-0.1,0.76-0.09,0.96,0.02c0.2,0.11,0.34,0.37,0.43,0.77l0.67,3.08
				c0.09,0.4,0.07,0.69-0.06,0.87c-0.13,0.18-0.42,0.32-0.87,0.42l-2.58,0.56c-0.45,0.1-0.77,0.09-0.96-0.02
				c-0.19-0.11-0.33-0.37-0.42-0.77l-0.67-3.08c-0.09-0.41-0.07-0.7,0.07-0.88s0.42-0.32,0.87-0.42L180.81,78.76z M177.91,80.16
				l0.8,3.68l3.55-0.77l-0.8-3.68L177.91,80.16z"/>
			<path class="st4" d="M178.58,87.12l4.97-0.62l0.45,3.64c0.04,0.34,0,0.59-0.14,0.76c-0.13,0.17-0.37,0.27-0.71,0.32l-1.11,0.14
				c-0.33,0.04-0.59,0-0.76-0.13c-0.17-0.13-0.28-0.37-0.32-0.7l-0.08-0.66l-1.68,2.31l-0.14-1.12l1.71-2.08l-0.17-1.33l-1.94,0.24
				L178.58,87.12z M183.32,89.93L183,87.34l-1.74,0.22l0.32,2.59c0.02,0.19,0.08,0.31,0.16,0.37c0.08,0.06,0.22,0.08,0.41,0.05
				l0.72-0.09c0.19-0.02,0.32-0.07,0.38-0.15C183.32,90.24,183.34,90.11,183.32,89.93z"/>
		</g>
		<path class="st8" d="M56.31,162.79"/>
		<g>
			<ellipse class="st4" cx="182.11" cy="107.1" rx="2.63" ry="2.62"/>
			<ellipse class="st4" cx="16.32" cy="107.1" rx="2.63" ry="2.62"/>
		</g>
		<polygon class="st4" points="128.84,181.84 127.81,181.62 128.83,178.62 129.55,178.77 		"/>
	</g>
</g>
<g id="apka" class="st0">
	<g class="st1">
		<circle class="st9" cx="99.21" cy="99.21" r="25.42"/>
		<path class="st9" d="M99.21,52.58c-25.75,0-46.63,20.88-46.63,46.63c0,25.75,20.88,46.63,46.63,46.63s46.63-20.88,46.63-46.63
			C145.84,73.46,124.97,52.58,99.21,52.58z M99.21,136.84c-20.76,0-37.59-16.83-37.59-37.59c0-20.76,16.83-37.59,37.59-37.59
			c20.76,0,37.59,16.83,37.59,37.59C136.81,120.01,119.97,136.84,99.21,136.84z"/>
		<g>
			
				<rect x="92.19" y="159.29" transform="matrix(0.0931 -0.9957 0.9957 0.0931 -75.4098 240.3634)" class="st9" width="4.11" height="4.57"/>
			<path class="st9" d="M99.21,31.54c-37.38,0-67.68,30.3-67.68,67.68c0,1.02,0.02,2.03,0.07,3.03c0.39,8.91,2.51,17.37,6.02,25.06
				c4.87,10.66,12.42,19.83,21.79,26.65c11.17,8.14,24.93,12.94,39.8,12.94c37.38,0,67.68-30.3,67.68-67.68
				C166.89,61.84,136.59,31.54,99.21,31.54z M87.82,158.77l-0.1,0.39c-0.08,0.3-0.19,0.51-0.32,0.65c-0.13,0.13-0.41,0.26-0.81,0.38
				l-4.21,1.21l3.59,0.96l0.24-0.9l1.06,0.62l-0.13,0.49c-0.12,0.46-0.3,0.75-0.54,0.87c-0.24,0.12-0.64,0.1-1.19-0.04l-5.2-1.39
				l0.15-0.56c0.07-0.27,0.18-0.46,0.34-0.58c0.15-0.12,0.4-0.23,0.74-0.33l4.97-1.46l0.21-0.8l-3.52-0.94l-0.34,1.26l-1.14-0.64
				l0.21-0.79c0.12-0.46,0.3-0.75,0.54-0.87s0.63-0.1,1.19,0.04l3.18,0.85c0.56,0.15,0.91,0.33,1.06,0.55
				C87.92,157.97,87.94,158.31,87.82,158.77z M98.01,160.29l-0.31,3.32c-0.05,0.58-0.19,0.96-0.41,1.15s-0.62,0.26-1.18,0.21
				l-4.31-0.4c-0.56-0.05-0.94-0.19-1.12-0.42s-0.25-0.63-0.19-1.21l0.31-3.32c0.05-0.58,0.19-0.96,0.41-1.15
				c0.22-0.19,0.61-0.26,1.18-0.21l4.31,0.4c0.57,0.05,0.94,0.19,1.13,0.42C98,159.31,98.06,159.71,98.01,160.29z M107.76,164.31
				c-0.18,0.19-0.56,0.31-1.14,0.36l-5.36,0.43l-0.05-0.57c-0.02-0.28,0.02-0.5,0.13-0.66c0.11-0.16,0.3-0.35,0.59-0.56l4.2-3.04
				l-0.07-0.82l-3.63,0.29l0.11,1.3l-1.29-0.22l-0.07-0.82c-0.04-0.47,0.03-0.8,0.22-1c0.18-0.19,0.56-0.31,1.14-0.36l3.28-0.26
				c0.58-0.05,0.97,0.01,1.18,0.17c0.21,0.16,0.34,0.48,0.38,0.95l0.03,0.41c0.02,0.31,0,0.54-0.08,0.72s-0.29,0.38-0.64,0.63
				l-3.57,2.55l3.71-0.3l-0.08-0.93l1.2,0.23l0.04,0.5C108.02,163.79,107.95,164.12,107.76,164.31z M117.94,162.06
				c-0.17,0.24-0.54,0.44-1.1,0.58l-3.6,0.92c-0.56,0.14-0.96,0.15-1.19,0.03c-0.24-0.12-0.41-0.41-0.53-0.87l-0.13-0.5l1.21-0.58
				l0.22,0.86l3.34-0.85c0.24-0.06,0.39-0.14,0.45-0.23s0.06-0.25,0.01-0.47l-0.11-0.45c-0.06-0.22-0.14-0.36-0.24-0.42
				s-0.27-0.05-0.5,0.01l-2.09,0.53l-0.25-1l1.87-0.48c0.24-0.06,0.38-0.14,0.44-0.23s0.06-0.25,0-0.48l-0.08-0.31
				c-0.06-0.23-0.14-0.37-0.23-0.42c-0.1-0.05-0.26-0.05-0.5,0.01l-3.06,0.78l0.2,0.77l-1.28,0.09l-0.1-0.38
				c-0.12-0.46-0.1-0.8,0.05-1.02c0.15-0.22,0.5-0.4,1.06-0.54l3.36-0.85c0.56-0.14,0.96-0.15,1.19-0.03
				c0.23,0.12,0.41,0.41,0.53,0.87l0.14,0.56c0.09,0.36,0.07,0.65-0.06,0.87s-0.41,0.42-0.84,0.6c0.51-0.08,0.9-0.05,1.19,0.09
				c0.28,0.14,0.47,0.41,0.57,0.79l0.16,0.64C118.13,161.44,118.11,161.81,117.94,162.06z M99.21,156.78
				c-10.56,0-20.46-2.84-28.96-7.81c-9.03-5.26-16.49-12.92-21.53-22.09c-4.03-7.33-6.5-15.64-6.99-24.47
				c-0.06-1.06-0.09-2.13-0.09-3.21c0-31.8,25.78-57.57,57.57-57.57c31.8,0,57.57,25.78,57.57,57.57S131.01,156.78,99.21,156.78z"/>
		</g>
		<g>
			<path class="st4" d="M84.17,129.28v-7.72h6.6c0.61,0,1.06,0.12,1.33,0.35c0.27,0.24,0.41,0.62,0.41,1.14v1.72
				c0,0.52-0.14,0.9-0.41,1.13c-0.28,0.24-0.72,0.35-1.33,0.35h-4.83v3.01H84.17z M89.98,122.9h-4.04v2.04h4.04
				c0.31,0,0.52-0.04,0.64-0.13c0.11-0.09,0.17-0.25,0.17-0.48v-0.83c0-0.22-0.06-0.38-0.17-0.47
				C90.5,122.95,90.29,122.9,89.98,122.9z"/>
			<path class="st4" d="M96.89,129.28l-2.97-7.72h1.85l1.96,5.18l2.05-5.18h1.26l2.09,5.18l1.87-5.18h1.61l-2.98,7.72h-1.21
				l-2.12-5.34l-2.15,5.34H96.89z"/>
			<path class="st4" d="M107.94,129.28v-4.53h4.08c0.37,0,0.64,0.07,0.81,0.21c0.17,0.14,0.25,0.36,0.25,0.67v1.07
				c0,0.31-0.08,0.53-0.25,0.66s-0.44,0.2-0.81,0.2h-0.62l2.15,1.71h-1.58l-1.9-1.71h-1.04v1.71H107.94z M111.55,125.54h-2.52v1.25
				h2.52c0.19,0,0.32-0.03,0.39-0.08s0.11-0.15,0.11-0.28v-0.52c0-0.13-0.04-0.23-0.11-0.28
				C111.87,125.56,111.74,125.54,111.55,125.54z"/>
		</g>
		<g>
			<g>
				<g>
					<path class="st5" d="M57.69,138.48l-3.01-7.44l-7.96,18.41l18.43-4.95l-6-4.36l-4.09,3.68c-0.2,0.18-1.15,0.44-2.97,0.96
						c0,0,1.13-2.63,1.33-2.79L57.69,138.48z"/>
					<path class="st5" d="M90.83,112.9l-29.76,25.97c-0.4,0.34-1.01,0.3-1.36-0.1l-0.17-0.19c-0.36-0.41-0.32-1.03,0.1-1.38
						l31.29-27.17"/>
					<path class="st5" d="M98.84,103.2l35.83-30.15c0.43-0.37,1.09-0.28,1.42,0.19l0,0c0.29,0.41,0.22,0.97-0.16,1.3l-33.78,28.61"
						/>
					<path class="st5" d="M152.39,57.99l4.31-3.37c0.43-0.37,1.09-0.28,1.42,0.19l0,0c0.29,0.41,0.22,0.97-0.16,1.3l-4.03,3.47
						c-0.26,0.23-0.6,0.36-0.95,0.32C151.89,59.77,151.94,58.37,152.39,57.99z"/>
				</g>
				<path class="st5" d="M144.56,70.52l0.79-0.66l4.51,1.02c0.96-0.6,2.03-1.27,3.12-1.96l-5.03-1.19l0.79-0.66l5.28,1.19
					c0.99-0.62,1.98-1.24,2.91-1.82l-5.76-1.37l0.79-0.66l6.02,1.36c2.34-1.46,4.12-2.57,4.25-2.65c-0.01,0-10.3-2.3-10.3-2.3
					L138.4,72.38l7.59,0.93c0.17-0.1,1.28-0.8,2.84-1.78L144.56,70.52z"/>
				<path class="st5" d="M139.94,65.15l0.77-0.68l-0.29-4.62c0.75-0.85,1.57-1.8,2.43-2.77l0.38,5.15l0.77-0.68l-0.34-5.4
					c0.77-0.88,1.54-1.76,2.26-2.59l0.43,5.91l0.77-0.68l-0.39-6.16c1.82-2.08,3.83-4.23,3.92-4.35c0,0.01,0,11.11,0,11.11
					l-13.53,11.55l0.28-7.64c0.13-0.15,0.99-1.14,2.21-2.53L139.94,65.15z"/>
			</g>
		</g>
		<g>
			<path class="st4" d="M49.95,85.35c0-1.59,0.28-2.68,0.85-3.26c0.57-0.58,1.65-0.88,3.25-0.88h12.1c1.58,0,2.65,0.29,3.22,0.87
				c0.57,0.58,0.85,1.67,0.85,3.27v9.22c0,1.61-0.28,2.7-0.85,3.28c-0.57,0.57-1.64,0.86-3.22,0.86h-12.1
				c-1.6,0-2.68-0.29-3.25-0.88c-0.57-0.58-0.85-1.67-0.85-3.26V85.35z M52.87,96.27h14.48V83.6H52.87V96.27z"/>
			<path class="st4" d="M79.1,98.71V81.21h14.1c1.31,0,2.26,0.27,2.84,0.8c0.58,0.54,0.87,1.4,0.87,2.59v2.04
				c0,0.94-0.23,1.64-0.7,2.1c-0.47,0.46-1.21,0.76-2.21,0.88c0.98,0.12,1.73,0.47,2.24,1.05c0.51,0.58,0.77,1.37,0.77,2.37v2.23
				c0,1.16-0.4,2.02-1.2,2.58c-0.8,0.56-2.02,0.84-3.65,0.84H79.1z M93.91,86.84v-1.75c0-0.57-0.12-0.97-0.37-1.19
				c-0.25-0.22-0.72-0.33-1.41-0.33h-10.1v4.83h10.1c0.67,0,1.14-0.12,1.4-0.35C93.78,87.82,93.91,87.41,93.91,86.84z M94.06,94.24
				v-1.46c0-0.79-0.14-1.34-0.42-1.65c-0.28-0.3-0.79-0.46-1.51-0.46h-10.1v5.63h10.1c0.74,0,1.25-0.15,1.52-0.45
				C93.92,95.56,94.06,95.02,94.06,94.24z"/>
			<path class="st4" d="M125.12,85.52l-0.02,9.05c0,1.61-0.28,2.7-0.85,3.28c-0.57,0.57-1.64,0.86-3.22,0.86h-12.1
				c-1.6,0-2.68-0.29-3.25-0.88c-0.57-0.58-0.85-1.67-0.85-3.26v-9.22c0-1.59,0.28-2.68,0.85-3.26c0.57-0.58,1.65-0.88,3.25-0.88
				h13.65c-1,0.84-2.89,2.39-2.86,2.36l-11.97,0.02v12.68h14.48l0.21-8.36 M112.72,79.36l3.46-5.76h2.95l-4.65,5.76H112.72z"/>
			<path class="st4" d="M131.67,98.71v-1.19l12.96-13.92H132.8v-2.38h16.5v0.99l-13.19,14.07h13.19v2.43H131.67z"/>
			<path class="st4" d="M36.87,106.58h-6.93v2.27h6.6c1.03,0,1.73,0.18,2.1,0.53c0.36,0.35,0.55,1.01,0.55,1.97v1.45
				c0,0.96-0.18,1.62-0.55,1.97c-0.36,0.35-1.06,0.53-2.1,0.53H30c-1.03,0-1.73-0.18-2.1-0.53c-0.36-0.35-0.55-1.01-0.55-1.97v-0.29
				l2.17-0.45v1.25h7.48v-2.41h-6.6c-1.03,0-1.72-0.18-2.08-0.53c-0.36-0.35-0.54-1.01-0.54-1.97v-1.17c0-0.96,0.18-1.62,0.54-1.97
				c0.36-0.35,1.05-0.53,2.08-0.53h6.01c0.99,0,1.68,0.17,2.06,0.51s0.57,0.94,0.57,1.81v0.22l-2.17,0.51V106.58z"/>
			<path class="st4" d="M49.33,106.62v8.69h-2.46v-8.69h-4.85v-1.89h12.19v1.89H49.33z"/>
			<path class="st4" d="M59.81,104.73v8.59h7.02v-8.59h2.45v8.08c0,0.97-0.18,1.63-0.54,1.98c-0.36,0.35-1.05,0.53-2.08,0.53h-6.69
				c-1.02,0-1.71-0.18-2.08-0.53c-0.36-0.35-0.55-1.01-0.55-1.98v-8.08H59.81z"/>
			<path class="st4" d="M74.81,115.31v-10.58h5.9c1.68,0,2.98,0.45,3.88,1.36c0.9,0.91,1.36,2.2,1.36,3.86
				c0,0.99-0.18,1.88-0.53,2.67c-0.35,0.79-0.85,1.41-1.49,1.87c-0.4,0.29-0.89,0.5-1.49,0.63c-0.59,0.13-1.35,0.2-2.28,0.2H74.81z
				 M76.95,113.32h2.76c1.47,0,2.51-0.26,3.12-0.79c0.61-0.53,0.92-1.4,0.92-2.61c0-1.08-0.25-1.9-0.76-2.46
				c-0.51-0.56-1.26-0.84-2.25-0.84h-3.78V113.32z"/>
			<path class="st4" d="M92.31,115.31v-10.58h10.83v1.8h-8.37v2.36h4.88v1.8h-4.88v2.62h8.47v1.99H92.31z"/>
			<path class="st4" d="M107.88,115.31v-10.58h1.68l7.45,6.24c0.25,0.21,0.48,0.4,0.67,0.59c0.19,0.18,0.37,0.37,0.53,0.57
				c-0.04-0.59-0.07-1.01-0.08-1.26c-0.01-0.25-0.02-0.44-0.02-0.57v-5.56h2.21v10.58h-1.68l-7.77-6.54
				c-0.19-0.17-0.35-0.32-0.49-0.45c-0.14-0.13-0.27-0.27-0.39-0.41c0.03,0.33,0.06,0.64,0.08,0.93c0.02,0.29,0.03,0.54,0.03,0.76
				v5.72H107.88z"/>
			<path class="st4" d="M130.77,106.62v8.69h-2.46v-8.69h-4.85v-1.89h12.19v1.89H130.77z"/>
			<path class="st4" d="M138.56,107.23c0-0.96,0.18-1.62,0.54-1.97c0.36-0.35,1.05-0.53,2.08-0.53h7.79c1.03,0,1.72,0.18,2.08,0.53
				c0.36,0.35,0.54,1.01,0.54,1.97v5.58c0,0.97-0.18,1.63-0.54,1.98c-0.36,0.35-1.05,0.53-2.08,0.53h-7.79
				c-1.03,0-1.72-0.18-2.08-0.53c-0.36-0.35-0.54-1.01-0.54-1.98V107.23z M141.02,113.32h8.12v-6.7h-8.12V113.32z M143.61,103.61
				l2.04-3.46h2.22l-2.95,3.46H143.61z"/>
			<path class="st4" d="M159.08,115.31L155,104.73h2.54l2.68,7.1l2.81-7.1h1.72l2.86,7.1l2.56-7.1h2.2l-4.08,10.58h-1.66l-2.91-7.32
				l-2.95,7.32H159.08z"/>
		</g>
		<g>
			<path class="st6" d="M181.67,106.99c0,43.03-39.81,78.83-85.3,77.79c-44.2-1-80.06-34.88-80.06-77.91"/>
			<path class="st4" d="M20.67,132.18l5.74-2.11l0.48,1.3l-5.74,2.11L20.67,132.18z"/>
			<path class="st4" d="M29.5,139.85l-1.91-3.88l-3.47,1.71l1.91,3.88l1.22-0.6l-1-2.03l0.93-0.46l1.6,3.24l-1.89,0.93
				c-0.5,0.25-0.89,0.33-1.16,0.23c-0.27-0.09-0.53-0.4-0.79-0.92l-1.81-3.68c-0.26-0.52-0.34-0.91-0.25-1.18
				c0.09-0.27,0.39-0.53,0.89-0.78l2.89-1.42c0.5-0.25,0.88-0.32,1.16-0.23s0.54,0.4,0.79,0.92l1.81,3.68
				c0.25,0.51,0.33,0.9,0.25,1.18c-0.09,0.27-0.37,0.53-0.84,0.76l-0.12,0.06l-0.82-1.1L29.5,139.85z"/>
			<path class="st4" d="M27.55,146.59l5.06-3.43l2.85,4.21c0.27,0.39,0.38,0.73,0.34,1.01c-0.04,0.28-0.23,0.54-0.57,0.77l-1.19,0.8
				c-0.34,0.23-0.65,0.31-0.93,0.24s-0.55-0.3-0.81-0.69l-0.44-0.64l-0.37,3.57l-1.11-1.64l0.57-3.28l-0.74-1.09l-1.91,1.29
				L27.55,146.59z M34.25,147.46l-1.75-2.58l-1.41,0.95l1.75,2.58c0.13,0.2,0.26,0.32,0.36,0.35c0.11,0.03,0.24,0,0.39-0.1
				l0.61-0.41c0.15-0.1,0.23-0.21,0.23-0.32S34.38,147.66,34.25,147.46z"/>
			<path class="st4" d="M32.91,154.17l0.5-0.44l6.02,0.28l-2.46-2.82l0.82-0.72l3.92,4.5l-0.46,0.4l-6.06-0.32l2.77,3.18l-0.87,0.76
				L32.91,154.17z"/>
			<path class="st4" d="M40.51,162.3l1.86-2.01l0.02-4.58l1.36,1.25l-0.09,3.11l3.1-0.33l1.2,1.1l-4.53,0.37l-1.88,2.04L40.51,162.3
				z"/>
			<path class="st4" d="M52.84,165.81l-3.15-2.3l-0.77,1.06l3,2.19c0.47,0.34,0.73,0.66,0.77,0.94s-0.1,0.65-0.42,1.1l-0.49,0.68
				c-0.33,0.45-0.63,0.7-0.92,0.74s-0.66-0.1-1.13-0.45l-2.97-2.17c-0.47-0.34-0.73-0.66-0.77-0.94c-0.04-0.29,0.1-0.65,0.42-1.1
				l0.1-0.14l1.14,0.51l-0.43,0.58l3.4,2.48l0.82-1.13l-3-2.19c-0.47-0.34-0.72-0.65-0.77-0.94c-0.04-0.29,0.1-0.65,0.43-1.1
				l0.4-0.55c0.33-0.45,0.63-0.7,0.92-0.74s0.66,0.1,1.13,0.44l2.73,1.99c0.45,0.33,0.71,0.64,0.76,0.92
				c0.06,0.28-0.06,0.63-0.36,1.03l-0.07,0.1l-1.16-0.48L52.84,165.81z"/>
			<path class="st4" d="M54.1,172.67l2.97-5.35l1.22,0.68l-1.24,2.23l4.12-0.63l1.75,0.97l-4.84,0.6l2.3,4.98l-1.94-1.08l-1.81-4.08
				l-1.31,2.35L54.1,172.67z"/>
			<path class="st4" d="M61.5,176.69l5.46-4.35l1.23,0.51l0.8,6.96l-1.43-0.6l-0.15-1.51l-3.48-1.45l-1.15,0.97L61.5,176.69z
				 M64.89,175.46l2.41,1l-0.23-2.79L64.89,175.46z"/>
			<path class="st4" d="M76.44,182.09l1.31-5.97l3.74,0.82c1.07,0.23,1.83,0.67,2.29,1.31c0.46,0.64,0.59,1.43,0.38,2.37
				c-0.12,0.56-0.34,1.04-0.67,1.43s-0.71,0.68-1.18,0.85c-0.29,0.11-0.63,0.16-1.02,0.15c-0.39-0.01-0.88-0.08-1.47-0.21
				L76.44,182.09z M78.04,181.26l1.75,0.38c0.93,0.2,1.62,0.2,2.08-0.01c0.45-0.21,0.76-0.66,0.91-1.35
				c0.13-0.61,0.07-1.11-0.18-1.49c-0.25-0.38-0.7-0.65-1.33-0.78l-2.4-0.53L78.04,181.26z"/>
			<path class="st4" d="M86.02,184l0.07-0.66l4.59-3.9l-3.72-0.39l0.11-1.09l5.94,0.62l-0.06,0.6l-4.65,3.89l4.2,0.44l-0.12,1.14
				L86.02,184z"/>
			<path class="st4" d="M95.26,184.75l0.23-6.11l1.38,0.05l-0.23,6.11L95.26,184.75z"/>
			<path class="st4" d="M100.4,184.83l-0.36-6.1l6.08-0.35l0.06,1.04l-4.7,0.27l0.08,1.36l2.74-0.16l0.06,1.04l-2.74,0.16l0.09,1.51
				l4.75-0.28l0.07,1.15L100.4,184.83z"/>
			<path class="st4" d="M114.11,178.2l-3.84,0.68l0.23,1.29l3.65-0.64c0.57-0.1,0.98-0.07,1.21,0.1c0.24,0.17,0.4,0.52,0.5,1.07
				l0.15,0.83c0.1,0.55,0.06,0.94-0.1,1.18c-0.17,0.24-0.54,0.41-1.11,0.51l-3.62,0.64c-0.57,0.1-0.98,0.07-1.21-0.1
				c-0.24-0.17-0.4-0.52-0.5-1.07l-0.03-0.17l1.16-0.47l0.13,0.71l4.14-0.73l-0.24-1.37l-3.65,0.64c-0.57,0.1-0.97,0.07-1.21-0.1
				c-0.23-0.17-0.4-0.52-0.5-1.07l-0.12-0.67c-0.1-0.55-0.06-0.94,0.1-1.18c0.16-0.24,0.53-0.4,1.1-0.5l3.33-0.59
				c0.55-0.1,0.95-0.07,1.19,0.09c0.24,0.16,0.41,0.48,0.5,0.98l0.02,0.13l-1.15,0.5L114.11,178.2z"/>
			<path class="st4" d="M119.73,182.06l-1.59-5.91l1.34-0.36l1.59,5.91L119.73,182.06z"/>
			<path class="st4" d="M124.65,180.67l-2.08-5.75l5.73-2.07l0.35,0.98l-4.43,1.6l0.46,1.28l2.58-0.93l0.35,0.98l-2.58,0.93
				l0.51,1.42l4.48-1.62l0.39,1.08L124.65,180.67z"/>
			<path class="st4" d="M135.79,170.52l-3.35,1.66l1.72,3.47l3.35-1.66l-0.58-1.18l1.37-0.35l0.32,0.65
				c0.25,0.5,0.33,0.89,0.23,1.16c-0.09,0.27-0.4,0.54-0.91,0.79l-3.18,1.58c-0.52,0.26-0.91,0.34-1.18,0.25s-0.53-0.39-0.78-0.89
				l-1.43-2.89c-0.25-0.5-0.32-0.88-0.23-1.16c0.09-0.27,0.4-0.54,0.91-0.79l3.18-1.58c0.51-0.25,0.91-0.34,1.18-0.24
				c0.27,0.09,0.53,0.39,0.78,0.88l0.26,0.52l-1.14,0.82L135.79,170.52z"/>
			<path class="st4" d="M142.31,172.61l-3.17-5.23l1.18-0.72l3.17,5.23L142.31,172.61z"/>
			<path class="st4" d="M143.81,166.22c-0.33-0.45-0.48-0.81-0.44-1.1c0.04-0.28,0.29-0.6,0.76-0.94l3.52-2.61
				c0.46-0.34,0.84-0.5,1.12-0.45c0.28,0.04,0.59,0.29,0.92,0.73l1.92,2.59c0.33,0.45,0.48,0.82,0.44,1.1
				c-0.04,0.28-0.29,0.6-0.76,0.94l-3.52,2.61c-0.46,0.34-0.84,0.5-1.12,0.45s-0.59-0.29-0.92-0.74L143.81,166.22z M147.02,168.22
				l3.67-2.72l-2.31-3.11l-3.67,2.72L147.02,168.22z"/>
			<path class="st4" d="M155.32,163.14l-4.18-4.46l1.01-0.95l3.4,3.62l3.26-3.05l0.79,0.84L155.32,163.14z"/>
			<path class="st4" d="M161.52,157.08l-4.64-3.98l3.96-4.63l0.79,0.68l-3.06,3.58l1.04,0.89l1.79-2.09l0.79,0.68l-1.79,2.09
				l1.15,0.99l3.1-3.62l0.88,0.75L161.52,157.08z"/>
			<path class="st4" d="M166.15,142.73l-2.06,3.11l3.22,2.14l2.07-3.11l-1.09-0.73l1.01-0.99l0.6,0.4c0.47,0.31,0.73,0.61,0.78,0.89
				c0.06,0.28-0.08,0.66-0.39,1.14l-1.96,2.96c-0.32,0.48-0.62,0.75-0.9,0.81c-0.28,0.06-0.65-0.07-1.12-0.38l-2.68-1.78
				c-0.46-0.31-0.72-0.6-0.78-0.88c-0.06-0.28,0.07-0.66,0.39-1.14l1.97-2.96c0.32-0.48,0.62-0.75,0.9-0.8s0.66,0.07,1.12,0.38
				l0.48,0.32l-0.58,1.28L166.15,142.73z"/>
			<path class="st4" d="M172.83,141.21l-5.4-2.87l0.65-1.22l5.4,2.87L172.83,141.21z"/>
			<path class="st4" d="M174.77,137.64l-4.38-5.44l0.51-1.23l6.95-0.83l-0.59,1.44l-1.51,0.15l-1.43,3.49l0.97,1.15L174.77,137.64z
				 M173.52,134.25l0.99-2.41l-2.79,0.24L173.52,134.25z"/>
		</g>
		<g>
			<path class="st6" d="M18.95,99.22c0-44.99,36.09-81.65,82.13-80.34c42.13,1.2,78.4,35.57,78.4,80.56"/>
			<path class="st4" d="M15.15,91.47c0.1,0,0.2,0,0.31,0.01c0.11,0.01,0.25,0.02,0.42,0.04l3.36,0.38l-0.07,0.64l-4.98-0.57
				l0.07-0.62l3.49-1.83l-3-2.42l0.08-0.69l4.98,0.57l-0.08,0.69l-3.36-0.38c-0.04,0-0.15-0.02-0.33-0.05s-0.31-0.05-0.4-0.06
				c0.12,0.07,0.22,0.13,0.31,0.19c0.08,0.05,0.15,0.1,0.2,0.14l2.57,2.04l-0.02,0.19l-2.9,1.49c0,0-0.02,0.01-0.04,0.02
				C15.55,91.36,15.35,91.44,15.15,91.47z"/>
			<path class="st4" d="M20.05,85.43l-4.4-3.44l0.16-0.8l5.41-1.47l-0.17,0.82l-1.32,0.32l-0.62,3.02l1.09,0.82L20.05,85.43z
				 M18.55,83.44l0.49-2.4l-2.76,0.69L18.55,83.44z"/>
			<path class="st4" d="M21.83,77.59l-2.1-0.58l-3.34,1.47l0.25-0.91l2.63-1.12l-1.69-2.24l0.25-0.89l2.09,2.95l2.12,0.59
				L21.83,77.59z"/>
			<path class="st4" d="M20.98,66.65l4.01,1.62l-0.28,0.7l-4.01-1.62l-0.78,1.93l-0.63-0.26l1.84-4.57l0.63,0.25L20.98,66.65z"/>
			<path class="st4" d="M26.35,65.04l-4.48-2.24l0.34-0.68l1.83,0.92l1.6-3.21l-1.83-0.92l0.34-0.68l4.48,2.24l-0.34,0.68
				l-2.03-1.01l-1.6,3.21l2.03,1.01L26.35,65.04z"/>
			<path class="st4" d="M29.86,58.31l-4.27-2.62l2.29-3.74l0.57,0.35l-1.89,3.09l1.19,0.73l1.16-1.89l0.57,0.35l-1.16,1.89
				l1.36,0.83l1.91-3.12l0.59,0.36L29.86,58.31z"/>
			<path class="st4" d="M35.29,50.16l-3.91-3.13l2.29-2.87c0.21-0.27,0.43-0.41,0.64-0.43s0.45,0.07,0.72,0.29l0.87,0.7
				c0.26,0.21,0.41,0.42,0.43,0.64s-0.07,0.45-0.28,0.72l-1.82,2.27l1.52,1.22L35.29,50.16z M33.99,44.8l-1.63,2.04l1.37,1.09
				l1.63-2.04c0.12-0.15,0.17-0.27,0.15-0.38c-0.02-0.1-0.1-0.22-0.25-0.34l-0.54-0.44c-0.15-0.12-0.28-0.18-0.38-0.17
				C34.22,44.58,34.11,44.65,33.99,44.8z"/>
			<path class="st4" d="M39.48,45.07l-3.63-3.45l2.52-2.66c0.23-0.25,0.46-0.37,0.67-0.38s0.45,0.11,0.69,0.35l0.81,0.77
				c0.25,0.23,0.37,0.46,0.38,0.67c0.01,0.21-0.11,0.45-0.34,0.69l-0.46,0.48l2.85-0.17L42.2,42.2l-2.69,0l-0.92,0.97l1.42,1.34
				L39.48,45.07z M38.64,39.63l-1.8,1.89l1.28,1.21l1.8-1.89c0.13-0.14,0.19-0.26,0.18-0.36c-0.01-0.1-0.08-0.22-0.22-0.35
				l-0.53-0.5c-0.14-0.13-0.26-0.2-0.36-0.2C38.89,39.42,38.77,39.49,38.64,39.63z"/>
			<path class="st4" d="M41.7,37.33c-0.3-0.34-0.45-0.62-0.45-0.85c0-0.22,0.16-0.47,0.47-0.75l2.37-2.08
				c0.31-0.27,0.57-0.39,0.79-0.37c0.22,0.03,0.48,0.21,0.78,0.56l1.74,1.98c0.3,0.35,0.46,0.63,0.45,0.85
				c0,0.22-0.16,0.47-0.47,0.74l-2.37,2.08c-0.31,0.27-0.58,0.4-0.8,0.37c-0.22-0.03-0.48-0.21-0.78-0.56L41.7,37.33z M44.33,39.18
				l2.83-2.49l-2.39-2.73l-2.83,2.49L44.33,39.18z"/>
			<path class="st4" d="M50.09,35.24l-2.98-4.03l3.48-2.57l0.41,0.55l-2.87,2.12l0.97,1.32l1.64-1.21l0.4,0.54l-1.64,1.21l1.2,1.62
				L50.09,35.24z"/>
			<path class="st4" d="M54.75,31.91l-2.66-4.24l3.71-2.33l0.36,0.57l-3.07,1.92l0.74,1.18l1.88-1.18l0.35,0.56l-1.88,1.18
				l0.85,1.35l3.1-1.94l0.36,0.58L54.75,31.91z"/>
			<path class="st4" d="M61.64,22.99l-2.86,1.47l0.64,1.24l2.55-1.31c0.36-0.19,0.64-0.24,0.85-0.16c0.21,0.08,0.42,0.32,0.63,0.73
				l0.26,0.5c0.21,0.41,0.29,0.72,0.23,0.93s-0.27,0.41-0.63,0.6l-2.36,1.21c-0.37,0.19-0.66,0.24-0.86,0.16s-0.42-0.32-0.63-0.73
				l-0.06-0.12l0.55-0.48l0.37,0.72l3.01-1.55l-0.69-1.34l-2.54,1.31c-0.37,0.19-0.65,0.24-0.86,0.16s-0.41-0.32-0.62-0.73
				l-0.2-0.39c-0.21-0.41-0.29-0.72-0.23-0.93s0.27-0.42,0.63-0.61l2.16-1.11c0.36-0.19,0.65-0.24,0.86-0.17
				c0.21,0.07,0.41,0.29,0.6,0.65l0.05,0.09l-0.48,0.48L61.64,22.99z"/>
			<path class="st4" d="M68.41,20.05l-2.98,1.21l0.53,1.29l2.66-1.08c0.38-0.15,0.66-0.18,0.86-0.08c0.2,0.1,0.39,0.36,0.56,0.78
				l0.21,0.52c0.17,0.43,0.22,0.74,0.15,0.95c-0.07,0.21-0.3,0.39-0.68,0.54l-2.46,1c-0.38,0.16-0.67,0.18-0.88,0.09
				s-0.39-0.36-0.56-0.78l-0.05-0.13l0.59-0.43l0.3,0.75l3.14-1.27l-0.57-1.4l-2.65,1.08c-0.38,0.16-0.67,0.18-0.87,0.09
				c-0.2-0.1-0.38-0.36-0.56-0.78l-0.16-0.4c-0.17-0.42-0.22-0.74-0.15-0.95c0.07-0.21,0.3-0.39,0.68-0.55l2.25-0.91
				c0.38-0.15,0.66-0.18,0.87-0.09c0.2,0.09,0.38,0.33,0.54,0.71l0.04,0.1l-0.53,0.43L68.41,20.05z"/>
			<path class="st4" d="M71.77,19.34c-0.13-0.44-0.15-0.75-0.06-0.96c0.09-0.2,0.34-0.36,0.74-0.48l3.01-0.91
				c0.39-0.12,0.68-0.12,0.87,0s0.35,0.39,0.48,0.83l0.76,2.53c0.13,0.44,0.15,0.76,0.06,0.96c-0.09,0.2-0.34,0.36-0.73,0.48
				L73.9,22.7c-0.4,0.12-0.69,0.12-0.88,0c-0.19-0.12-0.35-0.39-0.48-0.83L71.77,19.34z M73.4,22.12l3.61-1.09l-1.05-3.47
				l-3.61,1.09L73.4,22.12z"/>
			<path class="st4" d="M80.28,20.91l-1-4.91l3.59-0.73c0.33-0.07,0.59-0.04,0.77,0.08c0.18,0.12,0.3,0.35,0.37,0.68l0.22,1.1
				c0.07,0.33,0.04,0.59-0.07,0.77c-0.12,0.18-0.34,0.3-0.68,0.37l-0.65,0.13l2.43,1.5l-1.11,0.23l-2.21-1.54l-1.31,0.27l0.39,1.91
				L80.28,20.91z M82.71,15.96l-2.56,0.52l0.35,1.72l2.56-0.52c0.19-0.04,0.3-0.1,0.36-0.19c0.05-0.09,0.06-0.23,0.02-0.41
				l-0.15-0.71c-0.04-0.19-0.1-0.31-0.18-0.37S82.89,15.93,82.71,15.96z"/>
			<path class="st4" d="M90.37,14.9l-3.2,0.37l0.16,1.39l2.85-0.33c0.4-0.05,0.69,0,0.85,0.15s0.28,0.45,0.33,0.9l0.06,0.56
				c0.05,0.46,0.02,0.78-0.11,0.96c-0.13,0.18-0.39,0.29-0.8,0.34l-2.64,0.31c-0.41,0.05-0.7,0-0.87-0.15s-0.28-0.45-0.33-0.9
				l-0.02-0.14l0.68-0.26l0.09,0.8l3.37-0.39L90.63,17l-2.84,0.33c-0.41,0.05-0.7,0-0.86-0.15s-0.27-0.45-0.33-0.9l-0.05-0.43
				c-0.05-0.45-0.02-0.77,0.11-0.95c0.13-0.18,0.4-0.3,0.81-0.34l2.41-0.28c0.4-0.05,0.69,0,0.86,0.15s0.28,0.42,0.33,0.82l0.01,0.1
				l-0.62,0.28L90.37,14.9z"/>
			<path class="st4" d="M97.43,18.82l0.06-5.01l3.67,0.04c0.34,0,0.59,0.08,0.74,0.24s0.22,0.4,0.22,0.74l-0.01,0.58
				c0,0.27-0.07,0.47-0.19,0.6s-0.32,0.21-0.58,0.24c0.26,0.04,0.45,0.14,0.58,0.31c0.13,0.17,0.2,0.4,0.19,0.68l-0.01,0.64
				c0,0.33-0.11,0.58-0.32,0.74c-0.21,0.16-0.53,0.24-0.95,0.23L97.43,18.82z M101.34,17.59l0.01-0.42c0-0.23-0.03-0.38-0.11-0.47
				c-0.07-0.09-0.2-0.13-0.39-0.13l-2.63-0.03l-0.02,1.61l2.63,0.03c0.19,0,0.32-0.04,0.4-0.12
				C101.3,17.96,101.34,17.81,101.34,17.59z M101.32,15.47l0.01-0.5c0-0.16-0.03-0.28-0.09-0.34s-0.19-0.1-0.37-0.1l-2.63-0.03
				l-0.02,1.38l2.63,0.03c0.18,0,0.3-0.03,0.37-0.1S101.32,15.63,101.32,15.47z"/>
			<path class="st4" d="M104.3,19.01l0.47-4.99l4.36,0.41l-0.06,0.67l-3.61-0.34l-0.13,1.39l2.2,0.21l-0.06,0.66l-2.2-0.21
				l-0.15,1.58l3.64,0.34l-0.06,0.68L104.3,19.01z"/>
			<path class="st4" d="M114.03,20.28l1.07-4.89l4.28,0.94l-0.14,0.66l-3.54-0.78l-0.3,1.36l2.16,0.47l-0.14,0.65l-2.16-0.47
				l-0.34,1.55l3.57,0.78l-0.15,0.67L114.03,20.28z"/>
			<path class="st4" d="M121.73,22.2l-0.93-5.51l0.78,0.24l0.72,4.58l3.05-3.44l0.72,0.22l-3.73,4.1L121.73,22.2z"/>
			<path class="st4" d="M126.13,23.63l1.82-4.67l4.08,1.59l-0.24,0.63l-3.38-1.31l-0.5,1.3l2.06,0.8l-0.24,0.62l-2.06-0.8
				l-0.58,1.48l3.41,1.33l-0.25,0.64L126.13,23.63z"/>
			<path class="st4" d="M131.98,26l2.19-4.5l3.3,1.6c0.31,0.15,0.5,0.33,0.56,0.53s0.03,0.46-0.12,0.77l-0.49,1.01
				c-0.15,0.3-0.32,0.49-0.52,0.56c-0.2,0.07-0.46,0.03-0.76-0.12l-0.6-0.29l1.02,2.66l-1.01-0.49l-0.81-2.56l-1.21-0.58l-0.85,1.76
				L131.98,26z M136.92,23.56l-2.35-1.14L133.8,24l2.35,1.14c0.17,0.08,0.3,0.11,0.4,0.07s0.18-0.14,0.27-0.31l0.32-0.66
				c0.08-0.17,0.11-0.31,0.08-0.41C137.18,23.73,137.08,23.64,136.92,23.56z"/>
			<path class="st4" d="M141.09,30.88l2.65-4.25l0.65,0.4l-2.65,4.25L141.09,30.88z"/>
			<path class="st4" d="M143.86,32.62l2.92-4.07l0.39,0.28l0.81,4.71c0.02,0.11,0.03,0.23,0.04,0.37c0.01,0.14,0.01,0.29,0.01,0.45
				c0.08-0.14,0.16-0.29,0.25-0.44c0.09-0.15,0.23-0.35,0.41-0.6l1.6-2.23l0.57,0.41l-2.92,4.07l-0.35-0.25l-0.81-4.87
				c0-0.02-0.01-0.06-0.02-0.11c-0.04-0.24-0.05-0.45-0.03-0.62c-0.07,0.13-0.16,0.27-0.25,0.42c-0.09,0.15-0.21,0.31-0.34,0.5
				l-1.72,2.4L143.86,32.62z"/>
			<path class="st4" d="M153.54,40.3l1.49-1.6l0.23-3.64l0.69,0.64l-0.21,2.85l2.77-0.48l0.68,0.63l-3.58,0.5l-1.5,1.62L153.54,40.3
				z"/>
			<path class="st4" d="M159.45,40.65c0.33-0.31,0.61-0.46,0.84-0.47c0.22,0,0.48,0.15,0.76,0.45l2.13,2.32
				c0.28,0.3,0.41,0.56,0.38,0.79c-0.02,0.22-0.2,0.49-0.54,0.8l-1.94,1.78c-0.34,0.31-0.62,0.47-0.84,0.47s-0.47-0.15-0.75-0.45
				l-2.13-2.32c-0.28-0.31-0.41-0.57-0.39-0.79s0.2-0.49,0.54-0.79L159.45,40.65z M157.66,43.32l2.55,2.78l2.67-2.45l-2.55-2.78
				L157.66,43.32z"/>
			<path class="st4" d="M166.18,46.55l-3.43,2.61l2.01,2.64l3.43-2.61l0.45,0.6l-3.04,2.31c-0.37,0.28-0.66,0.41-0.88,0.39
				c-0.22-0.02-0.46-0.19-0.7-0.52l-1.63-2.15c-0.25-0.33-0.35-0.6-0.31-0.82s0.25-0.47,0.61-0.74l3.04-2.31L166.18,46.55z"/>
			<path class="st4" d="M166.06,54.85l4.24-2.67l1.96,3.1c0.18,0.29,0.25,0.54,0.2,0.75c-0.05,0.21-0.22,0.4-0.51,0.59l-0.95,0.6
				c-0.29,0.18-0.53,0.25-0.74,0.2s-0.41-0.21-0.59-0.5l-0.36-0.56l-0.54,2.8l-0.6-0.95l0.66-2.61l-0.71-1.13l-1.65,1.04
				L166.06,54.85z M171.54,55.38l-1.39-2.21l-1.49,0.94l1.39,2.21c0.1,0.16,0.2,0.25,0.3,0.27c0.1,0.02,0.23-0.02,0.39-0.12
				l0.62-0.39c0.16-0.1,0.25-0.2,0.28-0.3C171.68,55.67,171.64,55.54,171.54,55.38z"/>
			<path class="st4" d="M171.21,63.79l4.53-2.13l1.84,3.92l-0.62,0.29l-1.52-3.23l-1.48,0.7l0.87,1.84l-0.6,0.28l-0.87-1.84
				l-1.83,0.86L171.21,63.79z"/>
			<path class="st4" d="M173.04,67.64l5.57,0.51l0.29,0.76l-3.76,4.17l-0.3-0.78l0.94-0.99l-1.11-2.87l-1.36-0.1L173.04,67.64z
				 M175.38,68.5l0.89,2.28l1.95-2.07L175.38,68.5z"/>
			<path class="st4" d="M175.86,75.44l4.06-3.85l0.24,0.78l-3.4,3.15l4.55,0.61l0.22,0.72l-5.49-0.81L175.86,75.44z"/>
			<path class="st4" d="M180.81,78.76c0.44-0.1,0.76-0.09,0.96,0.02c0.2,0.11,0.34,0.37,0.43,0.77l0.67,3.08
				c0.09,0.4,0.07,0.69-0.06,0.87c-0.13,0.18-0.42,0.32-0.87,0.42l-2.58,0.56c-0.45,0.1-0.77,0.09-0.96-0.02
				c-0.19-0.11-0.33-0.37-0.42-0.77l-0.67-3.08c-0.09-0.41-0.07-0.7,0.07-0.88s0.42-0.32,0.87-0.42L180.81,78.76z M177.91,80.16
				l0.8,3.68l3.55-0.77l-0.8-3.68L177.91,80.16z"/>
			<path class="st4" d="M178.58,87.12l4.97-0.62l0.45,3.64c0.04,0.34,0,0.59-0.14,0.76c-0.13,0.17-0.37,0.27-0.71,0.32l-1.11,0.14
				c-0.33,0.04-0.59,0-0.76-0.13c-0.17-0.13-0.28-0.37-0.32-0.7l-0.08-0.66l-1.68,2.31l-0.14-1.12l1.71-2.08l-0.17-1.33l-1.94,0.24
				L178.58,87.12z M183.32,89.93L183,87.34l-1.74,0.22l0.32,2.59c0.02,0.19,0.08,0.31,0.16,0.37c0.08,0.06,0.22,0.08,0.41,0.05
				l0.72-0.09c0.19-0.02,0.32-0.07,0.38-0.15C183.32,90.24,183.34,90.11,183.32,89.93z"/>
		</g>
		<path class="st8" d="M56.31,162.79"/>
		<g>
			<ellipse class="st4" cx="182.11" cy="107.1" rx="2.63" ry="2.62"/>
			<ellipse class="st4" cx="16.32" cy="107.1" rx="2.63" ry="2.62"/>
		</g>
		<polygon class="st4" points="128.84,181.84 127.81,181.62 128.83,178.62 129.55,178.77 		"/>
	</g>
</g>
<g id="wlepa2">
	<g>
		<circle class="st10" cx="99.21" cy="99.21" r="25.42"/>
		<path class="st10" d="M99.21,52.58c-25.75,0-46.63,20.88-46.63,46.63c0,25.75,20.88,46.63,46.63,46.63s46.63-20.88,46.63-46.63
			C145.84,73.46,124.97,52.58,99.21,52.58z M99.21,136.84c-20.76,0-37.59-16.83-37.59-37.59c0-20.76,16.83-37.59,37.59-37.59
			c20.76,0,37.59,16.83,37.59,37.59C136.81,120.01,119.97,136.84,99.21,136.84z"/>
		<g>
			<path class="st4" d="M84.17,129.28v-7.72h6.6c0.61,0,1.06,0.12,1.33,0.35c0.27,0.24,0.41,0.62,0.41,1.14v1.72
				c0,0.52-0.14,0.9-0.41,1.13c-0.28,0.24-0.72,0.35-1.33,0.35h-4.83v3.01H84.17z M89.98,122.9h-4.04v2.04h4.04
				c0.31,0,0.52-0.04,0.64-0.13c0.11-0.09,0.17-0.25,0.17-0.48v-0.83c0-0.22-0.06-0.38-0.17-0.47
				C90.5,122.95,90.29,122.9,89.98,122.9z"/>
			<path class="st4" d="M96.89,129.28l-2.97-7.72h1.85l1.96,5.18l2.05-5.18h1.26l2.09,5.18l1.87-5.18h1.61l-2.98,7.72h-1.21
				l-2.12-5.34l-2.15,5.34H96.89z"/>
			<path class="st4" d="M107.94,129.28v-4.53h4.08c0.37,0,0.64,0.07,0.81,0.21c0.17,0.14,0.25,0.36,0.25,0.67v1.07
				c0,0.31-0.08,0.53-0.25,0.66s-0.44,0.2-0.81,0.2h-0.62l2.15,1.71h-1.58l-1.9-1.71h-1.04v1.71H107.94z M111.55,125.53h-2.52v1.25
				h2.52c0.19,0,0.32-0.03,0.39-0.08s0.11-0.15,0.11-0.28v-0.52c0-0.13-0.04-0.23-0.11-0.28
				C111.87,125.56,111.74,125.53,111.55,125.53z"/>
		</g>
		<g>
			<g>
				
					<rect x="92.94" y="159.29" transform="matrix(0.0931 -0.9957 0.9957 0.0931 -74.7261 241.1141)" class="st10" width="4.11" height="4.57"/>
				<path class="st10" d="M99.21,31.54c-37.38,0-67.68,30.3-67.68,67.68c0,1.02,0.02,2.03,0.07,3.03
					c0.39,8.91,2.51,17.37,6.02,25.06c4.87,10.66,12.42,19.83,21.79,26.65c11.17,8.14,24.93,12.94,39.8,12.94
					c37.38,0,67.68-30.3,67.68-67.68C166.89,61.84,136.59,31.54,99.21,31.54z M88.55,158.77l-0.1,0.39
					c-0.08,0.3-0.19,0.51-0.32,0.65s-0.4,0.26-0.81,0.38l-4.21,1.21l3.59,0.96l0.24-0.9l1.06,0.62l-0.13,0.49
					c-0.12,0.46-0.3,0.75-0.54,0.87s-0.64,0.1-1.19-0.05l-5.2-1.39l0.15-0.55c0.07-0.27,0.19-0.46,0.34-0.58
					c0.15-0.12,0.4-0.22,0.74-0.33l4.97-1.46l0.21-0.8l-3.52-0.94l-0.34,1.26l-1.14-0.64l0.21-0.79c0.12-0.46,0.3-0.75,0.54-0.87
					c0.24-0.12,0.63-0.1,1.19,0.05l3.18,0.85c0.56,0.15,0.91,0.33,1.06,0.56C88.66,157.97,88.67,158.31,88.55,158.77z M98.77,160.29
					l-0.31,3.32c-0.05,0.58-0.19,0.96-0.41,1.15s-0.62,0.26-1.18,0.21l-4.31-0.4c-0.56-0.05-0.94-0.19-1.12-0.42
					s-0.25-0.63-0.19-1.21l0.31-3.32c0.05-0.58,0.19-0.96,0.41-1.15c0.22-0.19,0.61-0.26,1.18-0.21l4.31,0.4
					c0.57,0.05,0.94,0.19,1.13,0.42C98.75,159.31,98.82,159.71,98.77,160.29z M108.49,164.31c-0.19,0.19-0.57,0.31-1.14,0.36
					l-5.37,0.43l-0.05-0.57c-0.02-0.28,0.02-0.5,0.13-0.66c0.11-0.16,0.3-0.35,0.59-0.56l4.2-3.04l-0.07-0.82l-3.63,0.29l0.1,1.3
					l-1.29-0.22l-0.07-0.82c-0.04-0.47,0.04-0.81,0.22-1c0.18-0.19,0.56-0.31,1.14-0.36l3.28-0.26c0.58-0.05,0.97,0.01,1.18,0.17
					c0.21,0.16,0.34,0.48,0.38,0.95l0.03,0.41c0.02,0.31,0,0.54-0.08,0.72c-0.08,0.17-0.29,0.38-0.64,0.63l-3.57,2.55l3.71-0.3
					l-0.08-0.93l1.2,0.23l0.04,0.5C108.75,163.79,108.68,164.12,108.49,164.31z M118.69,162.06c-0.17,0.24-0.54,0.44-1.1,0.58
					l-3.6,0.92c-0.56,0.14-0.96,0.15-1.19,0.03c-0.24-0.12-0.41-0.41-0.53-0.87l-0.13-0.5l1.21-0.58l0.22,0.86l3.34-0.85
					c0.24-0.06,0.39-0.14,0.45-0.23s0.06-0.25,0.01-0.47l-0.11-0.45c-0.06-0.22-0.14-0.36-0.24-0.42s-0.27-0.05-0.5,0.01l-2.09,0.53
					l-0.25-1l1.87-0.48c0.24-0.06,0.38-0.14,0.44-0.23s0.06-0.25,0-0.48l-0.08-0.31c-0.06-0.23-0.14-0.37-0.23-0.42
					c-0.1-0.05-0.26-0.05-0.5,0.01l-3.06,0.78l0.2,0.77l-1.28,0.09l-0.1-0.38c-0.12-0.46-0.1-0.8,0.05-1.02
					c0.15-0.22,0.5-0.4,1.06-0.54l3.36-0.85c0.56-0.14,0.96-0.15,1.19-0.03c0.23,0.12,0.41,0.41,0.53,0.87l0.14,0.56
					c0.09,0.36,0.07,0.65-0.06,0.87s-0.41,0.42-0.84,0.6c0.51-0.08,0.9-0.05,1.19,0.09c0.28,0.14,0.47,0.41,0.57,0.79l0.16,0.64
					C118.89,161.44,118.87,161.81,118.69,162.06z M99.21,156.78c-10.56,0-20.46-2.84-28.96-7.81c-9.03-5.26-16.49-12.92-21.53-22.09
					c-4.03-7.33-6.5-15.64-6.99-24.47c-0.06-1.06-0.09-2.13-0.09-3.21c0-31.8,25.78-57.57,57.57-57.57
					c31.8,0,57.57,25.78,57.57,57.57S131.01,156.78,99.21,156.78z"/>
			</g>
		</g>
		<g>
			<g>
				<g>
					<g>
						<path class="st11" d="M57.69,138.48l-3.01-7.44l-7.96,18.41l18.43-4.95l-6-4.36l-4.09,3.68c-0.2,0.18-1.15,0.44-2.97,0.96
							c0,0,1.13-2.63,1.33-2.79L57.69,138.48z"/>
						<path class="st11" d="M90.83,112.9l-29.76,25.97c-0.4,0.34-1.01,0.3-1.36-0.1l-0.17-0.19c-0.36-0.41-0.32-1.03,0.1-1.38
							l31.29-27.17"/>
						<path class="st11" d="M98.84,103.2l35.83-30.15c0.43-0.37,1.09-0.28,1.42,0.19l0,0c0.29,0.41,0.22,0.97-0.16,1.3l-33.78,28.61
							"/>
						<path class="st11" d="M152.39,57.99l4.31-3.37c0.43-0.37,1.09-0.28,1.42,0.19l0,0c0.29,0.41,0.22,0.97-0.16,1.3l-4.03,3.47
							c-0.26,0.23-0.6,0.36-0.95,0.32C151.89,59.77,151.94,58.37,152.39,57.99z"/>
					</g>
					<path class="st11" d="M144.56,70.52l0.79-0.66l4.51,1.02c0.96-0.6,2.03-1.27,3.12-1.96l-5.03-1.19l0.79-0.66l5.28,1.19
						c0.99-0.62,1.98-1.24,2.91-1.82l-5.76-1.37l0.79-0.66l6.02,1.36c2.34-1.46,4.12-2.57,4.25-2.65c-0.01,0-10.3-2.3-10.3-2.3
						L138.4,72.38l7.59,0.93c0.17-0.1,1.28-0.8,2.84-1.78L144.56,70.52z"/>
					<path class="st11" d="M139.94,65.15l0.77-0.68l-0.29-4.62c0.75-0.85,1.57-1.8,2.43-2.77l0.38,5.15l0.77-0.68l-0.34-5.4
						c0.77-0.88,1.54-1.76,2.26-2.59l0.43,5.91l0.77-0.68l-0.39-6.16c1.82-2.08,3.83-4.23,3.92-4.35c0,0.01,0,11.11,0,11.11
						l-13.53,11.55l0.28-7.64c0.13-0.15,0.99-1.14,2.21-2.53L139.94,65.15z"/>
				</g>
			</g>
		</g>
		<g>
			<path class="st4" d="M49.95,85.35c0-1.59,0.28-2.68,0.85-3.26c0.57-0.58,1.65-0.88,3.25-0.88h12.1c1.58,0,2.65,0.29,3.22,0.87
				c0.57,0.58,0.85,1.67,0.85,3.27v9.22c0,1.61-0.28,2.7-0.85,3.28c-0.57,0.57-1.64,0.86-3.22,0.86h-12.1
				c-1.6,0-2.68-0.29-3.25-0.88c-0.57-0.58-0.85-1.67-0.85-3.26V85.35z M52.87,96.27h14.48V83.6H52.87V96.27z"/>
			<path class="st4" d="M79.1,98.71V81.21h14.1c1.31,0,2.26,0.27,2.84,0.8c0.58,0.54,0.87,1.4,0.87,2.59v2.04
				c0,0.94-0.23,1.64-0.7,2.1c-0.47,0.46-1.21,0.76-2.21,0.88c0.98,0.12,1.73,0.47,2.24,1.05c0.51,0.58,0.77,1.37,0.77,2.37v2.23
				c0,1.16-0.4,2.02-1.2,2.58c-0.8,0.56-2.02,0.84-3.65,0.84H79.1z M93.91,86.84v-1.75c0-0.57-0.12-0.97-0.37-1.19
				c-0.25-0.22-0.72-0.33-1.41-0.33h-10.1v4.83h10.1c0.67,0,1.14-0.12,1.4-0.35C93.78,87.82,93.91,87.41,93.91,86.84z M94.06,94.24
				v-1.46c0-0.79-0.14-1.34-0.42-1.65c-0.28-0.3-0.79-0.46-1.51-0.46h-10.1v5.63h10.1c0.74,0,1.25-0.15,1.52-0.45
				C93.92,95.56,94.06,95.02,94.06,94.24z"/>
			<path class="st4" d="M125.12,85.52l-0.02,9.05c0,1.61-0.28,2.7-0.85,3.28c-0.57,0.57-1.64,0.86-3.22,0.86h-12.1
				c-1.6,0-2.68-0.29-3.25-0.88c-0.57-0.58-0.85-1.67-0.85-3.26v-9.22c0-1.59,0.28-2.68,0.85-3.26c0.57-0.58,1.65-0.88,3.25-0.88
				h13.65c-1,0.84-2.89,2.39-2.86,2.36l-11.97,0.02v12.68h14.48l0.21-8.36 M112.72,79.36l3.46-5.76h2.95l-4.65,5.76H112.72z"/>
			<path class="st4" d="M131.67,98.71v-1.19l12.96-13.92H132.8v-2.38h16.5v0.99l-13.19,14.07h13.19v2.43H131.67z"/>
			<path class="st4" d="M36.87,106.58h-6.93v2.27h6.6c1.03,0,1.73,0.18,2.1,0.53c0.36,0.35,0.55,1.01,0.55,1.97v1.45
				c0,0.96-0.18,1.62-0.55,1.97c-0.36,0.35-1.06,0.53-2.1,0.53H30c-1.03,0-1.73-0.18-2.1-0.53c-0.36-0.35-0.55-1.01-0.55-1.97v-0.29
				l2.17-0.45v1.25h7.48v-2.41h-6.6c-1.03,0-1.72-0.18-2.08-0.53c-0.36-0.35-0.54-1.01-0.54-1.97v-1.17c0-0.96,0.18-1.62,0.54-1.97
				c0.36-0.35,1.05-0.53,2.08-0.53h6.01c0.99,0,1.68,0.17,2.06,0.51s0.57,0.94,0.57,1.81v0.22l-2.17,0.51V106.58z"/>
			<path class="st4" d="M49.33,106.62v8.69h-2.46v-8.69h-4.85v-1.89h12.19v1.89H49.33z"/>
			<path class="st4" d="M59.81,104.73v8.59h7.02v-8.59h2.45v8.08c0,0.97-0.18,1.63-0.54,1.98c-0.36,0.35-1.05,0.53-2.08,0.53h-6.69
				c-1.02,0-1.71-0.18-2.08-0.53c-0.36-0.35-0.55-1.01-0.55-1.98v-8.08H59.81z"/>
			<path class="st4" d="M74.81,115.31v-10.58h5.9c1.68,0,2.98,0.45,3.88,1.36c0.9,0.91,1.36,2.2,1.36,3.86
				c0,0.99-0.18,1.88-0.53,2.67c-0.35,0.79-0.85,1.41-1.49,1.87c-0.4,0.29-0.89,0.5-1.49,0.63c-0.59,0.13-1.35,0.2-2.28,0.2H74.81z
				 M76.95,113.32h2.76c1.47,0,2.51-0.26,3.12-0.79c0.61-0.53,0.92-1.4,0.92-2.61c0-1.08-0.25-1.9-0.76-2.46
				c-0.51-0.56-1.26-0.84-2.25-0.84h-3.78V113.32z"/>
			<path class="st4" d="M92.31,115.31v-10.58h10.83v1.8h-8.37v2.36h4.88v1.8h-4.88v2.62h8.47v1.99H92.31z"/>
			<path class="st4" d="M107.88,115.31v-10.58h1.68l7.45,6.24c0.25,0.21,0.48,0.4,0.67,0.59c0.19,0.18,0.37,0.37,0.53,0.57
				c-0.04-0.59-0.07-1.01-0.08-1.26c-0.01-0.25-0.02-0.44-0.02-0.57v-5.56h2.21v10.58h-1.68l-7.77-6.54
				c-0.19-0.17-0.35-0.32-0.49-0.45c-0.14-0.13-0.27-0.27-0.39-0.41c0.03,0.33,0.06,0.64,0.08,0.93c0.02,0.29,0.03,0.54,0.03,0.76
				v5.72H107.88z"/>
			<path class="st4" d="M130.77,106.62v8.69h-2.46v-8.69h-4.85v-1.89h12.19v1.89H130.77z"/>
			<path class="st4" d="M138.56,107.23c0-0.96,0.18-1.62,0.54-1.97c0.36-0.35,1.05-0.53,2.08-0.53h7.79c1.03,0,1.72,0.18,2.08,0.53
				c0.36,0.35,0.54,1.01,0.54,1.97v5.58c0,0.97-0.18,1.63-0.54,1.98c-0.36,0.35-1.05,0.53-2.08,0.53h-7.79
				c-1.03,0-1.72-0.18-2.08-0.53c-0.36-0.35-0.54-1.01-0.54-1.98V107.23z M141.02,113.32h8.12v-6.7h-8.12V113.32z M143.61,103.61
				l2.04-3.46h2.22l-2.95,3.46H143.61z"/>
			<path class="st4" d="M159.08,115.31L155,104.73h2.54l2.68,7.1l2.81-7.1h1.72l2.86,7.1l2.56-7.1h2.2l-4.08,10.58h-1.66l-2.91-7.32
				l-2.95,7.32H159.08z"/>
		</g>
		<g>
			<path class="st6" d="M181.67,106.99c0,43.03-39.81,78.83-85.3,77.79c-44.2-1-80.06-34.88-80.06-77.91"/>
			<path class="st4" d="M20.67,132.18l5.74-2.11l0.48,1.3l-5.74,2.11L20.67,132.18z"/>
			<path class="st4" d="M29.5,139.85l-1.91-3.88l-3.47,1.71l1.91,3.88l1.22-0.6l-1-2.03l0.93-0.46l1.6,3.24l-1.89,0.93
				c-0.5,0.25-0.89,0.33-1.16,0.23c-0.27-0.09-0.53-0.4-0.79-0.92l-1.81-3.68c-0.26-0.52-0.34-0.91-0.25-1.18
				c0.09-0.27,0.39-0.53,0.89-0.78l2.89-1.42c0.5-0.25,0.88-0.32,1.16-0.23s0.54,0.4,0.79,0.92l1.81,3.68
				c0.25,0.51,0.33,0.9,0.25,1.18c-0.09,0.27-0.37,0.53-0.84,0.76l-0.12,0.06l-0.82-1.1L29.5,139.85z"/>
			<path class="st4" d="M27.55,146.59l5.06-3.43l2.85,4.21c0.27,0.39,0.38,0.73,0.34,1.01c-0.04,0.28-0.23,0.54-0.57,0.77l-1.19,0.8
				c-0.34,0.23-0.65,0.31-0.93,0.24s-0.55-0.3-0.81-0.69l-0.44-0.64l-0.37,3.57l-1.11-1.64l0.57-3.28l-0.74-1.09l-1.91,1.29
				L27.55,146.59z M34.25,147.46l-1.75-2.58l-1.41,0.95l1.75,2.58c0.13,0.2,0.26,0.32,0.36,0.35c0.11,0.03,0.24,0,0.39-0.1
				l0.61-0.41c0.15-0.1,0.23-0.21,0.23-0.32C34.45,147.82,34.38,147.66,34.25,147.46z"/>
			<path class="st4" d="M32.91,154.17l0.5-0.44l6.02,0.28l-2.46-2.82l0.82-0.72l3.92,4.5l-0.46,0.4l-6.06-0.32l2.77,3.18l-0.87,0.76
				L32.91,154.17z"/>
			<path class="st4" d="M40.51,162.3l1.86-2.01l0.02-4.58l1.36,1.25l-0.09,3.11l3.1-0.33l1.2,1.1l-4.53,0.37l-1.88,2.04L40.51,162.3
				z"/>
			<path class="st4" d="M52.84,165.81l-3.15-2.3l-0.77,1.06l3,2.19c0.47,0.34,0.73,0.66,0.77,0.94c0.04,0.29-0.1,0.65-0.42,1.1
				l-0.49,0.68c-0.33,0.45-0.63,0.7-0.92,0.74s-0.66-0.1-1.13-0.45l-2.97-2.17c-0.47-0.34-0.73-0.66-0.77-0.94
				c-0.04-0.29,0.1-0.65,0.42-1.1l0.1-0.14l1.14,0.51l-0.43,0.58l3.4,2.48l0.82-1.13l-3-2.19c-0.47-0.34-0.72-0.65-0.77-0.94
				c-0.04-0.29,0.1-0.65,0.43-1.1l0.4-0.55c0.33-0.45,0.63-0.7,0.92-0.74s0.66,0.1,1.13,0.44l2.73,1.99
				c0.45,0.33,0.71,0.64,0.76,0.92c0.06,0.28-0.06,0.63-0.36,1.03l-0.07,0.1l-1.16-0.48L52.84,165.81z"/>
			<path class="st4" d="M54.1,172.67l2.97-5.35l1.22,0.68l-1.24,2.23l4.12-0.63l1.75,0.97l-4.84,0.6l2.3,4.98l-1.94-1.08l-1.81-4.08
				l-1.31,2.35L54.1,172.67z"/>
			<path class="st4" d="M61.5,176.69l5.46-4.35l1.23,0.51l0.8,6.96l-1.43-0.6l-0.15-1.51l-3.48-1.45l-1.15,0.97L61.5,176.69z
				 M64.89,175.46l2.41,1l-0.23-2.79L64.89,175.46z"/>
			<path class="st4" d="M76.44,182.09l1.31-5.97l3.74,0.82c1.07,0.23,1.83,0.67,2.29,1.31c0.46,0.64,0.59,1.43,0.38,2.37
				c-0.12,0.56-0.34,1.04-0.67,1.43s-0.71,0.68-1.18,0.85c-0.29,0.11-0.63,0.16-1.02,0.15c-0.39-0.01-0.88-0.08-1.47-0.21
				L76.44,182.09z M78.04,181.26l1.75,0.38c0.93,0.2,1.62,0.2,2.08-0.01c0.45-0.21,0.76-0.66,0.91-1.35
				c0.13-0.61,0.07-1.11-0.18-1.49c-0.25-0.38-0.7-0.65-1.33-0.78l-2.4-0.53L78.04,181.26z"/>
			<path class="st4" d="M86.02,184l0.07-0.66l4.59-3.9l-3.72-0.39l0.11-1.09l5.94,0.62l-0.06,0.6l-4.65,3.89l4.2,0.44l-0.12,1.14
				L86.02,184z"/>
			<path class="st4" d="M95.26,184.75l0.23-6.11l1.38,0.05l-0.23,6.11L95.26,184.75z"/>
			<path class="st4" d="M100.4,184.83l-0.36-6.1l6.08-0.35l0.06,1.04l-4.7,0.27l0.08,1.36l2.74-0.16l0.06,1.04l-2.74,0.16l0.09,1.51
				l4.75-0.28l0.07,1.15L100.4,184.83z"/>
			<path class="st4" d="M114.11,178.2l-3.84,0.68l0.23,1.29l3.65-0.64c0.57-0.1,0.98-0.07,1.21,0.1c0.24,0.17,0.4,0.52,0.5,1.07
				l0.15,0.83c0.1,0.55,0.06,0.94-0.1,1.18c-0.17,0.24-0.54,0.41-1.11,0.51l-3.62,0.64c-0.57,0.1-0.98,0.07-1.21-0.1
				c-0.24-0.17-0.4-0.52-0.5-1.07l-0.03-0.17l1.16-0.47l0.13,0.71l4.14-0.73l-0.24-1.37l-3.65,0.64c-0.57,0.1-0.97,0.07-1.21-0.1
				c-0.23-0.17-0.4-0.52-0.5-1.07l-0.12-0.67c-0.1-0.55-0.06-0.94,0.1-1.18c0.16-0.24,0.53-0.4,1.1-0.5l3.33-0.59
				c0.55-0.1,0.95-0.07,1.19,0.09c0.24,0.16,0.41,0.48,0.5,0.98l0.02,0.13l-1.15,0.5L114.11,178.2z"/>
			<path class="st4" d="M119.73,182.06l-1.59-5.91l1.34-0.36l1.59,5.91L119.73,182.06z"/>
			<path class="st4" d="M124.65,180.67l-2.08-5.75l5.73-2.07l0.35,0.98l-4.43,1.6l0.46,1.28l2.58-0.93l0.35,0.98l-2.58,0.93
				l0.51,1.42l4.48-1.62l0.39,1.08L124.65,180.67z"/>
			<path class="st4" d="M135.79,170.52l-3.35,1.66l1.72,3.47l3.35-1.66l-0.58-1.18l1.37-0.35l0.32,0.65
				c0.25,0.5,0.33,0.89,0.23,1.16c-0.09,0.27-0.4,0.54-0.91,0.79l-3.18,1.58c-0.52,0.26-0.91,0.34-1.18,0.25s-0.53-0.39-0.78-0.89
				l-1.43-2.89c-0.25-0.5-0.32-0.88-0.23-1.16c0.09-0.27,0.4-0.54,0.91-0.79l3.18-1.58c0.51-0.25,0.91-0.34,1.18-0.24
				c0.27,0.09,0.53,0.39,0.78,0.88l0.26,0.52l-1.14,0.82L135.79,170.52z"/>
			<path class="st4" d="M142.3,172.61l-3.17-5.23l1.18-0.72l3.17,5.23L142.3,172.61z"/>
			<path class="st4" d="M143.81,166.22c-0.33-0.45-0.48-0.81-0.43-1.1c0.04-0.28,0.29-0.6,0.76-0.94l3.52-2.61
				c0.46-0.34,0.84-0.5,1.12-0.45c0.28,0.04,0.59,0.29,0.92,0.73l1.92,2.59c0.33,0.45,0.48,0.82,0.44,1.1
				c-0.04,0.28-0.29,0.6-0.76,0.94l-3.52,2.61c-0.46,0.34-0.84,0.5-1.12,0.45s-0.59-0.29-0.92-0.74L143.81,166.22z M147.02,168.22
				l3.67-2.72l-2.31-3.11l-3.67,2.72L147.02,168.22z"/>
			<path class="st4" d="M155.32,163.14l-4.18-4.46l1.01-0.95l3.4,3.62l3.26-3.05l0.79,0.84L155.32,163.14z"/>
			<path class="st4" d="M161.52,157.08l-4.64-3.98l3.96-4.63l0.79,0.68l-3.06,3.58l1.04,0.89l1.79-2.09l0.79,0.68l-1.79,2.09
				l1.15,0.99l3.1-3.62l0.88,0.75L161.52,157.08z"/>
			<path class="st4" d="M166.15,142.73l-2.06,3.11l3.22,2.14l2.07-3.11l-1.09-0.73l1.01-0.99l0.6,0.4c0.47,0.31,0.73,0.61,0.78,0.89
				c0.06,0.28-0.08,0.66-0.39,1.14l-1.96,2.96c-0.32,0.48-0.62,0.75-0.9,0.81c-0.28,0.06-0.65-0.07-1.12-0.38l-2.68-1.78
				c-0.46-0.31-0.72-0.6-0.78-0.88c-0.06-0.28,0.07-0.66,0.39-1.14l1.97-2.96c0.32-0.48,0.62-0.75,0.9-0.8s0.66,0.07,1.12,0.38
				l0.48,0.32l-0.58,1.28L166.15,142.73z"/>
			<path class="st4" d="M172.83,141.21l-5.4-2.87l0.65-1.22l5.4,2.87L172.83,141.21z"/>
			<path class="st4" d="M174.77,137.64l-4.38-5.44l0.51-1.23l6.95-0.83l-0.59,1.44l-1.51,0.15l-1.43,3.49l0.97,1.15L174.77,137.64z
				 M173.52,134.25l0.99-2.41l-2.79,0.24L173.52,134.25z"/>
		</g>
		<g>
			<path class="st6" d="M18.95,99.22c0-44.99,36.09-81.65,82.13-80.34c42.13,1.2,78.4,35.57,78.4,80.56"/>
			<path class="st4" d="M15.16,91.4c0.1,0,0.2,0,0.31,0.01c0.11,0.01,0.25,0.02,0.42,0.04l3.35,0.39l-0.07,0.64l-4.97-0.57
				l0.07-0.62l3.49-1.82l-3-2.42l0.08-0.69l4.97,0.57l-0.08,0.69l-3.35-0.39c-0.04,0-0.15-0.02-0.33-0.05
				c-0.18-0.03-0.31-0.05-0.4-0.07c0.12,0.07,0.22,0.14,0.31,0.19c0.08,0.05,0.15,0.1,0.2,0.14l2.57,2.05l-0.02,0.19l-2.9,1.49
				c0,0-0.02,0.01-0.04,0.02C15.56,91.3,15.36,91.37,15.16,91.4z"/>
			<path class="st4" d="M20.06,85.36l-4.4-3.44l0.16-0.8l5.41-1.46l-0.17,0.82l-1.32,0.32l-0.62,3.01l1.09,0.82L20.06,85.36z
				 M18.56,83.37l0.5-2.4l-2.76,0.68L18.56,83.37z"/>
			<path class="st4" d="M21.84,77.53l-2.1-0.59l-3.34,1.47l0.25-0.91l2.63-1.11l-1.69-2.24l0.25-0.89l2.09,2.95l2.12,0.59
				L21.84,77.53z"/>
			<path class="st4" d="M21.01,66.59l4.01,1.62l-0.28,0.7l-4.01-1.62l-0.78,1.93l-0.63-0.26l1.85-4.56l0.63,0.26L21.01,66.59z"/>
			<path class="st4" d="M26.37,64.99l-4.48-2.24l0.34-0.68l1.83,0.92l1.61-3.21l-1.83-0.92l0.34-0.68l4.48,2.24l-0.34,0.68
				l-2.03-1.02l-1.61,3.21l2.03,1.02L26.37,64.99z"/>
			<path class="st4" d="M29.88,58.28l-4.26-2.62l2.29-3.73l0.57,0.35l-1.89,3.08l1.19,0.73l1.16-1.88l0.56,0.35l-1.16,1.89
				l1.36,0.83l1.91-3.11l0.58,0.36L29.88,58.28z"/>
			<path class="st4" d="M35.31,50.13L31.4,47l2.29-2.86c0.21-0.27,0.43-0.41,0.64-0.43s0.45,0.07,0.72,0.29l0.87,0.7
				c0.26,0.21,0.41,0.42,0.43,0.64c0.03,0.21-0.07,0.45-0.28,0.72l-1.82,2.27l1.52,1.22L35.31,50.13z M34.02,44.78l-1.63,2.04
				l1.36,1.09l1.63-2.04c0.12-0.15,0.17-0.27,0.15-0.38c-0.02-0.1-0.1-0.22-0.25-0.34l-0.54-0.44c-0.15-0.12-0.28-0.18-0.38-0.17
				C34.24,44.56,34.13,44.63,34.02,44.78z"/>
			<path class="st4" d="M39.5,45.05l-3.63-3.45l2.52-2.66c0.23-0.25,0.46-0.37,0.67-0.38c0.21,0,0.45,0.11,0.69,0.35l0.81,0.77
				c0.25,0.23,0.37,0.46,0.38,0.67c0.01,0.21-0.11,0.45-0.34,0.69l-0.46,0.48L43,41.36l-0.78,0.82l-2.69,0l-0.92,0.97l1.42,1.34
				L39.5,45.05z M38.66,39.6l-1.8,1.89l1.27,1.21l1.8-1.89c0.13-0.14,0.19-0.26,0.18-0.36c-0.01-0.1-0.08-0.22-0.22-0.35l-0.53-0.5
				c-0.14-0.13-0.26-0.2-0.36-0.2C38.91,39.4,38.79,39.47,38.66,39.6z"/>
			<path class="st4" d="M41.72,37.31c-0.3-0.34-0.45-0.62-0.45-0.85s0.16-0.47,0.47-0.75l2.36-2.08c0.31-0.27,0.57-0.39,0.79-0.37
				c0.22,0.03,0.48,0.21,0.78,0.56l1.74,1.98c0.3,0.35,0.45,0.63,0.45,0.85c0,0.22-0.16,0.47-0.47,0.74l-2.36,2.08
				c-0.31,0.27-0.58,0.4-0.8,0.37c-0.22-0.03-0.48-0.21-0.78-0.55L41.72,37.31z M44.35,39.16l2.83-2.48l-2.39-2.73l-2.83,2.48
				L44.35,39.16z"/>
			<path class="st4" d="M50.09,35.24l-2.97-4.03l3.48-2.57l0.41,0.55l-2.87,2.12l0.97,1.32l1.64-1.21l0.4,0.54l-1.64,1.21l1.2,1.62
				L50.09,35.24z"/>
			<path class="st4" d="M54.77,31.89l-2.66-4.24l3.71-2.33l0.36,0.57l-3.07,1.92l0.74,1.18l1.88-1.17l0.35,0.56l-1.88,1.17
				l0.84,1.35l3.1-1.94l0.36,0.58L54.77,31.89z"/>
			<path class="st4" d="M61.67,22.98l-2.86,1.47l0.64,1.24L62,24.39c0.36-0.18,0.64-0.24,0.85-0.16c0.21,0.08,0.42,0.32,0.63,0.73
				l0.26,0.5c0.21,0.41,0.29,0.72,0.23,0.93s-0.27,0.41-0.63,0.6l-2.36,1.21c-0.37,0.19-0.66,0.24-0.86,0.16
				c-0.21-0.08-0.42-0.32-0.63-0.73l-0.06-0.12l0.55-0.48l0.37,0.72l3.01-1.55l-0.69-1.34l-2.54,1.31
				c-0.37,0.19-0.65,0.24-0.86,0.16c-0.21-0.08-0.41-0.32-0.62-0.73l-0.2-0.39c-0.21-0.41-0.29-0.72-0.23-0.93s0.27-0.42,0.63-0.6
				l2.16-1.11c0.36-0.19,0.65-0.24,0.86-0.17c0.21,0.07,0.41,0.29,0.6,0.65l0.05,0.09L62,23.63L61.67,22.98z"/>
			<path class="st4" d="M68.41,20.05l-2.98,1.21l0.53,1.29l2.66-1.08c0.38-0.15,0.66-0.18,0.86-0.08c0.2,0.1,0.39,0.36,0.56,0.78
				l0.21,0.52c0.17,0.43,0.22,0.74,0.15,0.95c-0.07,0.21-0.3,0.39-0.68,0.54l-2.46,1c-0.38,0.16-0.67,0.18-0.88,0.09
				c-0.2-0.1-0.39-0.36-0.56-0.78l-0.05-0.13l0.59-0.43l0.3,0.75l3.14-1.27l-0.57-1.4l-2.65,1.08c-0.38,0.16-0.67,0.18-0.87,0.09
				c-0.2-0.1-0.38-0.36-0.56-0.78l-0.16-0.4c-0.17-0.42-0.22-0.74-0.15-0.95c0.07-0.21,0.3-0.39,0.68-0.55l2.25-0.91
				c0.38-0.15,0.66-0.18,0.87-0.09c0.2,0.09,0.38,0.33,0.53,0.71l0.04,0.1l-0.53,0.43L68.41,20.05z"/>
			<path class="st4" d="M71.81,19.33c-0.13-0.44-0.15-0.75-0.06-0.96c0.09-0.2,0.34-0.36,0.74-0.48l3.01-0.91
				c0.39-0.12,0.68-0.12,0.87,0c0.19,0.12,0.35,0.39,0.48,0.83l0.76,2.53c0.13,0.44,0.15,0.76,0.06,0.96s-0.34,0.36-0.73,0.48
				l-3.01,0.91c-0.4,0.12-0.69,0.12-0.88,0s-0.35-0.39-0.48-0.83L71.81,19.33z M73.43,22.11l3.61-1.09l-1.05-3.47l-3.61,1.09
				L73.43,22.11z"/>
			<path class="st4" d="M80.31,20.9l-1-4.9l3.59-0.73c0.33-0.07,0.59-0.04,0.77,0.08c0.18,0.12,0.3,0.35,0.37,0.68l0.22,1.09
				c0.07,0.33,0.04,0.59-0.07,0.77c-0.12,0.18-0.34,0.3-0.68,0.37l-0.65,0.13l2.43,1.5l-1.1,0.23l-2.2-1.54l-1.31,0.27l0.39,1.91
				L80.31,20.9z M82.74,15.96l-2.56,0.52l0.35,1.72l2.56-0.52c0.19-0.04,0.3-0.1,0.36-0.19c0.05-0.09,0.06-0.22,0.02-0.41
				l-0.15-0.71c-0.04-0.19-0.1-0.31-0.18-0.37C83.06,15.93,82.92,15.92,82.74,15.96z"/>
			<path class="st4" d="M90.36,14.9l-3.2,0.37l0.16,1.39l2.85-0.33c0.4-0.05,0.69,0,0.85,0.15s0.28,0.45,0.33,0.9l0.06,0.56
				c0.05,0.46,0.02,0.78-0.11,0.96c-0.13,0.18-0.39,0.29-0.8,0.34l-2.64,0.31c-0.41,0.05-0.7,0-0.87-0.15s-0.28-0.45-0.33-0.9
				l-0.02-0.14l0.68-0.26l0.09,0.8l3.36-0.39l-0.17-1.5l-2.84,0.33c-0.41,0.05-0.7,0-0.86-0.15c-0.16-0.15-0.27-0.45-0.33-0.9
				l-0.05-0.43c-0.05-0.45-0.02-0.77,0.11-0.95c0.13-0.18,0.39-0.3,0.81-0.34l2.41-0.28c0.4-0.05,0.69,0,0.86,0.15
				s0.28,0.42,0.33,0.82l0.01,0.1l-0.62,0.28L90.36,14.9z"/>
			<path class="st4" d="M97.43,18.82l0.06-5l3.67,0.04c0.34,0,0.59,0.08,0.74,0.24c0.15,0.15,0.22,0.4,0.22,0.74l-0.01,0.58
				c0,0.27-0.07,0.47-0.19,0.6c-0.12,0.13-0.32,0.21-0.58,0.24c0.25,0.04,0.45,0.14,0.58,0.31c0.13,0.17,0.2,0.39,0.19,0.68
				l-0.01,0.64c0,0.33-0.11,0.58-0.32,0.73c-0.21,0.16-0.53,0.24-0.95,0.23L97.43,18.82z M101.34,17.59l0-0.42
				c0-0.23-0.03-0.38-0.1-0.47c-0.07-0.09-0.2-0.13-0.39-0.13l-2.63-0.03l-0.02,1.61l2.63,0.03c0.19,0,0.32-0.04,0.4-0.12
				C101.3,17.97,101.33,17.81,101.34,17.59z M101.32,15.47l0.01-0.5c0-0.16-0.03-0.28-0.09-0.34c-0.06-0.06-0.19-0.1-0.37-0.1
				l-2.62-0.03l-0.02,1.38l2.62,0.03c0.17,0,0.3-0.03,0.37-0.1C101.29,15.75,101.32,15.63,101.32,15.47z"/>
			<path class="st4" d="M104.3,19.01l0.47-4.98l4.36,0.41l-0.06,0.67l-3.6-0.34l-0.13,1.39l2.2,0.21l-0.06,0.66l-2.2-0.21
				l-0.15,1.58l3.64,0.34l-0.06,0.68L104.3,19.01z"/>
			<path class="st4" d="M114,20.28l1.07-4.89l4.28,0.94l-0.14,0.66l-3.54-0.77l-0.3,1.36l2.16,0.47l-0.14,0.65l-2.16-0.47
				l-0.34,1.55l3.57,0.78l-0.15,0.67L114,20.28z"/>
			<path class="st4" d="M121.73,22.2l-0.93-5.51l0.78,0.24l0.72,4.58l3.04-3.44l0.72,0.22l-3.73,4.1L121.73,22.2z"/>
			<path class="st4" d="M126.1,23.62l1.82-4.66l4.08,1.59l-0.24,0.63l-3.37-1.31l-0.5,1.3l2.06,0.8l-0.24,0.62l-2.06-0.8l-0.58,1.48
				l3.41,1.32l-0.25,0.64L126.1,23.62z"/>
			<path class="st4" d="M131.98,26l2.19-4.5l3.3,1.6c0.31,0.15,0.5,0.33,0.56,0.53c0.07,0.2,0.03,0.46-0.12,0.77l-0.49,1.01
				c-0.15,0.3-0.32,0.49-0.53,0.56c-0.2,0.07-0.46,0.03-0.76-0.12l-0.6-0.29l1.02,2.66l-1.01-0.49l-0.81-2.56l-1.2-0.58l-0.85,1.75
				L131.98,26z M136.92,23.56l-2.35-1.14L133.8,24l2.35,1.14c0.17,0.08,0.3,0.1,0.4,0.07c0.1-0.04,0.18-0.14,0.27-0.31l0.32-0.66
				c0.08-0.17,0.11-0.31,0.08-0.41C137.18,23.73,137.08,23.64,136.92,23.56z"/>
			<path class="st4" d="M141.09,30.88l2.65-4.25l0.65,0.4l-2.64,4.25L141.09,30.88z"/>
			<path class="st4" d="M143.84,32.6l2.92-4.07l0.39,0.28l0.81,4.7c0.02,0.11,0.03,0.23,0.04,0.37c0.01,0.14,0.01,0.29,0.01,0.45
				c0.08-0.14,0.16-0.29,0.25-0.44s0.23-0.35,0.41-0.6l1.6-2.23l0.57,0.41l-2.92,4.07l-0.35-0.25l-0.81-4.87
				c0-0.02-0.01-0.06-0.02-0.11c-0.04-0.24-0.05-0.45-0.03-0.62c-0.08,0.13-0.16,0.27-0.25,0.42c-0.09,0.15-0.21,0.31-0.34,0.5
				l-1.72,2.4L143.84,32.6z"/>
			<path class="st4" d="M153.52,40.28l1.48-1.6l0.23-3.64l0.69,0.64l-0.21,2.84l2.77-0.48l0.68,0.63l-3.58,0.5l-1.5,1.61
				L153.52,40.28z"/>
			<path class="st4" d="M159.43,40.63c0.33-0.31,0.61-0.46,0.84-0.47c0.22,0,0.48,0.15,0.76,0.45l2.13,2.32
				c0.28,0.3,0.41,0.56,0.38,0.78c-0.02,0.22-0.2,0.49-0.54,0.8l-1.94,1.78c-0.34,0.31-0.62,0.47-0.84,0.47
				c-0.22,0-0.47-0.15-0.75-0.45L157.33,44c-0.28-0.31-0.41-0.57-0.39-0.79c0.02-0.22,0.2-0.49,0.54-0.79L159.43,40.63z
				 M157.64,43.3l2.55,2.77l2.67-2.45l-2.55-2.77L157.64,43.3z"/>
			<path class="st4" d="M166.16,46.52l-3.43,2.61l2.01,2.64l3.43-2.61l0.45,0.6l-3.04,2.31c-0.37,0.28-0.66,0.41-0.88,0.39
				c-0.22-0.02-0.46-0.19-0.7-0.52l-1.63-2.15c-0.25-0.33-0.35-0.6-0.31-0.82s0.25-0.47,0.61-0.74l3.04-2.31L166.16,46.52z"/>
			<path class="st4" d="M166.04,54.83l4.23-2.67l1.96,3.1c0.18,0.29,0.25,0.54,0.2,0.75c-0.05,0.21-0.22,0.4-0.51,0.59l-0.95,0.6
				c-0.29,0.18-0.53,0.25-0.74,0.2c-0.21-0.05-0.41-0.21-0.59-0.5l-0.36-0.56l-0.54,2.8l-0.6-0.95l0.66-2.61l-0.71-1.13l-1.65,1.04
				L166.04,54.83z M171.52,55.36l-1.39-2.21l-1.49,0.94l1.39,2.21c0.1,0.16,0.2,0.25,0.3,0.27c0.1,0.02,0.23-0.02,0.39-0.12
				l0.62-0.39c0.16-0.1,0.25-0.2,0.28-0.3C171.66,55.64,171.62,55.51,171.52,55.36z"/>
			<path class="st4" d="M171.19,63.73l4.53-2.13l1.85,3.92l-0.62,0.29l-1.52-3.23l-1.48,0.7l0.87,1.84l-0.6,0.28l-0.87-1.84
				l-1.83,0.86L171.19,63.73z"/>
			<path class="st4" d="M173.01,67.58l5.57,0.5l0.29,0.76l-3.75,4.17l-0.3-0.78l0.94-0.99l-1.11-2.87l-1.36-0.1L173.01,67.58z
				 M175.35,68.44l0.89,2.28l1.94-2.07L175.35,68.44z"/>
			<path class="st4" d="M175.85,75.41l4.05-3.85l0.24,0.78l-3.4,3.15l4.55,0.61l0.22,0.72l-5.48-0.8L175.85,75.41z"/>
			<path class="st4" d="M180.79,78.7c0.44-0.1,0.76-0.09,0.96,0.02c0.2,0.11,0.34,0.37,0.43,0.77l0.67,3.07
				c0.09,0.4,0.07,0.69-0.06,0.87c-0.13,0.18-0.42,0.32-0.87,0.42l-2.58,0.56c-0.45,0.1-0.77,0.09-0.96-0.02
				c-0.19-0.11-0.33-0.36-0.42-0.77l-0.67-3.07c-0.09-0.41-0.07-0.7,0.07-0.88s0.42-0.32,0.86-0.42L180.79,78.7z M177.9,80.1
				l0.8,3.68l3.54-0.77l-0.8-3.68L177.9,80.1z"/>
			<path class="st4" d="M178.57,87.06l4.97-0.62l0.46,3.64c0.04,0.34,0,0.59-0.14,0.76c-0.13,0.17-0.37,0.27-0.71,0.32l-1.11,0.14
				c-0.34,0.04-0.59,0-0.76-0.13c-0.17-0.13-0.28-0.36-0.32-0.7l-0.08-0.66l-1.68,2.31l-0.14-1.12l1.71-2.08l-0.17-1.33l-1.94,0.24
				L178.57,87.06z M183.31,89.86l-0.32-2.59l-1.74,0.22l0.32,2.59c0.02,0.19,0.08,0.31,0.16,0.37c0.08,0.06,0.22,0.08,0.41,0.05
				l0.72-0.09c0.19-0.02,0.32-0.07,0.38-0.15C183.31,90.18,183.33,90.04,183.31,89.86z"/>
		</g>
		<path class="st8" d="M56.31,162.79"/>
		<g>
			<ellipse class="st4" cx="182.11" cy="107.1" rx="2.63" ry="2.62"/>
			<ellipse class="st4" cx="16.32" cy="107.1" rx="2.63" ry="2.62"/>
		</g>
		<polygon class="st12" points="128.94,181.49 127.91,181.27 128.93,178.27 129.65,178.43 		"/>
	</g>
	<g>
	</g>
	<g>
	</g>
	<g>
	</g>
	<g>
	</g>
	<g>
	</g>
</g>
</svg>
