<?xml version="1.0" encoding="utf-8"?>
<!-- Generator: Adobe Illustrator 25.0.0, SVG Export Plug-In . SVG Version: 6.00 Build 0)  -->
<svg version="1.1" id="Warstwa_1" xmlns="http://www.w3.org/2000/svg" xmlns:xlink="http://www.w3.org/1999/xlink" x="0px" y="0px"
	 viewBox="0 0 1000 1000" style="enable-background:new 0 0 1000 1000;" xml:space="preserve">
<style type="text/css">
	.st0{fill:#FFFFFF;}
</style>
<g id="Warstwa_1_1_">
	<g>
		<path class="st0" d="M228.62,174.8c-0.07,11.52-10.88,19.6-22.15,14.84c-36.46-15.38-72.7-31.37-108.74-47.71
			c-8.65-3.92-12.02-11.82-7.56-21.23c4.41-9.29,12.48-11.77,21.21-8.04c36.03,15.37,71.81,31.3,107.65,47.1
			C225.42,162.58,228.69,167.69,228.62,174.8z"/>
		<path class="st0" d="M118.05,253.79c25.28,1.71,50.57,3.33,75.84,5.15c11.39,0.81,18.08,7.67,17.43,17.36
			c-0.64,9.62-8.24,15.93-19.53,15.24c-30.35-1.84-60.7-3.85-91.01-6.14c-13.66-1.03-20.75-7.98-19.53-18
			c1.23-10.19,9.07-15.06,22.87-14.21c4.64,0.28,9.27,0.56,13.92,0.84C118.04,253.96,118.04,253.88,118.05,253.79z"/>
		<path class="st0" d="M281.55,84.03c-0.23,13.87-14.35,22.38-24.41,14.49c-24.63-19.32-48.46-39.68-72.03-60.27
			c-6.44-5.61-6.07-13.95-0.57-20.73c5.94-7.32,14.38-8.81,21.44-3.13c24.09,19.33,47.59,39.4,71.15,59.4
			C280.36,76.53,282.07,80.66,281.55,84.03z"/>
		<path class="st0" d="M134.96,409.33c-10.84-0.41-16.6-4.99-18.34-13.3c-1.76-8.51,1.97-15.94,10.29-17.92
			c25-5.94,50.15-11.25,75.43-15.79c8.31-1.49,14.6,3.81,16.69,12.34c2.1,8.65-1.56,16.33-9.49,18.33
			C184.22,399.34,158.54,404.27,134.96,409.33z"/>
		<path class="st0" d="M786.83,937.09c-0.12-50.83-30.49-81.21-81.51-81.32c-46.2-0.09-92.38,0.03-138.57-0.09
			c-4.46-0.01-9.23,1.37-13.57-1.5c-0.28-1.29-0.77-2.49-0.77-3.7c-0.05-66.11-0.05-132.22-0.11-198.32c0-3.92,0.62-7.36,3.23-10.59
			c15.67-19.37,21.36-41.79,19.37-66.35c13.01-1.14,25.7-1.75,38.24-3.44c39.59-5.34,68.39-24.83,78.55-65.06
			c23.08-91.43,44-183.41,58.68-276.56c9.34-59.29-10.49-107.55-64.26-139.07c-26.99-15.83-54.07-31.49-82.73-44.11
			C566.6,30.75,528.45,20.86,487.77,22.4c-64.54,2.44-111.12,41.21-124.69,104.35c-20.7,96.31-41.33,192.63-62.07,288.94
			c-12.66,58.82,5.16,94.82,59.72,120.14c19.15,8.89,39.53,14.3,60.47,20.25c0,11.91-0.53,23.33,0.12,34.67
			c1.03,17.97,4.61,35.5,17.04,49.42c4.91,5.49,6.71,10.83,6.68,18.04c-0.24,61.87-0.12,123.74-0.19,185.61
			c0,3.7,1.06,7.65-2.05,11.93c-4.01,0-8.59,0-13.19,0c-50.85,0-101.7-0.34-152.55,0.11c-41.42,0.37-72.06,27.16-76.3,66.75
			c-1.44,13.42-0.54,27.1-0.56,40.65c-0.03,19.93,4.62,24.53,24.75,24.53c178.83,0.03,357.65,0.01,536.48,0.01
			c2.11,0,4.24,0.08,6.36-0.03c12.81-0.7,18.5-6.13,18.95-18.91C787.12,958.29,786.86,947.69,786.83,937.09z M437.11,427.56
			c-10.53-0.75-16.43,5.16-18.46,15.28c-4.54,22.66-4.93,45.38-1.08,68.18c0.47,2.87,0.92,5.76,1.41,8.76
			c-21.43-2.06-31.76-12.77-33.29-33.89c-1.14-15.75,1.21-31.27,2.94-46.85c1.41-12.71-3.52-21.05-13.47-21.8
			c-11.36-0.85-16.71,5.76-18.58,16.46c-3.28,18.83-4.74,37.74-2.93,59.82c-14.61-10.26-21.34-22.34-24.13-37.14
			c-2.7-14.27,2.09-27.63,5.06-41.21c2.62-11.97,5.14-23.95,7.16-33.39c37.44,0,73.79,0.57,110.12-0.16
			c33.39-0.66,64.54,6.11,93.27,23.38c3.25,1.95,6.85,3.29,10.3,4.89c13.45,6.22,22.56,4.47,27.16-5.21
			c4.68-9.83-0.12-16.71-13.18-24.48c-39.78-23.68-82.83-32.72-128.68-31.73c-30,0.65-60.02,0.12-91.16,0.12
			c1.83-12.47,2.87-21.08,5.6-27.92c47.75,0,94.29-0.41,140.8,0.24c15.36,0.22,29.47,7.08,43.38,13.34
			c10.79,4.85,21.53,9.81,32.36,14.54c9.38,4.09,17.2,1.15,21.35-7.58c4.09-8.61,2.05-17.08-7.22-21.48
			c-35.13-16.7-70.13-33.47-110.7-32.55c-32.6,0.73-65.23-0.27-97.85-0.5c-4.57-0.03-9.14,0-14.87,0c2.13-10,3.94-18.57,5.68-26.72
			c3.58-2.49,7.08-1.61,10.37-1.59c33.89,0.31,67.82,1.76,101.66,0.75c29.64-0.89,56.94,5.61,83.17,18.65
			c8.31,4.13,16.74,8.26,25.52,11.12c8.74,2.86,16.37-0.58,19.78-9.2c3.28-8.32,1.27-16.47-7.4-20.5
			c-37.6-17.46-75.08-34.67-118.32-33.16c-35.46,1.25-71,0.26-107.49,0.26c2.29-10.61,4.23-19.61,6.57-30.47
			c35.31,0,70.49,1.44,105.47-0.41c34.42-1.82,66.3,4.05,96.4,20.68c6.25,3.44,12.99,6.21,19.79,8.4c9.16,2.97,15.83-1.21,19.52-9.5
			c3.62-8.16,1.11-16.17-6.64-19.49c-34.33-14.69-66.96-34.21-106.66-32.88c-39.7,1.34-79.47,0.3-120.64,0.3
			c6.52-34.8,11.58-69.81,47.44-92.15c-3.4,11.82-6.74,21.3-8.76,31.05c-2.44,11.86,3.13,21.24,13.04,22.23
			c11.24,1.13,16.79-5.16,19-15.93c2.91-14.15,7.65-27.73,16.97-39.19c7.59-9.33,16.75-15.36,30.89-13.28
			c-4.55,8.87-9.04,17.08-13.04,25.52c-4.17,8.81-7.55,17.93-7.51,27.92c0.04,9.57,3.62,16.55,13.88,18.16
			c10.4,1.64,16.13-4.11,18.38-13.32c2.51-10.3,5.02-20.56,9.71-30.09c7.97-16.2,17.66-20.51,36.41-16.42
			c1.22,4.76-3.43,6.22-5.49,8.85c-8.72,11.13-16.32,22.75-18.03,37.15c-1.27,10.76,4.66,19.91,13.91,20.9
			c10.67,1.14,16.05-4.58,18.41-14.87c6.86-29.85,26.03-38.52,52.65-24.16c12.65,6.82,25.33,13.6,37.57,21.09
			c47.23,28.95,61.73,60.71,53.15,115.37c-0.58,3.75-1.37,7.48-2.3,12.58c-13.26-7.16-26.04-14.18-38.94-20.97
			c-11.21-5.9-20.74-4.23-25.47,4.15c-5.07,8.97-1.36,18.2,10.25,24.68c12.55,6.99,25.05,14.11,37.9,20.51
			c7.4,3.69,11.44,7.43,7.66,16.42c-2.39,5.67-2.83,12.13-4.46,19.64c-13.85-7.31-26.78-14.26-39.82-21
			c-12.12-6.28-21.62-4.43-26.42,4.87c-4.81,9.33-1.02,17.68,11.35,24.32c11.91,6.38,23.61,13.34,36.02,18.6
			c10.27,4.36,12.46,10.64,9.19,20.4c-1.33,3.94-2.06,8.09-3.43,13.65c-15.1-7.62-29.55-15.25-44.3-22.27
			c-12.89-6.14-24.81-0.11-25.51,12.44c-0.46,8.3,4.12,13.24,11.14,16.78c16.94,8.54,33.78,17.31,51.16,26.24
			c-0.68,10.23-3.19,19.84-6.28,31.12c-13.19-7.37-25.5-14.34-37.87-21.16c-12.19-6.7-21.43-5.48-26.68,3.38
			c-5.48,9.22-1.63,18.29,11.01,25.46c15.05,8.54,30.19,16.93,46.01,25.8c-3.62,16.17-6.82,32.22-14.4,46.93
			c-8.77,17.04-24.87,21.88-42.1,24.29c-25.77,3.59-51.6,2.14-77.37,0.09c-13.45-1.07-21.82-9.72-23.76-23.9
			c-2.02-14.79-0.94-29.58,1.17-44.31c0.6-4.19,1.29-8.38,1.55-12.59c0.6-9.54-4.32-15.66-13.31-17.23
			c-9.07-1.57-15.62,2.86-18.19,11.93c-6.11,21.55-6.09,43.47-3.38,65.5c0.52,4.15,1.38,8.24,2.09,12.39
			c-18.68,1.53-28.18-5.73-31.41-23c-3.27-17.43-0.05-34.62,1.33-51.89c0.2-2.52,0.91-5.02,1.11-7.54
			C452.18,437,446.51,428.22,437.11,427.56z M521.6,628.36c-15.32,9.81-31.3,10.06-46.63,0.77c-25.96-15.72-20.97-41.52-20.77-66.46
			c28.85,3.47,57.08,6.86,86.74,10.42C542.95,594.83,542.27,615.12,521.6,628.36z M754.03,954.78c-173.98,0-346.56,0-520.51-0.01
			c-0.11-14.91-3.28-30.02,4.5-44.16c8.87-16.08,23.08-22.43,41.09-22.37c51.64,0.19,103.3,0.07,154.95,0.07
			c88.07,0,176.12,0,264.19,0c42.73,0,56,13.38,55.79,56.23C754.02,947.49,754.03,950.44,754.03,954.78z"/>
	</g>
</g>
<g id="Warstwa_2_1_">
</g>
</svg>
