<?xml version="1.0" encoding="utf-8"?>
<!-- Generator: Adobe Illustrator 25.0.0, SVG Export Plug-In . SVG Version: 6.00 Build 0)  -->
<svg version="1.1" id="Warstwa_1" xmlns="http://www.w3.org/2000/svg" xmlns:xlink="http://www.w3.org/1999/xlink" x="0px" y="0px"
	 viewBox="0 0 900 1600" style="enable-background:new 0 0 900 1600;" xml:space="preserve">
<style type="text/css">
	.st0{fill:#DC7D29;}
</style>
<path class="st0" d="M407.47,589.47"/>
<g>
	<g>
		<path d="M537.74,381.74l18.21-0.6c0,0,20.48-8.03,28.88-20.08c8.4-12.05,33.61-67.32,68.92-64.08c0,0,15.72-18.91,48.42-18.52
			c32.7,0.39,65.14-13.68,65.14-13.68s17.87-4.51,15.58,2.18c0,0,69.09-16.26,89.21-39.74c0,0,1.89,14.28-26.49,35.45
			c-28.37,21.17,40.19-1.33,40.19-1.33s0.01,14.53-25.08,25.84c-25.09,11.31-53.84,25.87-34.01,26.69
			c19.83,0.82,34.99-1.71,34.99-1.71s6.21,16.72-43.68,22.53c0,0-18.21,6.98-3.2,10.9c15.01,3.92,47.06,9.97,22.14,16.68
			s-38.23,3.66-24.17,19.93s-3.52,17.22-14.66,17.59c0,0,4.59,15.11,1.93,25.13c0,0-26.09-19-43.68,5.12c0,0-8.62,5.62-31.68,2.15
			c0,0,2.16,13.17,1.04,17.07c0,0,1.64,1.97-12.5,2.07c0,0,7.37,23.18-12.49,24.57c0,0-0.27,10.8-6.22,14.67
			c-5.95,3.88-9.22,6.44-15.34,4.92c0,0,1.92,13.67-13.52,9.28c0,0-6.92,18.78-16.71,1.61c-9.79-17.16-8.97-5.18-8.97-5.18
			s6.33,36.02-16.53,14.89c0,0-3.29,14.45-19.19-0.47c0,0-7.94,11.85-18.83-3.79c-10.89-15.64-8.25,7.08-18.29,7.78
			s-13.63,1.37-19.15-8.75c-5.52-10.12-9.24,5.82-9.24,5.82L537.74,381.74z"/>
		<path d="M353.26,377.93c0,0-13.53,3.48-33.81-14.77c-20.28-18.25-36.53-67.78-83.15-70.95c0,0-80.48-45.09-77.81-19.24
			c0,0-125.65-23.23-142.1-41.95c0,0,0.71,24.9,30.53,35.09l-32.17-10.99c0,0-4.48,14.21,11.21,21.3
			c34.39,15.55,16.8,13.61,0.41,12.5c0,0-9.33,16.24,43.62,28.65c0,0,19.66,2.56-25.27,11.73c0,0,5.15,11.11,20.07,15.06
			c0,0-1.95,16.29,16.42,19.11c0,0-9.37,13.65,17.25,19.37c0,0-5.69,18.44,9.14,23.85c0,0,1,13.27,15.49,14.26
			c14.49,0.99,9.67,6.77,30.54-2.32c0,0-4.38,8.51,5.15,8.05c0,0-1.07,15.7,14.04,12.33c0,0-8.91,23.97,11.15,26.8
			c0,0-4.24,29.79,28.25,17.33c0,0,4.22,26.33,16.35,20.19c12.13-6.14,13.14,6.93,27.01,3.02c13.88-3.91,11.04-4.1,11.04-4.1
			s0.3,9.56,9.15,5.02c0,0,6.41,12.74,15.33,2.61c8.92-10.13,9.34,11.54,22.35,1.79c0,0,9.38,15.68,19.37-0.88l5.04,0.34
			l15.52-135.03"/>
	</g>
	<g>
		<path d="M398.28,518.38c0,0-14.04,170.86-74.39,270.97c0,0,18.25,2.67,30.88-22.69c0,0,2.81,40.05,19.65-4
			c0,0,16.84,17.35,23.86-12.01c0,0,11.58,11.35,16.84-9.68c0,0,34.86-192.22,73.69,0c0,0,6.32,24.81,12.4,9.23
			c0,0,7.02,29.81,17.78,11.57c0,0,12.63,37.82,21.99,12.9c0,0,11.7,13.95,35.09,14.76c0,0-50.53-81.51-67.84-271.06H398.28z"/>
	</g>
	<path class="st0" d="M257.76,419.44c0-106.16,86.06-192.22,192.22-192.22S642.2,313.28,642.2,419.44s-86.06,192.22-192.22,192.22
		S257.76,525.6,257.76,419.44z"/>
	<g>
		<g>
			<g>
				<path class="st0" d="M606.24,580.71c0.09-0.11-0.1-0.23-0.2-0.13c-4.35,4.45-12.02,11.26-18.99,20.42
					c-8.55,11.23-8.89,21.75-8.89,21.75s-1.1,8.99,3.55,6.93c1.9-0.84,2.46-2.49,2.8-6.67c0.49-5.93,1.13-13.46,7.79-23.9
					C596.77,592.09,603.7,583.82,606.24,580.71z"/>
				<path class="st0" d="M659.09,524.7c0.45-0.77,0.9-1.57,1.36-2.39c3.62-6.64,7.14-15.11,7.61-21.92
					c0.53-7.66-1.42-15.52-6.4-21.84c-1.31-1.66-2.84-3.23-4.82-4.31c-1.38-0.75-2.92-1.25-4.49-1.67
					c-0.57-0.15-1.14,0.24-1.08,0.75c0.66,5.79-1.53,11.78-0.09,17.48c1.1,4.36,4.21,8.08,6.92,11.87c2.71,3.79,5.15,8.04,4.67,12.5
					c-0.16,1.49-0.65,2.95-1.21,4.37C660.86,521.31,660.03,523.03,659.09,524.7c0,0,1.76-4.19,3.64-4.94
					c1.88-0.75,8.63-1.5,15.69-1.88c6.28-0.34,16.75-3.64,21.27-7.13c3.9-3.01,5.91-6.52,6.7-8.19c0.23-0.48-0.16-1-0.77-1.02
					c-4.38-0.15-19.84-0.14-28.91,6.61c-10.64,7.92-15.12,11.99-15.12,11.99L659.09,524.7z"/>
				<path class="st0" d="M594.16,593.81c0.94-0.51,2.27-4.4,3.29-4.93c8.18-4.21,16.46-6.94,25.48-8.25
					c10.15-1.48,21.05-0.68,30.48,3.12c2.48,1,4.88,2.22,6.71,3.9c1.28,1.18,2.24,2.54,3.11,3.94c0.31,0.51-0.1,1.09-0.79,1.1
					c-7.87,0.13-15.47,2.93-23.37,2.33c-6.05-0.46-11.64-2.86-17.24-4.88c-5.6-2.02-11.77-3.73-17.64-2.72
					c-1.96,0.34-3.82,0.98-5.61,1.68c-2.21,0.87-1.85,3.49-3.91,4.58c0,0,2.12-4.06,3.4-5.64c2.59-3.2,5.91-10.32,5.04-16.9
					c-0.78-5.86-2.61-13.07-0.45-18.39c2.07-5.09,6.57-14.3,7.92-11.59c6.23,12.53,7.66,27.83,0.41,37.09
					c-8.52,10.86-13.2,10.9-13.2,10.9L594.16,593.81z"/>
				<path class="st0" d="M679.04,494.59c4.22-1.58,8.62-2.7,12.99-3.93c4.64-1.31,9.31-2.97,12.81-5.9
					c0.99-0.83,1.88-1.76,2.71-2.71c1.68-1.92,3.17-3.97,4.43-6.1c1.23-2.08,1.54-4.01,2.34-6.18c0.09-0.25,0.17-0.53,0-0.74
					c-0.17-0.21-0.52-0.25-0.82-0.26c-10.69-0.36-21.49,3.43-29.13,9.91c-4.04,3.43-5.95,5.2-7.82,10.47
					c-0.69,1.94-1.59,3.88-2.2,5.81c-0.58,1.84-1.15,5.73-1.17,7.62c0.03-3.02,1.65-6.36,4.99-7.67
					C678.46,494.81,678.75,494.7,679.04,494.59z"/>
				<path class="st0" d="M670.28,463.33c-4.03-4.51-9.4-8.09-15.32-10.22c-1.2-0.43-2.45-0.81-3.7-0.77
					c-0.69,0.02-1.46,0.26-1.6,0.85c-0.07,0.31,0.05,0.64,0.18,0.94c0.93,2.16,4.79,9.94,6.24,11.89c4.24,5.67,9.08,5.52,13,11.35
					c3.69,5.5,6.83,12.1,6.56,13.43c-0.89,4.34,0.7,0.8,0.36-0.17c-0.94-2.65,0.89-10.82-0.07-14.48
					C674.71,471.48,673.71,467.16,670.28,463.33z"/>
				<path class="st0" d="M689.66,449.85c0.87-1.38,3.94-4.95,6.09-6.26c5.34-3.24,8.54-3.33,14.98-4.23
					c2.06-0.29,4.37-0.42,5.99,0.66c0.27,0.18,0.52,0.41,0.58,0.69c0.06,0.3-0.11,0.6-0.29,0.87c-1.9,2.82-5.36,4.67-7.52,7.35
					c-1.41,1.75-2.22,3.8-3.46,5.65c-1.22,1.83-2.86,3.46-4.8,4.77c-2.7,1.82-8.53,2.71-11.58,4.07c-3.08,1.37-4.06,2.81-5.1,5.34
					c-0.89-0.74,0.01-3,0.21-3.94c0.36-1.64,0.81-3.27,1.37-4.88C687.23,456.73,687.81,452.81,689.66,449.85z"/>
				<path class="st0" d="M681.21,448.57c-3.23-4.48-7.89-8.13-13.16-10.86c-3.89-2.02-8.21-3.61-11.31-6.44
					c-0.36-0.32-0.73-0.68-1.25-0.76c-0.68-0.11-1.35,0.34-1.63,0.88c-0.28,0.54-0.25,1.15-0.19,1.73
					c0.47,4.64,2.65,9.09,5.97,12.75c3.32,3.66,7.76,6.55,12.69,8.53c3.48,1.4,7.47,2.54,9.48,5.33c0.97,1.35,1.75,2.29,2.33,3.8
					c0.14,0.36,1.2,3.13,1,6.8c-0.01,0.13,0.6-10.47,0.3-12.11C684.8,454.79,683.32,451.5,681.21,448.57z"/>
				<path class="st0" d="M688.31,420.62c4.44-6.07,11.37-10.69,19.08-13.53c0.56-0.21,1.11,0.14,1.17,0.65
					c0.8,7.3-3.42,13.31-9.05,18.02c-2.87,2.4-7.33,4.1-9.93,6.71c-2.97,2.99-3.63,5.45-3.98,9.72c0,0.04-0.06,0.04-0.07,0.01
					c-1.26-4.04-2.38-7-2.03-9.74C684.01,428.28,685.7,424.2,688.31,420.62z"/>
				<path class="st0" d="M671.02,416.96c-5.47-3.32-6.62-2.39-12.4-5.13c-4.46-2.12-8.07-6.23-8.86-5.26
					c-0.93,1.14,5.94,15.96,12.85,19.94c6.39,3.68,15.9,4.98,21.23,10.01c-0.41-3.05-2.22-6.41-3.72-9.18
					C677.98,423.4,675.25,419.53,671.02,416.96z"/>
				<path class="st0" d="M649.24,556.61c11.47-2.4,24.05-1.61,35.56,1.42c0.83,0.22,1.06,0.95,0.56,1.47
					c-7.09,7.41-18.24,9.92-29.52,10.17c-5.74,0.13-12.47-1.57-18.15-1.04c-6.5,0.61-9.9,2.42-14.94,6.14
					c-0.04,0.03-0.11-0.01-0.09-0.05c3.03-4.7,5.04-8.29,8.4-10.6C636.2,560.6,642.48,558.03,649.24,556.61z"/>
				<path class="st0" d="M638.42,542.72c0.12-7.13-1.71-7.36-2.46-14.29c-0.57-5.35,1.69-11.55,0.06-11.45
					c-1.92,0.12-14.18,17.35-14.09,26.19c0.09,8.17,4.97,17.09,2.81,25.43c3.2-2.71,5.8-6.83,7.95-10.23
					C635.75,553.51,638.32,548.23,638.42,542.72z"/>
				<path class="st0" d="M693.28,403.57c4.86-3.23,9.71-7.3,10.43-12.48c0.18-1.26-0.1-2.8-1.46-3.3c-0.82-0.3-7.71,1.88-8.49,2.27
					c-3.42,1.69-5.9,2.9-9.66,7.42c-1.97,2.37-3.43,5.03-4.34,7.82c-0.58,1.78-1.84,10.5-0.9,8.61c1.27-2.56,3.8-4.25,5.17-5.45
					C686.71,406.11,690.26,405.58,693.28,403.57z"/>
				<path class="st0" d="M673.99,397.02c-2.66-2.72-6.18-4.78-10-6.21c-1.41-0.53-2.86-0.97-4.19-1.62
					c-2.74-1.34-4.8-3.46-6.81-5.53c-0.96,0.15-1.17,1.24-1.1,2.06c0.68,8.26,6.83,15.97,15.58,19.5c1.9,0.77,3.91,1.35,5.77,2.19
					c2.19,0.98,4.15,2.3,5.78,3.88c-0.13-0.13,0.2-1.46,0.19-1.72c-0.02-0.66-0.2-1.27-0.37-1.91c-0.27-1.03-0.3-2.08-0.54-3.11
					C677.65,401.77,676.1,399.18,673.99,397.02z"/>
				<path class="st0" d="M684.06,383.82c3.44-3.15,6.37-5.37,8.36-7.39c1.5-1.52,2.99-3.18,3.36-5.13c0.06-0.29,0.08-0.6-0.03-0.88
					c-0.16-0.39-0.58-0.67-1.02-0.85c-1.34-0.54-2.93-0.37-4.39-0.06c-5.55,1.17-10.65,4.27-13.35,8.59
					c-2.08,3.32-2.62,7.33-1.38,10.9c0.24,0.71,1.82,5.16,2,4.29c0.53-2.56,1.96-4.29,2.44-5.05
					C681.33,386.16,682.19,385.53,684.06,383.82z"/>
				<path class="st0" d="M675.58,381.18c-0.89-1.82-2.1-3.55-3.78-4.89c-4.98-3.97-12.88-3.85-18.59-7.02
					c-0.56-0.31-1.32-0.65-1.85-0.28c-0.44,0.31-0.36,0.89-0.22,1.36c1.56,5.19,5.57,9.97,11.33,12.07c2.59,0.95,5.49,1.36,7.8,2.73
					c1.82,1.09,4.32,2.17,5.34,3.85c0.71,1.16,0.42,1.18,1.84,3.28c0.02,0.02-0.29-5.25-0.38-5.75
					C676.76,384.7,676.42,382.9,675.58,381.18z"/>
				<path class="st0" d="M685.73,349.9c0.67-1.17,1.3-2.38,1.47-3.58s-0.19-2.41-1.26-3.03c-1.07-0.62-2.69-0.57-4.15-0.1
					c-1.46,0.47-2.78,1.32-3.97,2.23c-6.38,4.88-9.74,12.17-8.33,18.1c-0.03-2.46-2.87-3.74-5.44-4.68c-5.5-2.02-11-4.03-16.5-6.05
					c-0.1-0.04-0.22-0.08-0.34-0.06c-0.32,0.04-0.51,0.37-0.59,0.63c-1.02,3.19,0.29,6.26,2.75,8.26c2.46,2,5.95,3.05,9.58,3.62
					c2.58,0.41,5.29,0.61,7.61,1.43c1.51,0.53,2.8,1.32,3.97,2.2c0.63,0.48,2.2,2.68,3.03,2.72c1.09,0.06,1.15-1.6,1.41-2.41
					c0.43-1.32,0.97-2.63,1.59-3.93C679.07,360.02,682.81,355.05,685.73,349.9z"/>
				<path class="st0" d="M647.93,533.94c-0.64-2.61-1.84-5.09-2.67-7.66c-2.34-7.28-1.71-15.44-5.42-22.15
					c-0.55-0.99,0.51-2.1,1.76-1.85c4.58,0.94,8.13,4.35,10.65,8.1c3.19,4.72,3.46,9.79,4.01,15.25c0.34,3.39-2.75,9.89-4.96,13.84
					c-1.29,2.3-0.98,1.96-2.86,3.95c4.15-7.53,13.74-12.69,23.44-12.63c4.84,0.03,9.91-0.6,14.75-0.65
					c4.65-0.05,8.01-1.11,12.49-2.21c0.89-0.22,1.75,0.41,1.6,1.18c-0.9,4.58-4.74,8.67-9.56,11c-5.37,2.59-11.77,3.23-17.87,2.77
					c-5.65-0.42-11.26-1.72-16.91-1.14c-5.65,0.58-6.98-1.26-15.09,11.55C641.29,553.29,649.59,540.73,647.93,533.94z"/>
				<g>
					<g>
						<path class="st0" d="M539.07,220.51c54.75,23.14,99.5,66.74,121.68,122.15c1.24,3.09,6.29,1.74,5.04-1.39
							c-22.68-56.65-68-101.57-124.09-125.28C538.64,214.7,535.98,219.2,539.07,220.51L539.07,220.51z"/>
					</g>
				</g>
				<g>
					<g>
						<path class="st0" d="M619.47,261.58c21.86,21.94,39.26,47.91,50.78,76.69c1.24,3.09,6.29,1.74,5.04-1.39
							c-11.87-29.64-29.6-56.38-52.12-78.99C620.78,255.5,617.09,259.2,619.47,261.58L619.47,261.58z"/>
					</g>
				</g>
				<g>
					<g>
						<path class="st0" d="M564.2,245.69c38.13,23.59,68.45,58.58,85.16,100.29c1.24,3.08,6.29,1.74,5.04-1.39
							c-17.24-43.04-48.19-79.05-87.56-103.42C563.97,239.4,561.34,243.92,564.2,245.69L564.2,245.69z"/>
					</g>
				</g>
			</g>
		</g>
		<g>
			<g>
				<path class="st0" d="M293.72,580.71c-0.09-0.11,0.1-0.23,0.2-0.13c4.35,4.45,12.02,11.26,18.99,20.42
					c8.55,11.23,8.89,21.75,8.89,21.75s1.1,8.99-3.55,6.93c-1.9-0.84-2.46-2.49-2.8-6.67c-0.49-5.93-1.13-13.46-7.79-23.9
					C303.19,592.09,296.26,583.82,293.72,580.71z"/>
				<path class="st0" d="M240.87,524.7c-0.45-0.77-0.9-1.57-1.36-2.39c-3.63-6.64-7.14-15.11-7.61-21.92
					c-0.53-7.66,1.42-15.52,6.4-21.84c1.31-1.66,2.84-3.23,4.82-4.31c1.38-0.75,2.92-1.25,4.49-1.67c0.57-0.15,1.14,0.24,1.08,0.75
					c-0.66,5.79,1.53,11.78,0.09,17.48c-1.1,4.36-4.21,8.08-6.92,11.87c-2.71,3.79-5.15,8.04-4.67,12.5
					c0.16,1.49,0.65,2.95,1.21,4.37C239.11,521.31,239.93,523.03,240.87,524.7c0,0-1.76-4.19-3.64-4.94
					c-1.88-0.75-8.63-1.5-15.69-1.88c-6.28-0.34-16.75-3.64-21.27-7.13c-3.9-3.01-5.91-6.52-6.7-8.19c-0.23-0.48,0.16-1,0.77-1.02
					c4.38-0.15,19.84-0.14,28.91,6.61c10.64,7.92,15.12,11.99,15.12,11.99L240.87,524.7z"/>
				<path class="st0" d="M305.81,593.81c-0.94-0.51-2.27-4.4-3.29-4.93c-8.18-4.21-16.46-6.94-25.48-8.25
					c-10.15-1.48-21.05-0.68-30.48,3.12c-2.48,1-4.87,2.22-6.71,3.9c-1.28,1.18-2.24,2.54-3.11,3.94c-0.31,0.51,0.1,1.09,0.79,1.1
					c7.87,0.13,15.47,2.93,23.37,2.33c6.05-0.46,11.64-2.86,17.25-4.88c5.6-2.02,11.77-3.73,17.64-2.72
					c1.96,0.34,3.82,0.98,5.61,1.68c2.21,0.87,1.85,3.49,3.91,4.58c0,0-2.12-4.06-3.4-5.64c-2.59-3.2-5.91-10.32-5.04-16.9
					c0.78-5.86,2.61-13.07,0.45-18.39c-2.07-5.09-6.57-14.3-7.92-11.59c-6.23,12.53-7.66,27.83-0.41,37.09
					c8.52,10.86,13.2,10.9,13.2,10.9L305.81,593.81z"/>
				<path class="st0" d="M220.92,494.59c-4.22-1.58-8.62-2.7-12.99-3.93c-4.64-1.31-9.31-2.97-12.81-5.9
					c-0.99-0.83-1.88-1.76-2.71-2.71c-1.68-1.92-3.17-3.97-4.43-6.1c-1.23-2.08-1.54-4.01-2.34-6.18c-0.09-0.25-0.17-0.53,0-0.74
					c0.17-0.21,0.52-0.25,0.82-0.26c10.69-0.36,21.49,3.43,29.13,9.91c4.04,3.43,5.95,5.2,7.82,10.47c0.69,1.94,1.59,3.88,2.2,5.81
					c0.58,1.84,1.15,5.73,1.17,7.62c-0.03-3.02-1.65-6.36-4.99-7.67C221.5,494.81,221.21,494.7,220.92,494.59z"/>
				<path class="st0" d="M229.68,463.33c4.03-4.51,9.4-8.09,15.32-10.22c1.2-0.43,2.45-0.81,3.7-0.77c0.69,0.02,1.46,0.26,1.6,0.85
					c0.07,0.31-0.05,0.64-0.18,0.94c-0.93,2.16-4.79,9.94-6.24,11.89c-4.24,5.67-9.08,5.52-13,11.35c-3.69,5.5-6.83,12.1-6.56,13.43
					c0.89,4.34-0.7,0.8-0.36-0.17c0.94-2.65-0.89-10.82,0.07-14.48C225.26,471.48,226.26,467.16,229.68,463.33z"/>
				<path class="st0" d="M210.3,449.85c-0.87-1.38-3.94-4.95-6.09-6.26c-5.34-3.24-8.54-3.33-14.98-4.23
					c-2.06-0.29-4.37-0.42-5.99,0.66c-0.27,0.18-0.52,0.41-0.58,0.69c-0.06,0.3,0.11,0.6,0.29,0.87c1.9,2.82,5.36,4.67,7.52,7.35
					c1.41,1.75,2.22,3.8,3.46,5.65c1.22,1.83,2.86,3.46,4.8,4.77c2.7,1.82,8.53,2.71,11.58,4.07c3.08,1.37,4.06,2.81,5.1,5.34
					c0.89-0.74-0.01-3-0.21-3.94c-0.36-1.64-0.81-3.27-1.37-4.88C212.73,456.73,212.15,452.81,210.3,449.85z"/>
				<path class="st0" d="M218.75,448.57c3.23-4.48,7.89-8.13,13.16-10.86c3.89-2.02,8.21-3.61,11.31-6.44
					c0.36-0.32,0.73-0.68,1.25-0.76c0.68-0.11,1.35,0.34,1.63,0.88c0.28,0.54,0.25,1.15,0.19,1.73c-0.47,4.64-2.65,9.09-5.97,12.75
					c-3.32,3.66-7.76,6.55-12.69,8.53c-3.48,1.4-7.47,2.54-9.48,5.33c-0.97,1.35-1.75,2.29-2.33,3.8c-0.14,0.36-1.2,3.13-1,6.8
					c0.01,0.13-0.6-10.47-0.3-12.11C215.16,454.79,216.64,451.5,218.75,448.57z"/>
				<path class="st0" d="M211.65,420.62c-4.44-6.07-11.37-10.69-19.08-13.53c-0.56-0.21-1.11,0.14-1.17,0.65
					c-0.8,7.3,3.42,13.31,9.05,18.02c2.87,2.4,7.33,4.1,9.93,6.71c2.97,2.99,3.63,5.45,3.98,9.72c0,0.04,0.06,0.04,0.07,0.01
					c1.26-4.04,2.38-7,2.03-9.74C215.95,428.28,214.27,424.2,211.65,420.62z"/>
				<path class="st0" d="M228.94,416.96c5.47-3.32,6.62-2.39,12.4-5.13c4.46-2.12,8.07-6.23,8.86-5.26
					c0.93,1.14-5.94,15.96-12.85,19.94c-6.39,3.68-15.9,4.98-21.23,10.01c0.41-3.05,2.22-6.41,3.72-9.18
					C221.98,423.4,224.72,419.53,228.94,416.96z"/>
				<path class="st0" d="M250.72,556.61c-11.47-2.4-24.05-1.61-35.56,1.42c-0.83,0.22-1.06,0.95-0.56,1.47
					c7.09,7.41,18.24,9.92,29.52,10.17c5.74,0.13,12.47-1.57,18.15-1.04c6.5,0.61,9.9,2.42,14.94,6.14
					c0.04,0.03,0.11-0.01,0.09-0.05c-3.03-4.7-5.04-8.29-8.4-10.6C263.77,560.6,257.48,558.03,250.72,556.61z"/>
				<path class="st0" d="M261.55,542.72c-0.12-7.13,1.71-7.36,2.46-14.29c0.57-5.35-1.69-11.55-0.06-11.45
					c1.92,0.12,14.18,17.35,14.09,26.19c-0.09,8.17-4.97,17.09-2.81,25.43c-3.2-2.71-5.8-6.83-7.95-10.23
					C264.22,553.51,261.64,548.23,261.55,542.72z"/>
				<path class="st0" d="M206.68,403.57c-4.86-3.23-9.71-7.3-10.43-12.48c-0.18-1.26,0.1-2.8,1.46-3.3c0.82-0.3,7.71,1.88,8.49,2.27
					c3.42,1.69,5.9,2.9,9.66,7.42c1.97,2.37,3.43,5.03,4.34,7.82c0.58,1.78,1.84,10.5,0.9,8.61c-1.27-2.56-3.8-4.25-5.17-5.45
					C213.26,406.11,209.7,405.58,206.68,403.57z"/>
				<path class="st0" d="M225.97,397.02c2.66-2.72,6.18-4.78,10-6.21c1.41-0.53,2.86-0.97,4.19-1.62c2.74-1.34,4.8-3.46,6.81-5.53
					c0.96,0.15,1.17,1.24,1.1,2.06c-0.68,8.26-6.83,15.97-15.58,19.5c-1.9,0.77-3.91,1.35-5.77,2.19c-2.19,0.98-4.15,2.3-5.78,3.88
					c0.13-0.13-0.2-1.46-0.19-1.72c0.02-0.66,0.2-1.27,0.37-1.91c0.27-1.03,0.3-2.08,0.54-3.11
					C222.31,401.77,223.86,399.18,225.97,397.02z"/>
				<path class="st0" d="M215.9,383.82c-3.44-3.15-6.37-5.37-8.36-7.39c-1.5-1.52-2.99-3.18-3.36-5.13
					c-0.06-0.29-0.08-0.6,0.03-0.88c0.16-0.39,0.58-0.67,1.02-0.85c1.34-0.54,2.93-0.37,4.39-0.06c5.55,1.17,10.65,4.27,13.35,8.59
					c2.08,3.32,2.62,7.33,1.38,10.9c-0.24,0.71-1.82,5.16-2,4.29c-0.53-2.56-1.96-4.29-2.44-5.05
					C218.63,386.16,217.78,385.53,215.9,383.82z"/>
				<path class="st0" d="M224.38,381.18c0.89-1.82,2.1-3.55,3.78-4.89c4.98-3.97,12.88-3.85,18.59-7.02
					c0.56-0.31,1.32-0.65,1.85-0.28c0.44,0.31,0.36,0.89,0.22,1.36c-1.56,5.19-5.57,9.97-11.33,12.07c-2.59,0.95-5.49,1.36-7.8,2.73
					c-1.82,1.09-4.32,2.17-5.34,3.85c-0.71,1.16-0.42,1.18-1.84,3.28c-0.02,0.02,0.29-5.25,0.38-5.75
					C223.2,384.7,223.54,382.9,224.38,381.18z"/>
				<path class="st0" d="M214.23,349.9c-0.67-1.17-1.3-2.38-1.47-3.58s0.19-2.41,1.26-3.03c1.07-0.62,2.69-0.57,4.15-0.1
					c1.46,0.47,2.78,1.32,3.97,2.23c6.38,4.88,9.74,12.17,8.33,18.1c0.03-2.46,2.87-3.74,5.44-4.68c5.5-2.02,11-4.03,16.5-6.05
					c0.1-0.04,0.22-0.08,0.34-0.06c0.32,0.04,0.51,0.37,0.59,0.63c1.02,3.19-0.29,6.26-2.75,8.26c-2.46,2-5.95,3.05-9.58,3.62
					c-2.58,0.41-5.29,0.61-7.61,1.43c-1.51,0.53-2.8,1.32-3.97,2.2c-0.63,0.48-2.2,2.68-3.03,2.72c-1.09,0.06-1.15-1.6-1.41-2.41
					c-0.43-1.32-0.97-2.63-1.59-3.93C220.89,360.02,217.16,355.05,214.23,349.9z"/>
				<path class="st0" d="M252.03,533.94c0.64-2.61,1.84-5.09,2.67-7.66c2.34-7.28,1.71-15.44,5.42-22.15
					c0.55-0.99-0.51-2.1-1.76-1.85c-4.58,0.94-8.13,4.35-10.65,8.1c-3.19,4.72-3.46,9.79-4.01,15.25
					c-0.34,3.39,2.75,9.89,4.96,13.84c1.29,2.3,0.98,1.96,2.86,3.95c-4.15-7.53-13.74-12.69-23.44-12.63
					c-4.84,0.03-9.91-0.6-14.75-0.65c-4.65-0.05-8.01-1.11-12.49-2.21c-0.89-0.22-1.75,0.41-1.6,1.18c0.9,4.58,4.74,8.67,9.56,11
					c5.37,2.59,11.77,3.23,17.87,2.77c5.65-0.42,11.26-1.72,16.91-1.14c5.65,0.58,6.98-1.26,15.09,11.55
					C258.68,553.29,250.38,540.73,252.03,533.94z"/>
				<g>
					<g>
						<path class="st0" d="M358.26,216c-56.08,23.7-101.41,68.63-124.09,125.28c-1.25,3.12,3.8,4.48,5.04,1.39
							c22.18-55.41,66.93-99.01,121.68-122.15C363.98,219.21,361.32,214.7,358.26,216L358.26,216z"/>
					</g>
				</g>
				<g>
					<g>
						<path class="st0" d="M276.8,257.89c-22.53,22.61-40.25,49.36-52.12,78.99c-1.25,3.12,3.8,4.48,5.04,1.39
							c11.52-28.77,28.92-54.75,50.78-76.69C282.87,259.2,279.18,255.5,276.8,257.89L276.8,257.89z"/>
					</g>
				</g>
				<g>
					<g>
						<path class="st0" d="M333.13,241.18c-39.37,24.36-70.32,60.38-87.56,103.42c-1.25,3.12,3.8,4.48,5.04,1.39
							c16.71-41.72,47.03-76.7,85.16-100.29C338.62,243.93,336,239.4,333.13,241.18L333.13,241.18z"/>
					</g>
				</g>
			</g>
		</g>
	</g>
</g>
</svg>
