<?xml version="1.0" encoding="utf-8"?>
<!-- Generator: Adobe Illustrator 25.0.0, SVG Export Plug-In . SVG Version: 6.00 Build 0)  -->
<svg version="1.1" id="Warstwa_1" xmlns="http://www.w3.org/2000/svg" xmlns:xlink="http://www.w3.org/1999/xlink" x="0px" y="0px"
	 viewBox="0 0 900 1600" style="enable-background:new 0 0 900 1600;" xml:space="preserve">
<style type="text/css">
	.Dodaj_x0020_cień{fill:none;}
	.Blask_x0020_zewnętrzny_x0020__x0028_5_x0020_pkt_x002E__x0029_{fill:none;}
	.Niebieski_x0020_neon{fill:none;stroke:#8AACDA;stroke-width:7;stroke-linecap:round;stroke-linejoin:round;}
	.Podświetlenie_x0020_Chrom{fill:url(#SVGID_1_);stroke:#FFFFFF;stroke-width:0.3629;stroke-miterlimit:1;}
	.Jive_GS{fill:#FFDD00;}
	.Alyssa_GS{fill:#A6D0E4;}
</style>
<linearGradient id="SVGID_1_" gradientUnits="userSpaceOnUse" x1="0" y1="0" x2="6.123234e-17" y2="-1">
	<stop  offset="0" style="stop-color:#656565"/>
	<stop  offset="0.618" style="stop-color:#1B1B1B"/>
	<stop  offset="0.6292" style="stop-color:#545454"/>
	<stop  offset="0.9831" style="stop-color:#3E3E3E"/>
</linearGradient>
<path d="M618.31,1136.66c-9.83-40.87-11.9-119.71-11.9-119.71c-7.37-31.24-30.95-41.99-61.5-29.3
	c-27.55,11.45-26.06,45.14-26.06,45.14c56.91-3.88,47.86,45.66,47.86,45.66c7.24-25.74,13.32-39.32,16.17-43.85
	c2.85-4.53,3.88-18.76,3.88-18.76c1.55,4.92,0,15.26,0,15.26c2.73-3.46,14.49-5.17,14.49-5.17c-20.95,7.24-24.07,37.65-24.32,38.93
	c-8.67,45.66-27.16,55.75-31.82,60.41c-4.66,4.66-77.87,52-77.87,52c8.02,15,8.54,62.35,8.54,62.35
	c-3.36-34.41-16.56-58.21-16.56-58.21c-8.54,0-71.14,84.08-79.94,85.37c-8.8,1.29-33.37,16.82-33.37,16.82s1.55-8.54,22.77-18.63
	c21.21-10.09,62.73-67.39,62.73-67.39c-3.88-0.78-33.37,4.07-33.37,4.07c17.27-9.31,40.55-11.06,40.55-11.06l17.27-16.69l-17.46-3.1
	l26.19-2.13c0,0,53.61-30.46,83.11-56.85c29.49-26.39,6.98-71.66-20.18-70.37c-27.16,1.29-72.69,36.48-92.1,39.06
	c-19.4,2.59-34.41,15.52-44.24,26.9c-9.83,11.38-89.64,89.38-89.64,89.38l-5.95,2.72v-2.91c0,0,47.73-51.67,80.84-91.25
	c33.11-39.58,56.14-31.3,78.64-43.98c22.51-12.68,54.13-25.22,54.13-25.22s-0.39-7.57,2.72-21.73c0.21-0.98,0.46-1.93,0.73-2.87
	c3.28-11.3,11.13-20.75,21.31-26.64c4.53-2.62,11.23-6.68,11.23-6.68c-0.1-53.06-1.39-88.64-2.43-120.97
	c-0.97-30.26-11.9-129.86-11.9-129.86c-15.03-46.76-51.74-26.9-51.74-26.9l-3.62,302.16l-4.66-1.81c-2.01-0.78-3.35-2.72-3.36-4.88
	c-0.25-52.57,3.88-334.66,3.88-334.66c-45.79-44.24-69.85,5.43-69.85,5.43l-2.72,331.78l-4.41-5.79c-1.17-1.53-2.94-2.37-2.96-4.3
	l-1.94-287.54c-15.52-14.75-56.65-1.55-57.82,42.3s-13.45,94.42-18.11,162.2c-5.7,82.98,0,81.75-6.34,125.34
	c-4.58,31.49-11.25,67.52-18.24,108.26c-6.98,40.74-6.21,71.01-3.34,81.49c2.87,10.48,2.18,37.25,0.24,79.55
	c-1.94,42.3,8.54,45.79,14.75,64.8c6.21,19.01,3.88,28.72,3.88,28.72l-3.88,232.05l219.24-2.72l-0.91-9.7l5.69-153.67
	c65.71-90.54,63.12-132.45,73.47-152.11C608.48,1287.74,628.14,1177.54,618.31,1136.66z M474.48,1452.53
	c-0.84,14.35-4.44,106.98-5.74,140.66l-4.61-141.95c-1.81,0-15.26-7.5-15.26-7.5c32.6,9.31,64.67,1.29,64.67,1.29
	C499.05,1455.89,474.48,1452.53,474.48,1452.53z M373.97,1441.28l-15.17,121.07l0,0l1.59-129.99
	c-32.6-30.66-45.01-67.13-45.01-67.13c100.5,163.75,173.07-22.89,173.07-22.89c-0.78,55.88-65.71,99.08-65.71,99.08l-7.73,151.46
	l-11.16-147.32C393.37,1446.32,373.97,1441.28,373.97,1441.28z"/>
</svg>
