<?xml version="1.0" encoding="utf-8"?>
<!-- Generator: Adobe Illustrator 25.0.0, SVG Export Plug-In . SVG Version: 6.00 Build 0)  -->
<svg version="1.1" id="Warstwa_1" xmlns="http://www.w3.org/2000/svg" xmlns:xlink="http://www.w3.org/1999/xlink" x="0px" y="0px"
	 viewBox="0 0 1080 1080" style="enable-background:new 0 0 1080 1080;" xml:space="preserve">
<style type="text/css">
	.Dodaj_x0020_cień{fill:none;}
	.Blask_x0020_zewnętrzny_x0020__x0028_5_x0020_pkt_x002E__x0029_{fill:none;}
	.Niebieski_x0020_neon{fill:none;stroke:#8AACDA;stroke-width:7;stroke-linecap:round;stroke-linejoin:round;}
	.Podświetlenie_x0020_Chrom{fill:url(#SVGID_1_);stroke:#FFFFFF;stroke-width:0.3629;stroke-miterlimit:1;}
	.Jive_GS{fill:#FFDD00;}
	.Alyssa_GS{fill:#A6D0E4;}
</style>
<linearGradient id="SVGID_1_" gradientUnits="userSpaceOnUse" x1="0" y1="0" x2="6.123234e-17" y2="-1">
	<stop  offset="0" style="stop-color:#656565"/>
	<stop  offset="0.618" style="stop-color:#1B1B1B"/>
	<stop  offset="0.6292" style="stop-color:#545454"/>
	<stop  offset="0.9831" style="stop-color:#3E3E3E"/>
</linearGradient>
<g>
	<path d="M76.27,760.13c9.26-43.42,32.75-80,59.09-114.01c45.4-58.63,124.76-79.1,193.89-52.79c6.92,2.63,10.51,1.36,15.33-3.48
		c80.72-81.14,161.57-162.16,242.58-243c4.94-4.93,5.89-8.56,3.29-15.38c-28.88-76-0.07-162.82,68.45-206.22
		c18.74-11.87,37.83-23.37,57.64-33.27c12.66-6.32,26.94-9.37,40.49-13.89c9.61,0,19.21,0,28.82,0c10.04,2.84,20.26,5.16,30.07,8.64
		c26.79,9.49,44.57,30.57,64.28,50.79c-32.78,32.69-65.26,65.07-97.48,97.21c19.91,19.88,39.2,39.15,58.49,58.41
		c31.7-31.95,63.96-64.45,96.02-96.76c61.05,46.78,78.66,111.44,42.71,172.94c-12.86,22-24.93,44.86-40.68,64.68
		c-46.63,58.67-124.8,78.98-194.77,52.3c-6.24-2.38-9.52-1.02-13.82,3.3c-81.15,81.54-162.41,162.96-243.8,244.25
		c-4.43,4.43-5.32,7.8-3,13.88c29.07,76.36,1.08,162.43-67.4,206.53c-18.89,12.17-38.32,23.7-58.38,33.76
		c-12.64,6.33-26.92,9.38-40.47,13.9c-9.61,0-19.21,0-28.82,0c-39.66-6.1-68.66-29.13-94.7-60.91c32.36-32.13,65-64.55,96.85-96.18
		c-19.46-19.69-38.6-39.05-58.48-59.16c-32.11,32.36-64.39,64.91-97.04,97.81c-17.24-17.35-36.13-32.38-45.94-54.61
		c-5.63-12.75-8.88-26.54-13.2-39.87C76.27,779.38,76.27,769.76,76.27,760.13z M659.44,348.57
		C554.88,453.35,450.77,557.68,346.33,662.34c-7.16-3.97-14.92-8.5-22.9-12.64c-55.16-28.59-122.54-10.21-155.39,42.63
		c-10.3,16.56-19.83,33.61-29.45,50.59c-2.49,4.4-4.48,9.23-5.8,14.11c-4.34,16.03-3.24,31.54,5.53,48.27
		c32.45-32.72,63.69-64.21,93.9-94.66c45.08,45.13,89.97,90.06,135.3,135.43c-14.99,15.01-30.67,30.71-46.36,46.4
		c-15.68,15.69-31.36,31.37-47.96,47.99c3.73,1.58,6.31,2.89,9.03,3.79c18.37,6.09,36.12,4.44,52.96-5
		c15.17-8.5,30.18-17.3,45.16-26.14c58.9-34.8,77.68-104.94,44.22-164.9c-3.33-5.96-6.64-11.93-9.03-16.21
		c104.95-105.11,209.06-209.38,313.49-313.97c6.81,3.78,14.55,8.37,22.55,12.47c52.55,26.91,116.94,11.79,150.6-36.58
		c13.33-19.15,24.74-39.79,35.49-60.55c9.59-18.5,9.02-37.89-1.52-59.24c-32.6,32.8-64.02,64.42-94.68,95.27
		c-44.76-44.85-89.48-89.65-134.81-135.07c15.18-15.19,30.85-30.87,46.52-46.54c15.82-15.82,31.64-31.62,48.32-48.29
		c-21.95-10.03-42.08-9.81-61.74,1.06c-16.53,9.14-32.88,18.64-49,28.49c-54.65,33.43-73.17,102.77-42.7,159.18
		C651.93,335.35,655.96,342.35,659.44,348.57z"/>
</g>
<g>
	<g>
		<path d="M285.72,252.78l120.3-58.67L76.27,78.08l108.54,314.4l68.51-109.58l-68.69-71.02l-20.54-46.06
			c0,0,47.04,16.46,50.13,19.74L285.72,252.78z"/>
		<path d="M980.75,953.43c1.6-9.91-2-19.78-8.94-26.74L675.05,629.08l-0.21,0.9L320.84,275.83c-33.18-16.09-56.85,21.23-42.57,42.07
			l657,649.34c5.44,5.38,13.01,8.14,20.78,7.48C969.9,973.54,978.72,965.99,980.75,953.43z"/>
	</g>
</g>
</svg>
